G75*
%MOIN*%
%OFA0B0*%
%FSLAX24Y24*%
%IPPOS*%
%LPD*%
%AMOC8*
5,1,8,0,0,1.08239X$1,22.5*
%
%ADD10C,0.0160*%
%ADD11R,0.0001X0.0001*%
%ADD12R,0.0002X0.0001*%
%ADD13R,0.0006X0.0001*%
%ADD14R,0.0005X0.0001*%
%ADD15R,0.0004X0.0001*%
%ADD16R,0.0007X0.0001*%
%ADD17R,0.0027X0.0001*%
%ADD18R,0.0037X0.0001*%
%ADD19R,0.0034X0.0001*%
%ADD20R,0.0028X0.0001*%
%ADD21R,0.0078X0.0001*%
%ADD22R,0.0030X0.0001*%
%ADD23R,0.0097X0.0001*%
%ADD24R,0.0017X0.0001*%
%ADD25R,0.0085X0.0001*%
%ADD26R,0.0087X0.0001*%
%ADD27R,0.0035X0.0001*%
%ADD28R,0.0048X0.0001*%
%ADD29R,0.0047X0.0001*%
%ADD30R,0.0079X0.0001*%
%ADD31R,0.0051X0.0001*%
%ADD32R,0.0018X0.0001*%
%ADD33R,0.0074X0.0001*%
%ADD34R,0.0084X0.0001*%
%ADD35R,0.0086X0.0001*%
%ADD36R,0.0109X0.0001*%
%ADD37R,0.0008X0.0001*%
%ADD38R,0.0098X0.0001*%
%ADD39R,0.0099X0.0001*%
%ADD40R,0.0103X0.0001*%
%ADD41R,0.0107X0.0001*%
%ADD42R,0.0014X0.0001*%
%ADD43R,0.0011X0.0001*%
%ADD44R,0.0019X0.0001*%
%ADD45R,0.0081X0.0001*%
%ADD46R,0.0096X0.0001*%
%ADD47R,0.0080X0.0001*%
%ADD48R,0.0089X0.0001*%
%ADD49R,0.0094X0.0001*%
%ADD50R,0.0136X0.0001*%
%ADD51R,0.0135X0.0001*%
%ADD52R,0.0123X0.0001*%
%ADD53R,0.0145X0.0001*%
%ADD54R,0.0146X0.0001*%
%ADD55R,0.0143X0.0001*%
%ADD56R,0.0148X0.0001*%
%ADD57R,0.0077X0.0001*%
%ADD58R,0.0090X0.0001*%
%ADD59R,0.0059X0.0001*%
%ADD60R,0.0058X0.0001*%
%ADD61R,0.0022X0.0001*%
%ADD62R,0.0043X0.0001*%
%ADD63R,0.0009X0.0001*%
%ADD64R,0.0063X0.0001*%
%ADD65R,0.0056X0.0001*%
%ADD66R,0.0015X0.0001*%
%ADD67R,0.0032X0.0001*%
%ADD68R,0.0031X0.0001*%
%ADD69R,0.0044X0.0001*%
%ADD70R,0.0054X0.0001*%
%ADD71R,0.0053X0.0001*%
%ADD72R,0.0039X0.0001*%
%ADD73R,0.0041X0.0001*%
%ADD74R,0.0052X0.0001*%
%ADD75R,0.0070X0.0001*%
%ADD76R,0.0066X0.0001*%
%ADD77R,0.0061X0.0001*%
%ADD78R,0.0046X0.0001*%
%ADD79R,0.0040X0.0001*%
%ADD80R,0.0072X0.0001*%
%ADD81R,0.0073X0.0001*%
%ADD82R,0.0060X0.0001*%
%ADD83R,0.0050X0.0001*%
%ADD84R,0.0012X0.0001*%
%ADD85R,0.0033X0.0001*%
%ADD86R,0.0057X0.0001*%
%ADD87R,0.0076X0.0001*%
%ADD88R,0.0069X0.0001*%
%ADD89R,0.0071X0.0001*%
%ADD90R,0.0178X0.0001*%
%ADD91R,0.0177X0.0001*%
%ADD92R,0.0175X0.0001*%
%ADD93R,0.0176X0.0001*%
%ADD94R,0.0106X0.0001*%
%ADD95R,0.0256X0.0001*%
%ADD96R,0.0262X0.0001*%
%ADD97R,0.0263X0.0001*%
%ADD98R,0.0265X0.0001*%
%ADD99R,0.0274X0.0001*%
%ADD100R,0.0275X0.0001*%
%ADD101R,0.0252X0.0001*%
%ADD102R,0.0021X0.0001*%
%ADD103R,0.0250X0.0001*%
%ADD104R,0.0083X0.0001*%
%ADD105R,0.0158X0.0001*%
%ADD106R,0.0157X0.0001*%
%ADD107R,0.0013X0.0001*%
%ADD108R,0.0282X0.0001*%
%ADD109R,0.0283X0.0001*%
%ADD110R,0.0025X0.0001*%
%ADD111R,0.0026X0.0001*%
%ADD112R,0.0285X0.0001*%
%ADD113R,0.0253X0.0001*%
%ADD114R,0.0161X0.0001*%
%ADD115R,0.0286X0.0001*%
%ADD116R,0.0269X0.0001*%
%ADD117R,0.0092X0.0001*%
%ADD118R,0.0294X0.0001*%
%ADD119R,0.0293X0.0001*%
%ADD120R,0.0038X0.0001*%
%ADD121R,0.0093X0.0001*%
%ADD122R,0.0295X0.0001*%
%ADD123R,0.0270X0.0001*%
%ADD124R,0.0278X0.0001*%
%ADD125R,0.0279X0.0001*%
%ADD126R,0.0105X0.0001*%
%ADD127R,0.0305X0.0001*%
%ADD128R,0.0304X0.0001*%
%ADD129R,0.0280X0.0001*%
%ADD130R,0.0281X0.0001*%
%ADD131R,0.0287X0.0001*%
%ADD132R,0.0288X0.0001*%
%ADD133R,0.0116X0.0001*%
%ADD134R,0.0289X0.0001*%
%ADD135R,0.0117X0.0001*%
%ADD136R,0.0118X0.0001*%
%ADD137R,0.0156X0.0001*%
%ADD138R,0.0124X0.0001*%
%ADD139R,0.0104X0.0001*%
%ADD140R,0.0184X0.0001*%
%ADD141R,0.0154X0.0001*%
%ADD142R,0.0126X0.0001*%
%ADD143R,0.0132X0.0001*%
%ADD144R,0.0125X0.0001*%
%ADD145R,0.0182X0.0001*%
%ADD146R,0.0128X0.0001*%
%ADD147R,0.0129X0.0001*%
%ADD148R,0.0152X0.0001*%
%ADD149R,0.0181X0.0001*%
%ADD150R,0.0151X0.0001*%
%ADD151R,0.0122X0.0001*%
%ADD152R,0.0120X0.0001*%
%ADD153R,0.0115X0.0001*%
%ADD154R,0.0155X0.0001*%
%ADD155R,0.0131X0.0001*%
%ADD156R,0.0130X0.0001*%
%ADD157R,0.0183X0.0001*%
%ADD158R,0.0291X0.0001*%
%ADD159R,0.0313X0.0001*%
%ADD160R,0.0292X0.0001*%
%ADD161R,0.0321X0.0001*%
%ADD162R,0.0296X0.0001*%
%ADD163R,0.0317X0.0001*%
%ADD164R,0.0315X0.0001*%
%ADD165R,0.0314X0.0001*%
%ADD166R,0.0322X0.0001*%
%ADD167R,0.0320X0.0001*%
%ADD168R,0.0324X0.0001*%
%ADD169R,0.0325X0.0001*%
%ADD170R,0.0200X0.0001*%
%ADD171R,0.0198X0.0001*%
%ADD172R,0.0150X0.0001*%
%ADD173R,0.0167X0.0001*%
%ADD174R,0.0119X0.0001*%
%ADD175R,0.0138X0.0001*%
%ADD176R,0.0137X0.0001*%
%ADD177R,0.0110X0.0001*%
%ADD178R,0.0111X0.0001*%
%ADD179R,0.0102X0.0001*%
%ADD180R,0.0113X0.0001*%
%ADD181R,0.0112X0.0001*%
%ADD182R,0.0207X0.0001*%
%ADD183R,0.0091X0.0001*%
%ADD184R,0.0100X0.0001*%
%ADD185R,0.0206X0.0001*%
%ADD186R,0.0020X0.0001*%
%ADD187R,0.0197X0.0001*%
%ADD188R,0.0196X0.0001*%
%ADD189R,0.0188X0.0001*%
%ADD190R,0.0164X0.0001*%
%ADD191R,0.0163X0.0001*%
%ADD192R,0.0162X0.0001*%
%ADD193R,0.0065X0.0001*%
%ADD194R,0.0067X0.0001*%
%ADD195R,0.0187X0.0001*%
%ADD196R,0.0185X0.0001*%
%ADD197R,0.0195X0.0001*%
%ADD198R,0.0024X0.0001*%
%ADD199R,0.0133X0.0001*%
%ADD200R,0.0142X0.0001*%
%ADD201R,0.0144X0.0001*%
%ADD202R,0.0159X0.0001*%
%ADD203R,0.0139X0.0001*%
%ADD204R,0.0299X0.0001*%
%ADD205R,0.0261X0.0001*%
%ADD206R,0.0260X0.0001*%
%ADD207R,0.0300X0.0001*%
%ADD208R,0.0301X0.0001*%
%ADD209R,0.0064X0.0001*%
%ADD210R,0.0237X0.0001*%
%ADD211R,0.0236X0.0001*%
%ADD212R,0.0045X0.0001*%
%ADD213R,0.0259X0.0001*%
%ADD214R,0.0312X0.0001*%
%ADD215R,0.0249X0.0001*%
%ADD216R,0.0302X0.0001*%
%ADD217R,0.0276X0.0001*%
%ADD218R,0.0229X0.0001*%
%ADD219R,0.0272X0.0001*%
%ADD220R,0.0227X0.0001*%
%ADD221R,0.0226X0.0001*%
%ADD222R,0.0268X0.0001*%
%ADD223R,0.0224X0.0001*%
%ADD224R,0.0267X0.0001*%
%ADD225R,0.0223X0.0001*%
%ADD226R,0.0266X0.0001*%
%ADD227R,0.0222X0.0001*%
%ADD228R,0.0219X0.0001*%
%ADD229R,0.0217X0.0001*%
%ADD230R,0.0216X0.0001*%
%ADD231R,0.0215X0.0001*%
%ADD232R,0.0214X0.0001*%
%ADD233R,0.0213X0.0001*%
%ADD234R,0.0243X0.0001*%
%ADD235R,0.0209X0.0001*%
%ADD236R,0.0241X0.0001*%
%ADD237R,0.0240X0.0001*%
%ADD238R,0.0208X0.0001*%
%ADD239R,0.0273X0.0001*%
%ADD240R,0.0221X0.0001*%
%ADD241R,0.0254X0.0001*%
%ADD242R,0.0255X0.0001*%
%ADD243R,0.0211X0.0001*%
%ADD244R,0.0169X0.0001*%
%ADD245R,0.0149X0.0001*%
%ADD246R,0.0165X0.0001*%
%ADD247C,0.0050*%
D10*
X002252Y002403D02*
X008072Y002403D01*
X008072Y008223D01*
X002252Y008223D01*
X002252Y002403D01*
D11*
X003834Y007053D03*
X003834Y007060D03*
X003834Y007061D03*
X003834Y007062D03*
X003834Y007063D03*
X003834Y007064D03*
X003834Y007066D03*
X003834Y007067D03*
X003834Y007068D03*
X003834Y007069D03*
X003924Y007035D03*
X004278Y007045D03*
X004552Y007064D03*
X004561Y007074D03*
X004758Y007143D03*
X004957Y007054D03*
X005015Y007370D03*
X005022Y007376D03*
X005039Y007513D03*
X005049Y007532D03*
X005152Y007577D03*
X005147Y007668D03*
X005138Y007712D03*
X005082Y007653D03*
X005009Y007689D03*
X004915Y007693D03*
X004900Y007699D03*
X004740Y007558D03*
X004740Y007554D03*
X005222Y007369D03*
X005298Y007280D03*
X005323Y007630D03*
X005323Y007631D03*
X005328Y007644D03*
X005705Y007181D03*
X005705Y007180D03*
X005705Y007179D03*
X005705Y007178D03*
X005705Y007177D03*
X005705Y007175D03*
X005705Y007174D03*
X005705Y007172D03*
X005705Y007171D03*
X005705Y007169D03*
X005705Y007168D03*
X005705Y007167D03*
X005713Y007114D03*
X005743Y007094D03*
X005945Y007135D03*
X005828Y007533D03*
X005939Y007592D03*
X004208Y007448D03*
D12*
X004284Y007506D03*
X004366Y007506D03*
X004483Y007271D03*
X004494Y007143D03*
X004357Y007035D03*
X004277Y007043D03*
X004039Y007251D03*
X003953Y007280D03*
X003834Y007051D03*
X004690Y007074D03*
X004857Y007369D03*
X004744Y007529D03*
X004744Y007530D03*
X004788Y007566D03*
X004848Y007596D03*
X004960Y007636D03*
X004960Y007637D03*
X004954Y007683D03*
X005009Y007690D03*
X005010Y007680D03*
X005049Y007708D03*
X005147Y007669D03*
X005147Y007661D03*
X005182Y007694D03*
X005121Y007597D03*
X005133Y007487D03*
X005128Y007464D03*
X005279Y007321D03*
X005290Y007309D03*
X005379Y007330D03*
X005389Y007340D03*
X005311Y007438D03*
X005527Y007377D03*
X005577Y007374D03*
X005575Y007504D03*
X005822Y007527D03*
X005823Y007529D03*
X005825Y007530D03*
X005828Y007534D03*
X005871Y007469D03*
X005812Y007389D03*
X005969Y007291D03*
X005945Y007138D03*
X005945Y007136D03*
X005812Y007190D03*
X005711Y007192D03*
X005704Y007184D03*
X005704Y007166D03*
X005704Y007165D03*
X005704Y007164D03*
X005704Y007162D03*
X005704Y007161D03*
X005704Y007160D03*
X005704Y007159D03*
X005704Y007158D03*
X005704Y007156D03*
X005665Y007035D03*
X005567Y007173D03*
X005938Y007590D03*
X005938Y007597D03*
X005940Y007625D03*
X005314Y007670D03*
X005290Y007742D03*
X005024Y007517D03*
X004957Y007055D03*
D13*
X005014Y007036D03*
X005104Y007036D03*
X004896Y007035D03*
X005112Y007252D03*
X005132Y007377D03*
X005093Y007429D03*
X005102Y007438D03*
X005125Y007459D03*
X005131Y007467D03*
X005133Y007480D03*
X005037Y007517D03*
X005022Y007440D03*
X005034Y007428D03*
X005054Y007606D03*
X005063Y007614D03*
X005081Y007640D03*
X005076Y007643D03*
X005033Y007640D03*
X005009Y007677D03*
X005007Y007694D03*
X005024Y007713D03*
X005013Y007725D03*
X005054Y007733D03*
X005139Y007708D03*
X005141Y007703D03*
X005145Y007673D03*
X005211Y007675D03*
X005261Y007723D03*
X005280Y007624D03*
X005321Y007635D03*
X005319Y007419D03*
X005250Y007350D03*
X005289Y007308D03*
X005202Y007254D03*
X005340Y007134D03*
X005301Y007036D03*
X005713Y007115D03*
X005783Y007200D03*
X005811Y007188D03*
X005890Y007232D03*
X005921Y007201D03*
X005940Y007154D03*
X005948Y007141D03*
X005830Y007309D03*
X005842Y007401D03*
X005930Y007537D03*
X005920Y007615D03*
X005576Y007503D03*
X005576Y007500D03*
X004958Y007642D03*
X004948Y007653D03*
X004917Y007636D03*
X004936Y007733D03*
X004906Y007773D03*
X004828Y007377D03*
X004739Y007368D03*
X004423Y007377D03*
X004285Y007505D03*
X004168Y007447D03*
X004178Y007353D03*
X004237Y007324D03*
X004237Y007323D03*
X004237Y007322D03*
X004237Y007321D03*
X004237Y007319D03*
X004237Y007318D03*
X004237Y007317D03*
X004237Y007316D03*
X004237Y007315D03*
X004081Y007344D03*
X003922Y007536D03*
X003852Y007519D03*
X003842Y007517D03*
X003842Y007536D03*
X004059Y007132D03*
X004098Y007064D03*
X004100Y007054D03*
X004010Y007036D03*
X004228Y007043D03*
X004237Y007043D03*
X004238Y007037D03*
X004493Y007036D03*
D14*
X004581Y007094D03*
X004610Y007143D03*
X004641Y007143D03*
X004590Y007301D03*
X004523Y007231D03*
X004512Y007368D03*
X004700Y007341D03*
X004745Y007533D03*
X004746Y007534D03*
X004789Y007664D03*
X004828Y007694D03*
X004901Y007707D03*
X004915Y007656D03*
X004949Y007651D03*
X004951Y007650D03*
X004951Y007649D03*
X004959Y007641D03*
X004959Y007640D03*
X004938Y007624D03*
X004897Y007608D03*
X005010Y007679D03*
X005009Y007691D03*
X005007Y007693D03*
X004998Y007696D03*
X005081Y007641D03*
X005085Y007623D03*
X005146Y007658D03*
X005146Y007671D03*
X005133Y007686D03*
X005138Y007709D03*
X005311Y007654D03*
X005322Y007634D03*
X005329Y007546D03*
X005338Y007498D03*
X005338Y007497D03*
X005338Y007495D03*
X005338Y007494D03*
X005338Y007493D03*
X005338Y007492D03*
X005338Y007491D03*
X005338Y007490D03*
X005338Y007488D03*
X005338Y007487D03*
X005338Y007486D03*
X005291Y007468D03*
X005193Y007377D03*
X005125Y007460D03*
X005127Y007461D03*
X005114Y007458D03*
X005133Y007475D03*
X005133Y007477D03*
X005133Y007478D03*
X005133Y007479D03*
X005052Y007420D03*
X005020Y007441D03*
X005020Y007442D03*
X005019Y007443D03*
X005018Y007445D03*
X005075Y007374D03*
X005075Y007373D03*
X005133Y007271D03*
X005340Y007271D03*
X005330Y007164D03*
X005350Y007116D03*
X005210Y007036D03*
X004966Y007035D03*
X004957Y007053D03*
X004957Y007057D03*
X004868Y007164D03*
X004729Y007045D03*
X004719Y007054D03*
X004276Y007036D03*
X004029Y007173D03*
X004029Y007234D03*
X004098Y007349D03*
X004198Y007351D03*
X004217Y007360D03*
X003992Y007064D03*
X004838Y007833D03*
X005467Y007377D03*
X005557Y007251D03*
X005704Y007191D03*
X005704Y007147D03*
X005704Y007146D03*
X005704Y007145D03*
X005704Y007143D03*
X005704Y007142D03*
X005558Y007045D03*
X005832Y007270D03*
X005841Y007262D03*
X005931Y007309D03*
X005978Y007192D03*
X005940Y007162D03*
X005940Y007161D03*
X005946Y007140D03*
X005981Y007408D03*
X005851Y007467D03*
X005829Y007536D03*
X005900Y007605D03*
X005665Y007505D03*
D15*
X005831Y007458D03*
X005871Y007468D03*
X005939Y007591D03*
X005939Y007598D03*
X005960Y007299D03*
X005978Y007282D03*
X005968Y007172D03*
X005946Y007139D03*
X005821Y007173D03*
X005761Y007086D03*
X005705Y007148D03*
X005705Y007149D03*
X005705Y007151D03*
X005705Y007152D03*
X005705Y007153D03*
X005705Y007154D03*
X005705Y007155D03*
X005585Y007036D03*
X005446Y007036D03*
X005408Y007055D03*
X005369Y007093D03*
X005330Y007171D03*
X005330Y007172D03*
X005330Y007173D03*
X005330Y007174D03*
X005437Y007251D03*
X005457Y007270D03*
X005537Y007270D03*
X005322Y007632D03*
X005211Y007546D03*
X005132Y007586D03*
X005073Y007547D03*
X005054Y007517D03*
X005016Y007447D03*
X005017Y007446D03*
X005065Y007420D03*
X005075Y007375D03*
X005075Y007371D03*
X005075Y007370D03*
X005022Y007370D03*
X005022Y007371D03*
X005022Y007373D03*
X005022Y007374D03*
X005022Y007375D03*
X005127Y007462D03*
X005128Y007465D03*
X005130Y007466D03*
X005080Y007642D03*
X005084Y007686D03*
X005053Y007683D03*
X005006Y007695D03*
X004959Y007638D03*
X004807Y007577D03*
X004760Y007625D03*
X004745Y007532D03*
X004745Y007531D03*
X004768Y007370D03*
X004710Y007350D03*
X004661Y007301D03*
X004551Y007341D03*
X004484Y007377D03*
X004374Y007379D03*
X004374Y007380D03*
X004374Y007381D03*
X004374Y007382D03*
X004374Y007383D03*
X004374Y007384D03*
X004374Y007386D03*
X004374Y007387D03*
X004374Y007388D03*
X004374Y007389D03*
X004374Y007390D03*
X004374Y007391D03*
X004374Y007393D03*
X004374Y007394D03*
X004374Y007395D03*
X004374Y007396D03*
X004374Y007397D03*
X004374Y007399D03*
X004374Y007400D03*
X004374Y007401D03*
X004374Y007402D03*
X004374Y007403D03*
X004374Y007404D03*
X004374Y007406D03*
X004374Y007407D03*
X004374Y007408D03*
X004374Y007409D03*
X004374Y007410D03*
X004374Y007412D03*
X004374Y007413D03*
X004374Y007414D03*
X004374Y007415D03*
X004374Y007416D03*
X004374Y007417D03*
X004374Y007419D03*
X004374Y007420D03*
X004374Y007421D03*
X004374Y007422D03*
X004374Y007423D03*
X004374Y007425D03*
X004374Y007426D03*
X004374Y007427D03*
X004374Y007428D03*
X004374Y007429D03*
X004374Y007430D03*
X004374Y007432D03*
X004374Y007433D03*
X004374Y007434D03*
X004374Y007435D03*
X004374Y007436D03*
X004374Y007438D03*
X004374Y007439D03*
X004374Y007440D03*
X004374Y007441D03*
X004374Y007442D03*
X004374Y007443D03*
X004374Y007445D03*
X004374Y007446D03*
X004374Y007447D03*
X004374Y007448D03*
X004374Y007449D03*
X004374Y007451D03*
X004374Y007452D03*
X004374Y007453D03*
X004374Y007454D03*
X004374Y007455D03*
X004374Y007456D03*
X004374Y007458D03*
X004374Y007459D03*
X004374Y007460D03*
X004374Y007461D03*
X004374Y007462D03*
X004374Y007464D03*
X004374Y007465D03*
X004374Y007466D03*
X004374Y007467D03*
X004374Y007468D03*
X004374Y007469D03*
X004374Y007471D03*
X004374Y007472D03*
X004374Y007473D03*
X004374Y007474D03*
X004374Y007475D03*
X004374Y007477D03*
X004374Y007478D03*
X004374Y007479D03*
X004374Y007480D03*
X004374Y007481D03*
X004374Y007482D03*
X004374Y007484D03*
X004374Y007485D03*
X004374Y007486D03*
X004374Y007487D03*
X004226Y007369D03*
X004374Y007210D03*
X004374Y007208D03*
X004374Y007207D03*
X004374Y007206D03*
X004374Y007205D03*
X004374Y007204D03*
X004374Y007203D03*
X004383Y007164D03*
X004524Y007182D03*
X004532Y007054D03*
X004522Y007045D03*
X004403Y007036D03*
X004227Y007040D03*
X004147Y007036D03*
X003982Y007083D03*
X003834Y007044D03*
X003834Y007043D03*
X003833Y007036D03*
X003852Y007512D03*
X003834Y007520D03*
X004670Y007094D03*
X004700Y007064D03*
X004748Y007153D03*
X004728Y007182D03*
X004848Y007036D03*
X004957Y007056D03*
X005182Y007271D03*
X005146Y007660D03*
X005146Y007670D03*
X005163Y007703D03*
X005138Y007710D03*
X004817Y007733D03*
D16*
X004808Y007725D03*
X004897Y007609D03*
X004926Y007636D03*
X004952Y007648D03*
X004953Y007647D03*
X004957Y007643D03*
X004958Y007694D03*
X005033Y007713D03*
X005024Y007637D03*
X005082Y007637D03*
X005082Y007636D03*
X005082Y007638D03*
X005084Y007624D03*
X005142Y007654D03*
X005144Y007657D03*
X005144Y007674D03*
X005143Y007675D03*
X005141Y007706D03*
X005140Y007707D03*
X005064Y007554D03*
X005133Y007486D03*
X005133Y007485D03*
X005133Y007484D03*
X005133Y007482D03*
X005133Y007481D03*
X005133Y007474D03*
X005133Y007473D03*
X005133Y007472D03*
X005131Y007468D03*
X005064Y007421D03*
X005053Y007421D03*
X005023Y007439D03*
X004747Y007536D03*
X004857Y007832D03*
X005316Y007671D03*
X005575Y007499D03*
X005575Y007498D03*
X005585Y007499D03*
X005656Y007499D03*
X005664Y007499D03*
X005664Y007498D03*
X005664Y007504D03*
X005584Y007371D03*
X005584Y007370D03*
X005584Y007369D03*
X005584Y007368D03*
X005555Y007260D03*
X005398Y007064D03*
X005447Y007037D03*
X005349Y007130D03*
X005349Y007132D03*
X005330Y007165D03*
X005359Y007309D03*
X005664Y007036D03*
X005762Y007087D03*
X005900Y007223D03*
X005949Y007142D03*
X005812Y007390D03*
X005821Y007423D03*
X005831Y007537D03*
X005940Y007624D03*
X004957Y007058D03*
X004896Y007051D03*
X004848Y007037D03*
X004758Y007036D03*
X004690Y007075D03*
X004404Y007043D03*
X004404Y007037D03*
X004355Y007036D03*
X004348Y007055D03*
X004348Y007056D03*
X004237Y007042D03*
X004237Y007040D03*
X004237Y007038D03*
X004228Y007042D03*
X004147Y007037D03*
X004109Y007053D03*
X004099Y007055D03*
X003972Y007095D03*
X003923Y007036D03*
X004147Y007340D03*
X004178Y007358D03*
X004366Y007505D03*
X003843Y007513D03*
X003843Y007514D03*
X003843Y007516D03*
X003843Y007518D03*
D17*
X004158Y007328D03*
X004188Y007354D03*
X004188Y007357D03*
X004432Y007036D03*
X004553Y007077D03*
X004698Y007079D03*
X004750Y007552D03*
X004750Y007553D03*
X004825Y007681D03*
X004878Y007772D03*
X004847Y007807D03*
X004926Y007723D03*
X004962Y007696D03*
X005046Y007695D03*
X005035Y007653D03*
X005023Y007634D03*
X005053Y007617D03*
X005092Y007675D03*
X005173Y007687D03*
X005204Y007670D03*
X005234Y007651D03*
X005280Y007726D03*
X005219Y007550D03*
X005306Y007494D03*
X005319Y007440D03*
X005095Y007443D03*
X005792Y007199D03*
X005791Y007193D03*
X005889Y007246D03*
X005950Y007167D03*
X005950Y007166D03*
X005950Y007165D03*
X005950Y007159D03*
X005950Y007158D03*
X005967Y007417D03*
X005929Y007606D03*
D18*
X005924Y007605D03*
X005917Y007588D03*
X005895Y007591D03*
X005855Y007547D03*
X005825Y007443D03*
X005825Y007408D03*
X005502Y007051D03*
X005511Y007036D03*
X005028Y007539D03*
X004919Y007628D03*
X004871Y007614D03*
X004840Y007690D03*
X004822Y007745D03*
X005089Y007714D03*
X005108Y007691D03*
X004822Y007037D03*
X004468Y007036D03*
X004459Y007051D03*
X004424Y007130D03*
X004221Y007327D03*
X004214Y007324D03*
X004214Y007323D03*
X004192Y007360D03*
X004162Y007322D03*
D19*
X004161Y007327D03*
X004784Y007036D03*
X005048Y007369D03*
X005027Y007534D03*
X005027Y007536D03*
X005027Y007537D03*
X004918Y007629D03*
X004916Y007632D03*
X004975Y007707D03*
X004840Y007693D03*
X004840Y007691D03*
X004845Y007756D03*
X004845Y007758D03*
X004845Y007759D03*
X004845Y007760D03*
X004845Y007761D03*
X004845Y007762D03*
X005135Y007595D03*
X005138Y007593D03*
X005272Y007721D03*
X005825Y007446D03*
X005894Y007593D03*
X005917Y007586D03*
X005917Y007585D03*
X005917Y007584D03*
X005917Y007583D03*
D20*
X005929Y007608D03*
X005929Y007609D03*
X005930Y007612D03*
X005930Y007614D03*
X005969Y007412D03*
X005971Y007276D03*
X005950Y007156D03*
X005792Y007194D03*
X005792Y007195D03*
X005792Y007197D03*
X005792Y007198D03*
X005397Y007335D03*
X005319Y007441D03*
X005319Y007442D03*
X005305Y007495D03*
X005305Y007497D03*
X005305Y007498D03*
X005220Y007551D03*
X005233Y007650D03*
X005181Y007660D03*
X005173Y007688D03*
X005173Y007689D03*
X005172Y007693D03*
X005092Y007676D03*
X005045Y007696D03*
X005032Y007715D03*
X005034Y007651D03*
X005034Y007650D03*
X005034Y007649D03*
X005034Y007648D03*
X005034Y007647D03*
X005034Y007645D03*
X005034Y007644D03*
X005034Y007643D03*
X005034Y007642D03*
X005034Y007641D03*
X005055Y007616D03*
X004957Y007695D03*
X004964Y007703D03*
X004876Y007706D03*
X004825Y007680D03*
X004797Y007660D03*
X004842Y007773D03*
X004842Y007774D03*
X004750Y007551D03*
X004750Y007550D03*
X004750Y007549D03*
X004707Y007335D03*
X004553Y007079D03*
X004458Y007055D03*
X004458Y007054D03*
X004217Y007321D03*
X004192Y007427D03*
X004192Y007428D03*
X004192Y007429D03*
X004821Y007036D03*
X005094Y007439D03*
X005095Y007440D03*
X005095Y007441D03*
X005095Y007442D03*
D21*
X005073Y007276D03*
X005073Y007273D03*
X004931Y007049D03*
X004931Y007048D03*
X004931Y007047D03*
X004931Y007045D03*
X004931Y007044D03*
X004931Y007043D03*
X004931Y007042D03*
X004931Y007036D03*
X004577Y007226D03*
X004320Y007051D03*
X004320Y007050D03*
X004320Y007049D03*
X004320Y007044D03*
X004320Y007043D03*
X004034Y007344D03*
X005212Y007624D03*
X005213Y007622D03*
X005629Y007060D03*
X005629Y007051D03*
X005629Y007050D03*
X005629Y007049D03*
X005629Y007048D03*
X005629Y007047D03*
X005629Y007045D03*
X005629Y007044D03*
X005629Y007043D03*
X005797Y007088D03*
X005797Y007089D03*
X005797Y007090D03*
X005945Y007213D03*
X005945Y007220D03*
X005945Y007221D03*
X005846Y007413D03*
X005914Y007468D03*
X005914Y007469D03*
D22*
X005856Y007458D03*
X005844Y007434D03*
X005836Y007429D03*
X005836Y007428D03*
X005929Y007610D03*
X005929Y007611D03*
X005790Y007192D03*
X005502Y007057D03*
X005502Y007056D03*
X005502Y007055D03*
X005502Y007054D03*
X005474Y007036D03*
X005304Y007499D03*
X005320Y007655D03*
X005172Y007690D03*
X005172Y007691D03*
X005108Y007694D03*
X005093Y007683D03*
X005093Y007679D03*
X005093Y007677D03*
X005045Y007697D03*
X005045Y007699D03*
X005045Y007700D03*
X005045Y007701D03*
X005045Y007702D03*
X004964Y007702D03*
X004963Y007697D03*
X004843Y007771D03*
X004843Y007772D03*
X004843Y007775D03*
X004843Y007777D03*
X004847Y007831D03*
X004838Y007603D03*
X004793Y007057D03*
X004793Y007056D03*
X004793Y007055D03*
X004793Y007054D03*
X004459Y007056D03*
X004321Y007056D03*
X004321Y007055D03*
X004321Y007054D03*
X004321Y007057D03*
X004188Y007355D03*
X004188Y007356D03*
D23*
X004331Y007239D03*
X004331Y007238D03*
X004331Y007237D03*
X004331Y007236D03*
X004331Y007234D03*
X004331Y007233D03*
X004329Y007225D03*
X004329Y007224D03*
X004329Y007223D03*
X004329Y007221D03*
X004329Y007220D03*
X004329Y007219D03*
X004329Y007191D03*
X004329Y007190D03*
X004329Y007188D03*
X004329Y007187D03*
X004329Y007186D03*
X004449Y007038D03*
X004546Y007148D03*
X004567Y007180D03*
X004567Y007181D03*
X004685Y007177D03*
X004685Y007175D03*
X004685Y007174D03*
X004685Y007173D03*
X004685Y007172D03*
X004685Y007171D03*
X004685Y007169D03*
X004685Y007168D03*
X004685Y007167D03*
X004685Y007166D03*
X004685Y007165D03*
X004685Y007237D03*
X004685Y007238D03*
X004685Y007239D03*
X004685Y007240D03*
X004685Y007241D03*
X004685Y007243D03*
X004685Y007244D03*
X004685Y007245D03*
X004802Y007043D03*
X004921Y007227D03*
X004921Y007229D03*
X004921Y007230D03*
X004921Y007231D03*
X004921Y007232D03*
X004921Y007233D03*
X004921Y007234D03*
X005058Y007047D03*
X005058Y007042D03*
X005257Y007043D03*
X005257Y007044D03*
X005257Y007045D03*
X005257Y007047D03*
X005257Y007048D03*
X005257Y007049D03*
X005257Y007050D03*
X005257Y007051D03*
X005373Y007193D03*
X005373Y007194D03*
X005373Y007195D03*
X005373Y007207D03*
X005373Y007208D03*
X005373Y007210D03*
X005373Y007211D03*
X005373Y007212D03*
X005373Y007213D03*
X005373Y007214D03*
X005373Y007216D03*
X005375Y007239D03*
X005375Y007240D03*
X005383Y007241D03*
X005255Y007241D03*
X005255Y007240D03*
X005255Y007239D03*
X005255Y007238D03*
X005255Y007237D03*
X005255Y007243D03*
X005255Y007244D03*
X005255Y007245D03*
X005255Y007246D03*
X005255Y007247D03*
X005255Y007249D03*
X005255Y007250D03*
X005255Y007251D03*
X005255Y007252D03*
X005255Y007253D03*
X005255Y007254D03*
X005495Y007044D03*
X005492Y007038D03*
X005619Y007173D03*
X005619Y007174D03*
X005619Y007175D03*
X005619Y007177D03*
X005619Y007178D03*
X005619Y007179D03*
X005619Y007180D03*
X005619Y007181D03*
X005619Y007182D03*
X005619Y007184D03*
X005619Y007185D03*
X005619Y007186D03*
X005619Y007187D03*
X005619Y007188D03*
X005619Y007190D03*
X005619Y007191D03*
X005619Y007192D03*
X005619Y007193D03*
X005619Y007194D03*
X005619Y007195D03*
X005619Y007197D03*
X005619Y007198D03*
X005619Y007199D03*
X005619Y007200D03*
X005619Y007201D03*
X005619Y007203D03*
X005619Y007204D03*
X005619Y007205D03*
X005619Y007206D03*
X005619Y007207D03*
X005619Y007208D03*
X005619Y007210D03*
X005619Y007211D03*
X005619Y007212D03*
X005619Y007213D03*
X005619Y007214D03*
X005619Y007216D03*
X005619Y007217D03*
X005619Y007218D03*
X005619Y007219D03*
X005619Y007220D03*
X005619Y007221D03*
X005619Y007223D03*
X005619Y007224D03*
X005619Y007225D03*
X005619Y007226D03*
X005619Y007227D03*
X005619Y007229D03*
X005619Y007230D03*
X005619Y007231D03*
X005619Y007232D03*
X005619Y007233D03*
X005619Y007234D03*
X005619Y007236D03*
X005619Y007237D03*
X005619Y007238D03*
X005619Y007239D03*
X005756Y007167D03*
X005900Y007280D03*
X005885Y007554D03*
X004863Y007660D03*
X004830Y007629D03*
X004829Y007628D03*
X004828Y007627D03*
X004329Y007497D03*
X004329Y007495D03*
X004329Y007492D03*
X004329Y007491D03*
X003996Y007143D03*
X003881Y007047D03*
X003879Y007041D03*
X003878Y007038D03*
X003878Y007037D03*
X004192Y007045D03*
X004192Y007047D03*
X004192Y007048D03*
X004192Y007049D03*
X004192Y007050D03*
X003878Y007523D03*
X003878Y007524D03*
X003878Y007525D03*
D24*
X003986Y007328D03*
X004085Y007331D03*
X004085Y007332D03*
X004086Y007334D03*
X004086Y007335D03*
X004086Y007336D03*
X004086Y007342D03*
X004086Y007343D03*
X004096Y007351D03*
X004096Y007353D03*
X004152Y007381D03*
X004152Y007382D03*
X004152Y007383D03*
X004152Y007384D03*
X004152Y007386D03*
X004152Y007387D03*
X004152Y007390D03*
X004152Y007391D03*
X004153Y007415D03*
X004153Y007421D03*
X004153Y007422D03*
X004233Y007416D03*
X004233Y007415D03*
X004233Y007414D03*
X004233Y007413D03*
X004233Y007412D03*
X004233Y007397D03*
X004233Y007396D03*
X004234Y007393D03*
X004231Y007314D03*
X004231Y007306D03*
X004231Y007305D03*
X004152Y007306D03*
X004152Y007312D03*
X004007Y007216D03*
X004007Y007214D03*
X004007Y007213D03*
X004007Y007212D03*
X004007Y007211D03*
X004006Y007208D03*
X004006Y007207D03*
X004016Y007186D03*
X004016Y007185D03*
X004016Y007178D03*
X004085Y007082D03*
X004085Y007081D03*
X004086Y007080D03*
X004086Y007079D03*
X004086Y007077D03*
X004086Y007071D03*
X004152Y007058D03*
X004152Y007057D03*
X004231Y007053D03*
X004231Y007068D03*
X004290Y007058D03*
X004368Y007217D03*
X004527Y007175D03*
X004527Y007168D03*
X004607Y007161D03*
X004607Y007160D03*
X004607Y007159D03*
X004607Y007158D03*
X004606Y007151D03*
X004606Y007149D03*
X004606Y007148D03*
X004607Y007175D03*
X004646Y007156D03*
X004664Y007114D03*
X004704Y007073D03*
X004725Y007178D03*
X004725Y007180D03*
X004724Y007227D03*
X004724Y007229D03*
X004725Y007234D03*
X004745Y007262D03*
X004665Y007299D03*
X004664Y007298D03*
X004645Y007254D03*
X004645Y007253D03*
X004645Y007252D03*
X004645Y007251D03*
X004645Y007250D03*
X004645Y007249D03*
X004645Y007247D03*
X004597Y007279D03*
X004587Y007299D03*
X004577Y007310D03*
X004567Y007321D03*
X004765Y007557D03*
X004752Y007583D03*
X004752Y007584D03*
X004752Y007585D03*
X004752Y007586D03*
X004752Y007588D03*
X004752Y007589D03*
X004752Y007601D03*
X004752Y007602D03*
X004763Y007623D03*
X004763Y007624D03*
X004802Y007666D03*
X004850Y007695D03*
X004812Y007734D03*
X004812Y007752D03*
X004812Y007753D03*
X004812Y007769D03*
X004812Y007771D03*
X004812Y007772D03*
X004812Y007773D03*
X004812Y007774D03*
X004814Y007787D03*
X004831Y007823D03*
X004841Y007832D03*
X004848Y007814D03*
X004872Y007813D03*
X004893Y007792D03*
X005062Y007713D03*
X005077Y007655D03*
X005019Y007635D03*
X005070Y007538D03*
X005226Y007545D03*
X005244Y007529D03*
X005245Y007527D03*
X005254Y007519D03*
X005254Y007518D03*
X005264Y007512D03*
X005264Y007511D03*
X005264Y007510D03*
X005273Y007500D03*
X005273Y007499D03*
X005274Y007498D03*
X005303Y007460D03*
X005304Y007459D03*
X005326Y007460D03*
X005325Y007452D03*
X005325Y007451D03*
X005325Y007449D03*
X005324Y007447D03*
X005324Y007446D03*
X005333Y007484D03*
X005325Y007533D03*
X005325Y007534D03*
X005325Y007536D03*
X005325Y007537D03*
X005325Y007538D03*
X005325Y007539D03*
X005325Y007540D03*
X005316Y007552D03*
X005316Y007553D03*
X005316Y007565D03*
X005305Y007584D03*
X005296Y007596D03*
X005277Y007617D03*
X005266Y007627D03*
X005274Y007694D03*
X005311Y007681D03*
X005334Y007687D03*
X005334Y007688D03*
X005334Y007671D03*
X005334Y007725D03*
X005334Y007726D03*
X005580Y007488D03*
X005659Y007488D03*
X005659Y007503D03*
X005659Y007427D03*
X005659Y007426D03*
X005659Y007425D03*
X005580Y007382D03*
X005549Y007263D03*
X005414Y007219D03*
X005414Y007218D03*
X005414Y007205D03*
X005414Y007204D03*
X005414Y007203D03*
X005414Y007201D03*
X005414Y007200D03*
X005414Y007199D03*
X005424Y007167D03*
X005424Y007166D03*
X005424Y007159D03*
X005363Y007106D03*
X005363Y007104D03*
X005371Y007096D03*
X005372Y007095D03*
X005382Y007086D03*
X005344Y007135D03*
X005344Y007136D03*
X005334Y007185D03*
X005334Y007186D03*
X005296Y007205D03*
X005296Y007218D03*
X005296Y007219D03*
X005297Y007231D03*
X005297Y007232D03*
X005297Y007233D03*
X005296Y007234D03*
X005296Y007258D03*
X005296Y007259D03*
X005296Y007260D03*
X005296Y007262D03*
X005294Y007275D03*
X005285Y007297D03*
X005285Y007303D03*
X005285Y007304D03*
X005277Y007317D03*
X005277Y007318D03*
X005266Y007330D03*
X005353Y007289D03*
X005343Y007264D03*
X005343Y007263D03*
X005343Y007259D03*
X005343Y007258D03*
X005334Y007236D03*
X005334Y007234D03*
X005216Y007236D03*
X005216Y007227D03*
X005098Y007229D03*
X005098Y007230D03*
X005098Y007231D03*
X005098Y007244D03*
X005098Y007245D03*
X005019Y007369D03*
X004881Y007224D03*
X004881Y007187D03*
X004881Y007180D03*
X004881Y007179D03*
X005019Y007053D03*
X005018Y007037D03*
X005098Y007053D03*
X005098Y007056D03*
X005098Y007057D03*
X005098Y007058D03*
X005216Y007058D03*
X005216Y007057D03*
X005216Y007053D03*
X005215Y007037D03*
X005296Y007053D03*
X005659Y007053D03*
X005659Y007057D03*
X005659Y007058D03*
X005717Y007121D03*
X005717Y007122D03*
X005717Y007123D03*
X005717Y007125D03*
X005717Y007126D03*
X005717Y007127D03*
X005808Y007182D03*
X005808Y007184D03*
X005807Y007185D03*
X005818Y007172D03*
X005819Y007171D03*
X005827Y007149D03*
X005827Y007141D03*
X005827Y007140D03*
X005827Y007139D03*
X005796Y007200D03*
X005835Y007279D03*
X005835Y007280D03*
X005835Y007282D03*
X005835Y007283D03*
X005835Y007291D03*
X005893Y007239D03*
X005944Y007171D03*
X005944Y007169D03*
X005953Y007153D03*
X005965Y007173D03*
X005966Y007175D03*
X005966Y007177D03*
X005984Y007229D03*
X005984Y007234D03*
X005984Y007236D03*
X005986Y007266D03*
X005985Y007270D03*
X005984Y007271D03*
X005965Y007427D03*
X005946Y007459D03*
X005926Y007564D03*
X005926Y007565D03*
X005926Y007566D03*
X005926Y007567D03*
X005926Y007569D03*
X005926Y007570D03*
X005936Y007615D03*
X005855Y007565D03*
X005815Y007434D03*
X005815Y007416D03*
X004577Y007101D03*
X004289Y007484D03*
X004289Y007485D03*
X004289Y007488D03*
X004005Y007055D03*
X004014Y007037D03*
X003846Y007053D03*
D25*
X004028Y007070D03*
X004072Y007037D03*
X004032Y007305D03*
X004039Y007354D03*
X003881Y007260D03*
X004681Y007221D03*
X004681Y007220D03*
X004681Y007219D03*
X004681Y007190D03*
X004701Y007156D03*
X004687Y007265D03*
X004927Y007351D03*
X004927Y007361D03*
X004927Y007079D03*
X004927Y007071D03*
X005240Y007257D03*
X005401Y007257D03*
X005626Y007038D03*
X005750Y007179D03*
X005750Y007184D03*
X005950Y007237D03*
X005911Y007472D03*
X005281Y007551D03*
X004869Y007670D03*
X004869Y007676D03*
D26*
X004801Y007369D03*
X004926Y007362D03*
X005052Y007366D03*
X005053Y007362D03*
X005255Y007565D03*
X005255Y007566D03*
X005215Y007618D03*
X005399Y007256D03*
X005624Y007500D03*
X005851Y007415D03*
X005851Y007414D03*
X005896Y007447D03*
X005896Y007448D03*
X005890Y007557D03*
X005890Y007558D03*
X005890Y007559D03*
X005890Y007560D03*
X005890Y007562D03*
X004680Y007200D03*
X004680Y007199D03*
X004680Y007198D03*
X004680Y007197D03*
X004680Y007195D03*
X004680Y007194D03*
X004680Y007193D03*
X004453Y007043D03*
X004316Y007038D03*
X004316Y007037D03*
X004029Y007069D03*
X003883Y007061D03*
X003882Y007145D03*
X004188Y007315D03*
X004188Y007316D03*
X004188Y007317D03*
X004188Y007318D03*
X004188Y007319D03*
X004326Y007369D03*
X004326Y007370D03*
X004326Y007371D03*
X004326Y007373D03*
X003883Y007508D03*
X003883Y007510D03*
X003883Y007511D03*
D27*
X004192Y007423D03*
X004430Y007037D03*
X004792Y007051D03*
X004827Y007130D03*
X005027Y007533D03*
X005027Y007538D03*
X005187Y007571D03*
X005108Y007693D03*
X005273Y007720D03*
X005825Y007445D03*
X005894Y007592D03*
X005917Y007582D03*
D28*
X005850Y007453D03*
X005620Y007453D03*
X005620Y007454D03*
X005620Y007455D03*
X005620Y007456D03*
X005620Y007458D03*
X005620Y007459D03*
X005620Y007460D03*
X005620Y007461D03*
X005620Y007462D03*
X005620Y007464D03*
X005620Y007465D03*
X005620Y007466D03*
X005620Y007467D03*
X005620Y007468D03*
X005620Y007469D03*
X005620Y007471D03*
X005620Y007472D03*
X005620Y007473D03*
X005620Y007474D03*
X005620Y007475D03*
X005620Y007477D03*
X005620Y007478D03*
X005620Y007479D03*
X005620Y007480D03*
X005620Y007481D03*
X005620Y007482D03*
X005620Y007484D03*
X005620Y007485D03*
X005620Y007486D03*
X005620Y007487D03*
X005620Y007452D03*
X005620Y007451D03*
X005620Y007449D03*
X005620Y007448D03*
X005620Y007447D03*
X005620Y007446D03*
X005620Y007445D03*
X005620Y007443D03*
X005620Y007442D03*
X005620Y007441D03*
X005620Y007440D03*
X005620Y007439D03*
X005620Y007438D03*
X005620Y007436D03*
X005620Y007435D03*
X005620Y007434D03*
X005620Y007433D03*
X005620Y007432D03*
X005620Y007430D03*
X005620Y007429D03*
X005620Y007428D03*
X005620Y007427D03*
X005310Y007469D03*
X005310Y007471D03*
X005310Y007472D03*
X005310Y007474D03*
X005310Y007475D03*
X005310Y007477D03*
X005310Y007478D03*
X005256Y007232D03*
X005256Y007231D03*
X005255Y007229D03*
X005059Y007230D03*
X005059Y007231D03*
X005059Y007232D03*
X005059Y007233D03*
X005059Y007234D03*
X005059Y007236D03*
X005059Y007237D03*
X005059Y007238D03*
X005059Y007239D03*
X005059Y007240D03*
X005059Y007241D03*
X005059Y007243D03*
X005059Y007360D03*
X004877Y007621D03*
X004793Y007606D03*
X004793Y007605D03*
X004793Y007604D03*
X004768Y007575D03*
X004852Y007782D03*
X004852Y007784D03*
X004852Y007785D03*
X004975Y007704D03*
X005310Y007735D03*
X005949Y007190D03*
X005949Y007188D03*
X005949Y007187D03*
X005949Y007186D03*
X005949Y007185D03*
X005550Y007056D03*
X005547Y007051D03*
X005256Y007054D03*
X005256Y007055D03*
X005255Y007056D03*
X005255Y007057D03*
X005059Y007056D03*
X005059Y007055D03*
X005059Y007054D03*
X004566Y007169D03*
X004566Y007171D03*
X004566Y007172D03*
X004566Y007173D03*
X004473Y007037D03*
X004193Y007054D03*
X004193Y007055D03*
X004192Y007056D03*
X004192Y007057D03*
X004193Y007387D03*
X004193Y007388D03*
X004193Y007389D03*
X004192Y007390D03*
X004192Y007391D03*
X004192Y007415D03*
X004192Y007416D03*
X004193Y007417D03*
X004193Y007419D03*
X004188Y007445D03*
X004188Y007446D03*
D29*
X004192Y007420D03*
X004503Y007051D03*
X004749Y007051D03*
X004778Y007037D03*
X005255Y007230D03*
X005043Y007526D03*
X004888Y007689D03*
X004866Y007700D03*
X004851Y007764D03*
X004888Y007778D03*
X004792Y007586D03*
X004789Y007582D03*
X005310Y007740D03*
X005310Y007741D03*
X005831Y007433D03*
X005831Y007409D03*
X005950Y007184D03*
D30*
X005945Y007214D03*
X005945Y007216D03*
X005945Y007217D03*
X005945Y007218D03*
X005945Y007219D03*
X005935Y007285D03*
X005213Y007621D03*
X004931Y007041D03*
X004931Y007040D03*
X004931Y007038D03*
X004931Y007037D03*
X004319Y007045D03*
X004319Y007048D03*
X004192Y007371D03*
X004192Y007373D03*
X004192Y007376D03*
D31*
X004194Y007384D03*
X004794Y007603D03*
X004876Y007612D03*
X005030Y007627D03*
X004853Y007781D03*
X004851Y007787D03*
X004838Y007806D03*
X005060Y007358D03*
X005060Y007245D03*
X005060Y007227D03*
X005256Y007234D03*
X005060Y007058D03*
X005059Y007037D03*
X005619Y007055D03*
X005619Y007056D03*
X005621Y007425D03*
X005620Y007488D03*
X005319Y007690D03*
D32*
X005310Y007682D03*
X005334Y007670D03*
X005335Y007720D03*
X005255Y007713D03*
X005209Y007667D03*
X005265Y007628D03*
X005276Y007618D03*
X005306Y007583D03*
X005306Y007582D03*
X005324Y007541D03*
X005324Y007532D03*
X005334Y007501D03*
X005326Y007462D03*
X005326Y007461D03*
X005324Y007445D03*
X005324Y007443D03*
X005264Y007508D03*
X005254Y007520D03*
X005254Y007521D03*
X005226Y007544D03*
X005143Y007596D03*
X005076Y007654D03*
X005079Y007666D03*
X005039Y007655D03*
X004900Y007781D03*
X004847Y007813D03*
X004833Y007752D03*
X004813Y007735D03*
X004762Y007622D03*
X004753Y007571D03*
X004745Y007562D03*
X004753Y007546D03*
X004713Y007342D03*
X004664Y007297D03*
X004664Y007296D03*
X004645Y007256D03*
X004645Y007246D03*
X004587Y007296D03*
X004587Y007297D03*
X004587Y007298D03*
X004606Y007177D03*
X004645Y007158D03*
X004645Y007148D03*
X004577Y007100D03*
X004527Y007167D03*
X004526Y007177D03*
X004723Y007226D03*
X004724Y007236D03*
X004882Y007226D03*
X004882Y007225D03*
X004882Y007178D03*
X005098Y007227D03*
X005020Y007361D03*
X005106Y007447D03*
X005277Y007316D03*
X005284Y007305D03*
X005285Y007296D03*
X005295Y007257D03*
X005295Y007236D03*
X005295Y007206D03*
X005335Y007187D03*
X005335Y007226D03*
X005343Y007257D03*
X005343Y007265D03*
X005353Y007286D03*
X005353Y007288D03*
X005414Y007226D03*
X005414Y007225D03*
X005413Y007217D03*
X005413Y007206D03*
X005413Y007198D03*
X005413Y007197D03*
X005424Y007158D03*
X005345Y007138D03*
X005217Y007226D03*
X005099Y007037D03*
X005550Y007264D03*
X005550Y007265D03*
X005659Y007423D03*
X005836Y007538D03*
X005837Y007545D03*
X005855Y007564D03*
X005864Y007570D03*
X005875Y007578D03*
X005885Y007588D03*
X005904Y007597D03*
X005904Y007571D03*
X005926Y007571D03*
X005926Y007563D03*
X005946Y007460D03*
X005836Y007292D03*
X005894Y007238D03*
X005943Y007177D03*
X005945Y007168D03*
X005954Y007154D03*
X005985Y007227D03*
X005826Y007156D03*
X005818Y007167D03*
X005718Y007128D03*
X004290Y007482D03*
X004162Y007430D03*
X004153Y007414D03*
X004153Y007393D03*
X004193Y007353D03*
X004153Y007305D03*
X004096Y007354D03*
X003985Y007327D03*
X003974Y007304D03*
X003974Y007296D03*
X004006Y007217D03*
X004085Y007070D03*
X004153Y007053D03*
D33*
X004181Y007067D03*
X004319Y007062D03*
X004398Y007058D03*
X004318Y007208D03*
X004318Y007210D03*
X004318Y007214D03*
X004319Y007375D03*
X004319Y007383D03*
X004319Y007425D03*
X004318Y007473D03*
X004318Y007474D03*
X004318Y007475D03*
X004578Y007236D03*
X004579Y007229D03*
X004674Y007236D03*
X004696Y007247D03*
X004697Y007249D03*
X004697Y007250D03*
X004674Y007178D03*
X004853Y007058D03*
X004932Y007179D03*
X004932Y007225D03*
X005061Y007436D03*
X005204Y007632D03*
X005204Y007634D03*
X005307Y007715D03*
X005304Y007732D03*
X005296Y007531D03*
X005297Y007524D03*
X005386Y007234D03*
X005386Y007233D03*
X005386Y007229D03*
X005362Y007218D03*
X005362Y007205D03*
X005362Y007198D03*
X005385Y007186D03*
X005386Y007185D03*
X005386Y007180D03*
X005386Y007179D03*
X005372Y007159D03*
X005497Y007283D03*
X005497Y007284D03*
X005497Y007285D03*
X005630Y007366D03*
X005881Y007309D03*
X005933Y007229D03*
X005933Y007227D03*
X005245Y007218D03*
X005268Y007037D03*
X004028Y007297D03*
X004028Y007298D03*
X004032Y007341D03*
X004032Y007342D03*
D34*
X004038Y007353D03*
X004032Y007304D03*
X004032Y007303D03*
X004317Y007042D03*
X004702Y007153D03*
X004702Y007154D03*
X004702Y007155D03*
X004702Y007252D03*
X004702Y007253D03*
X004687Y007262D03*
X004687Y007263D03*
X004687Y007264D03*
X004928Y007077D03*
X005076Y007270D03*
X005052Y007367D03*
X005239Y007258D03*
X005368Y007167D03*
X005400Y007258D03*
X005496Y007037D03*
X005627Y007040D03*
X005626Y007062D03*
X005750Y007180D03*
X005750Y007181D03*
X005750Y007182D03*
X005928Y007234D03*
X005952Y007244D03*
X005952Y007245D03*
X005911Y007471D03*
X005911Y007473D03*
X005283Y007546D03*
X005283Y007547D03*
X005282Y007550D03*
X005216Y007619D03*
X004870Y007671D03*
X004870Y007673D03*
X004870Y007674D03*
X004870Y007675D03*
X004811Y007602D03*
X004811Y007601D03*
X004811Y007599D03*
X004870Y007779D03*
D35*
X004926Y007369D03*
X004681Y007218D03*
X004681Y007217D03*
X004681Y007216D03*
X004681Y007214D03*
X004681Y007213D03*
X004681Y007212D03*
X004681Y007211D03*
X004681Y007210D03*
X004681Y007208D03*
X004681Y007207D03*
X004681Y007206D03*
X004681Y007205D03*
X004681Y007204D03*
X004681Y007203D03*
X004681Y007201D03*
X004681Y007192D03*
X004681Y007191D03*
X004701Y007158D03*
X004317Y007041D03*
X004317Y007040D03*
X003881Y007146D03*
X003881Y007147D03*
X005495Y007369D03*
X005751Y007178D03*
X005928Y007236D03*
X005950Y007246D03*
X005949Y007223D03*
X005626Y007037D03*
D36*
X005390Y007146D03*
X005389Y007152D03*
X005216Y007303D03*
X005089Y007356D03*
X005089Y007357D03*
X004915Y007155D03*
X004915Y007154D03*
X004561Y007253D03*
X004561Y007254D03*
X004561Y007257D03*
X004561Y007258D03*
X004561Y007259D03*
X004551Y007263D03*
X004551Y007264D03*
X004551Y007265D03*
X004551Y007266D03*
X004551Y007267D03*
X004551Y007269D03*
X004551Y007270D03*
X004335Y007259D03*
X004335Y007161D03*
X004060Y007040D03*
X004060Y007038D03*
X004049Y007061D03*
X004049Y007062D03*
X004040Y007068D03*
X004031Y007091D03*
X004001Y007140D03*
X004001Y007273D03*
X004001Y007275D03*
X004001Y007276D03*
X004001Y007277D03*
X004001Y007278D03*
X004009Y007284D03*
X004009Y007285D03*
X004020Y007306D03*
X004031Y007322D03*
X004051Y007355D03*
X004059Y007363D03*
X004059Y007364D03*
X004842Y007632D03*
X005900Y007461D03*
X005920Y007426D03*
X005880Y007306D03*
X005880Y007305D03*
X005880Y007304D03*
X005880Y007303D03*
X005880Y007302D03*
D37*
X005812Y007174D03*
X005812Y007173D03*
X005713Y007116D03*
X005555Y007259D03*
X005584Y007367D03*
X005583Y007373D03*
X005583Y007374D03*
X005584Y007503D03*
X005655Y007498D03*
X005812Y007397D03*
X005812Y007396D03*
X005930Y007538D03*
X005930Y007595D03*
X005940Y007617D03*
X005940Y007618D03*
X005950Y007449D03*
X005960Y007432D03*
X005960Y007430D03*
X005960Y007429D03*
X005960Y007171D03*
X005960Y007169D03*
X005940Y007155D03*
X005378Y007093D03*
X005368Y007102D03*
X005349Y007129D03*
X005348Y007133D03*
X005348Y007134D03*
X005358Y007291D03*
X005359Y007292D03*
X005359Y007293D03*
X005359Y007295D03*
X005271Y007321D03*
X005200Y007270D03*
X005200Y007269D03*
X005122Y007458D03*
X005132Y007469D03*
X005132Y007471D03*
X005239Y007536D03*
X005289Y007486D03*
X005309Y007456D03*
X005309Y007455D03*
X005309Y007454D03*
X005309Y007453D03*
X005309Y007452D03*
X005309Y007451D03*
X005309Y007449D03*
X005330Y007486D03*
X005330Y007487D03*
X005330Y007488D03*
X005330Y007490D03*
X005330Y007491D03*
X005330Y007492D03*
X005330Y007493D03*
X005330Y007494D03*
X005330Y007495D03*
X005330Y007497D03*
X005330Y007498D03*
X005310Y007567D03*
X005310Y007569D03*
X005301Y007586D03*
X005281Y007608D03*
X005320Y007636D03*
X005315Y007673D03*
X005269Y007703D03*
X005259Y007715D03*
X005206Y007662D03*
X005122Y007596D03*
X005082Y007632D03*
X005082Y007634D03*
X005082Y007635D03*
X005074Y007644D03*
X005054Y007609D03*
X005054Y007608D03*
X005023Y007636D03*
X005024Y007638D03*
X005024Y007640D03*
X004956Y007644D03*
X004954Y007645D03*
X004947Y007654D03*
X004917Y007637D03*
X004957Y007693D03*
X004964Y007714D03*
X005054Y007732D03*
X004897Y007784D03*
X004808Y007733D03*
X004808Y007732D03*
X004808Y007730D03*
X004807Y007726D03*
X004815Y007675D03*
X004778Y007637D03*
X004767Y007625D03*
X004758Y007606D03*
X004748Y007557D03*
X004748Y007556D03*
X004748Y007537D03*
X004669Y007301D03*
X004592Y007282D03*
X004583Y007301D03*
X004531Y007231D03*
X004582Y007110D03*
X004582Y007109D03*
X004561Y007075D03*
X004532Y007055D03*
X004669Y007112D03*
X004719Y007055D03*
X004720Y007184D03*
X004720Y007185D03*
X004965Y007058D03*
X004965Y007057D03*
X004965Y007056D03*
X004965Y007055D03*
X004965Y007054D03*
X004965Y007053D03*
X005014Y007544D03*
X005014Y007545D03*
X004365Y007504D03*
X004367Y007435D03*
X004367Y007434D03*
X004367Y007433D03*
X004367Y007432D03*
X004367Y007430D03*
X004367Y007429D03*
X004228Y007419D03*
X004237Y007340D03*
X004235Y007331D03*
X004168Y007360D03*
X004158Y007379D03*
X004090Y007349D03*
X004090Y007348D03*
X003990Y007331D03*
X003990Y007330D03*
X003843Y007512D03*
X003843Y007519D03*
X003922Y007057D03*
X003922Y007056D03*
X003922Y007055D03*
X003922Y007054D03*
X004010Y007053D03*
X004100Y007053D03*
X004100Y007056D03*
X004148Y007043D03*
X004148Y007042D03*
X004148Y007040D03*
X004148Y007038D03*
X004237Y007041D03*
X004348Y007057D03*
X004348Y007058D03*
X004349Y007054D03*
D38*
X004449Y007042D03*
X004330Y007167D03*
X004330Y007168D03*
X004330Y007169D03*
X004330Y007171D03*
X004330Y007172D03*
X004330Y007173D03*
X004330Y007174D03*
X004330Y007175D03*
X004330Y007177D03*
X004330Y007178D03*
X004330Y007179D03*
X004330Y007180D03*
X004330Y007181D03*
X004330Y007182D03*
X004330Y007184D03*
X004330Y007185D03*
X004330Y007226D03*
X004330Y007227D03*
X004330Y007229D03*
X004330Y007230D03*
X004330Y007231D03*
X004330Y007232D03*
X004331Y007240D03*
X004566Y007240D03*
X004566Y007239D03*
X004566Y007238D03*
X004566Y007237D03*
X004566Y007241D03*
X004566Y007243D03*
X004566Y007244D03*
X004566Y007245D03*
X004566Y007246D03*
X004566Y007247D03*
X004566Y007249D03*
X004566Y007250D03*
X004566Y007179D03*
X004566Y007178D03*
X004685Y007164D03*
X004801Y007044D03*
X004802Y007042D03*
X004802Y007041D03*
X004802Y007040D03*
X004802Y007038D03*
X004921Y007164D03*
X004921Y007165D03*
X004921Y007166D03*
X004921Y007167D03*
X004921Y007168D03*
X004921Y007169D03*
X004921Y007171D03*
X004921Y007172D03*
X004921Y007173D03*
X004921Y007174D03*
X004921Y007175D03*
X004921Y007177D03*
X004921Y007236D03*
X004921Y007237D03*
X004921Y007238D03*
X004921Y007239D03*
X004921Y007240D03*
X005059Y007041D03*
X005059Y007040D03*
X005059Y007038D03*
X005256Y007038D03*
X005256Y007040D03*
X005256Y007041D03*
X005256Y007042D03*
X005384Y007154D03*
X005384Y007155D03*
X005384Y007156D03*
X005382Y007172D03*
X005374Y007237D03*
X005374Y007238D03*
X005384Y007243D03*
X005384Y007244D03*
X005384Y007250D03*
X005384Y007251D03*
X005492Y007042D03*
X005757Y007191D03*
X005787Y007102D03*
X005787Y007097D03*
X005787Y007096D03*
X005787Y007095D03*
X005945Y007224D03*
X005945Y007225D03*
X005900Y007279D03*
X005901Y007282D03*
X005885Y007552D03*
X005885Y007553D03*
X004827Y007625D03*
X004330Y007494D03*
X004330Y007493D03*
X004055Y007360D03*
X004025Y007318D03*
X004025Y007317D03*
X004025Y007316D03*
X004025Y007315D03*
X004025Y007314D03*
X004025Y007312D03*
X004025Y007311D03*
X004015Y007295D03*
X004015Y007293D03*
X004015Y007292D03*
X004005Y007280D03*
X003996Y007270D03*
X003996Y007269D03*
X003996Y007267D03*
X003996Y007266D03*
X003996Y007265D03*
X003996Y007264D03*
X003996Y007263D03*
X003996Y007262D03*
X003996Y007145D03*
X004005Y007132D03*
X004025Y007095D03*
X004045Y007064D03*
X003879Y007040D03*
D39*
X003882Y007048D03*
X003882Y007049D03*
X003995Y007146D03*
X004331Y007164D03*
X004331Y007165D03*
X004331Y007166D03*
X004450Y007044D03*
X004449Y007041D03*
X004449Y007040D03*
X004828Y007624D03*
X005384Y007249D03*
X005384Y007247D03*
X005384Y007246D03*
X005384Y007245D03*
X005383Y007171D03*
X005787Y007103D03*
X005787Y007101D03*
X005787Y007100D03*
X005787Y007099D03*
X005901Y007283D03*
X005885Y007550D03*
X005885Y007551D03*
D40*
X005616Y007265D03*
X005616Y007260D03*
X005759Y007152D03*
X005759Y007151D03*
X005759Y007149D03*
X005759Y007148D03*
X005759Y007147D03*
X005759Y007146D03*
X005759Y007145D03*
X005785Y007125D03*
X005785Y007123D03*
X005785Y007122D03*
X005495Y007041D03*
X005495Y007040D03*
X005411Y007134D03*
X005411Y007135D03*
X005086Y007277D03*
X005086Y007278D03*
X005086Y007279D03*
X004918Y007263D03*
X004530Y007278D03*
X004530Y007279D03*
X004332Y007266D03*
X004332Y007265D03*
X004332Y007264D03*
D41*
X004336Y007258D03*
X004336Y007257D03*
X004336Y007256D03*
X004336Y007254D03*
X004336Y007253D03*
X004336Y007252D03*
X004336Y007251D03*
X004336Y007250D03*
X004336Y007249D03*
X004336Y007247D03*
X004336Y007246D03*
X004336Y007245D03*
X004335Y007162D03*
X004552Y007143D03*
X004561Y007252D03*
X004552Y007262D03*
X004690Y007160D03*
X004690Y007159D03*
X004700Y007143D03*
X004916Y007161D03*
X004916Y007162D03*
X004916Y007244D03*
X004916Y007245D03*
X004916Y007246D03*
X004916Y007247D03*
X004916Y007249D03*
X004916Y007250D03*
X004916Y007251D03*
X004916Y007252D03*
X004916Y007253D03*
X004916Y007254D03*
X004916Y007256D03*
X004916Y007257D03*
X004916Y007258D03*
X004916Y007259D03*
X005216Y007299D03*
X005216Y007301D03*
X005216Y007302D03*
X005388Y007254D03*
X005388Y007253D03*
X005388Y007153D03*
X005389Y007145D03*
X005389Y007143D03*
X005614Y007154D03*
X005614Y007155D03*
X005614Y007156D03*
X005614Y007158D03*
X005614Y007159D03*
X005614Y007160D03*
X005614Y007165D03*
X005614Y007166D03*
X005614Y007167D03*
X005614Y007168D03*
X005614Y007169D03*
X005614Y007243D03*
X005614Y007247D03*
X005614Y007249D03*
X005614Y007250D03*
X005614Y007251D03*
X005881Y007308D03*
X005900Y007462D03*
X005900Y007464D03*
X005900Y007465D03*
X004059Y007368D03*
X004058Y007362D03*
X004050Y007357D03*
X004050Y007356D03*
X004030Y007321D03*
X004021Y007309D03*
X004021Y007308D03*
X004010Y007289D03*
X004010Y007288D03*
X004010Y007283D03*
X004000Y007272D03*
X004000Y007141D03*
X004000Y007135D03*
X004000Y007134D03*
X004010Y007130D03*
X004010Y007129D03*
X004010Y007128D03*
X004010Y007127D03*
X004010Y007126D03*
X004010Y007125D03*
X004010Y007120D03*
X004010Y007119D03*
X004010Y007117D03*
X004010Y007116D03*
X004011Y007115D03*
X004021Y007112D03*
X004021Y007110D03*
X004021Y007109D03*
X004021Y007108D03*
X004021Y007107D03*
X004021Y007106D03*
X004021Y007104D03*
X004021Y007101D03*
X004021Y007100D03*
X004021Y007099D03*
X004021Y007097D03*
X004041Y007067D03*
X004041Y007066D03*
X004059Y007051D03*
X004059Y007050D03*
X004059Y007049D03*
X004059Y007048D03*
X004059Y007047D03*
X004059Y007045D03*
X004059Y007044D03*
X004059Y007043D03*
X004059Y007042D03*
X004059Y007041D03*
D42*
X004098Y007060D03*
X004084Y007083D03*
X004151Y007041D03*
X004289Y007054D03*
X004289Y007055D03*
X004289Y007056D03*
X004349Y007053D03*
X004384Y007156D03*
X004368Y007211D03*
X004514Y007256D03*
X004524Y007236D03*
X004524Y007234D03*
X004599Y007277D03*
X004599Y007278D03*
X004575Y007311D03*
X004560Y007329D03*
X004677Y007311D03*
X004683Y007319D03*
X004692Y007329D03*
X004697Y007331D03*
X004747Y007265D03*
X004661Y007119D03*
X004661Y007116D03*
X004662Y007115D03*
X004703Y007074D03*
X004590Y007117D03*
X004590Y007119D03*
X004589Y007115D03*
X004579Y007107D03*
X004579Y007106D03*
X004908Y007051D03*
X005297Y007225D03*
X005297Y007226D03*
X005297Y007227D03*
X005336Y007232D03*
X005334Y007182D03*
X005334Y007181D03*
X005364Y007103D03*
X005370Y007099D03*
X005379Y007089D03*
X005437Y007147D03*
X005294Y007271D03*
X005402Y007340D03*
X005301Y007461D03*
X005301Y007462D03*
X005281Y007490D03*
X005246Y007526D03*
X005242Y007532D03*
X005194Y007566D03*
X005143Y007597D03*
X005136Y007676D03*
X005164Y007694D03*
X005249Y007643D03*
X005258Y007635D03*
X005267Y007625D03*
X005278Y007612D03*
X005278Y007611D03*
X005314Y007566D03*
X005318Y007562D03*
X005317Y007559D03*
X005327Y007658D03*
X005327Y007660D03*
X005327Y007661D03*
X005327Y007662D03*
X005327Y007663D03*
X005327Y007664D03*
X005286Y007683D03*
X005281Y007687D03*
X005063Y007712D03*
X005011Y007546D03*
X005063Y007532D03*
X004801Y007664D03*
X004755Y007605D03*
X004751Y007567D03*
X004751Y007566D03*
X004745Y007559D03*
X004768Y007559D03*
X004768Y007560D03*
X004775Y007566D03*
X004835Y007753D03*
X004812Y007778D03*
X004812Y007779D03*
X004820Y007807D03*
X004835Y007824D03*
X004849Y007817D03*
X004875Y007812D03*
X004894Y007791D03*
X004900Y007782D03*
X004368Y007488D03*
X004225Y007427D03*
X004160Y007428D03*
X004084Y007330D03*
X003974Y007299D03*
X003974Y007298D03*
X003962Y007286D03*
X004002Y007058D03*
X004002Y007057D03*
X004006Y007054D03*
X003846Y007056D03*
X003846Y007057D03*
X005580Y007376D03*
X005580Y007377D03*
X005809Y007177D03*
X005893Y007240D03*
X005875Y007433D03*
X005947Y007455D03*
X005957Y007445D03*
X005904Y007564D03*
X005884Y007586D03*
D43*
X005904Y007567D03*
X005929Y007546D03*
X005930Y007591D03*
X005940Y007619D03*
X005856Y007291D03*
X005856Y007290D03*
X005857Y007288D03*
X005980Y007272D03*
X005950Y007151D03*
X005950Y007149D03*
X005950Y007148D03*
X005950Y007147D03*
X005950Y007146D03*
X005584Y007364D03*
X005320Y007438D03*
X005280Y007493D03*
X005280Y007494D03*
X005261Y007514D03*
X005250Y007525D03*
X005241Y007534D03*
X005291Y007597D03*
X005291Y007598D03*
X005301Y007589D03*
X005320Y007638D03*
X005320Y007640D03*
X005320Y007641D03*
X005320Y007642D03*
X005320Y007643D03*
X005320Y007644D03*
X005309Y007660D03*
X005309Y007661D03*
X005309Y007662D03*
X005308Y007663D03*
X005298Y007673D03*
X005289Y007682D03*
X005280Y007691D03*
X005269Y007702D03*
X005314Y007679D03*
X005314Y007677D03*
X005251Y007637D03*
X005242Y007647D03*
X005161Y007696D03*
X005161Y007697D03*
X005161Y007699D03*
X005160Y007702D03*
X005143Y007655D03*
X005084Y007671D03*
X005084Y007673D03*
X005084Y007674D03*
X005073Y007653D03*
X005073Y007651D03*
X005073Y007650D03*
X005073Y007649D03*
X005073Y007648D03*
X005073Y007647D03*
X005082Y007630D03*
X005082Y007629D03*
X005082Y007628D03*
X005054Y007614D03*
X005054Y007612D03*
X005054Y007611D03*
X005054Y007610D03*
X005043Y007656D03*
X005045Y007683D03*
X005034Y007708D03*
X005034Y007709D03*
X004995Y007703D03*
X004995Y007702D03*
X004945Y007693D03*
X004945Y007691D03*
X004945Y007690D03*
X004945Y007683D03*
X004945Y007682D03*
X004945Y007681D03*
X004945Y007680D03*
X004945Y007679D03*
X004945Y007677D03*
X004945Y007676D03*
X004945Y007675D03*
X004945Y007674D03*
X004945Y007673D03*
X004945Y007671D03*
X004945Y007670D03*
X004945Y007669D03*
X004945Y007668D03*
X004945Y007667D03*
X004945Y007666D03*
X004945Y007664D03*
X004945Y007663D03*
X004945Y007662D03*
X004945Y007661D03*
X004945Y007660D03*
X004945Y007658D03*
X004945Y007657D03*
X004945Y007656D03*
X004945Y007655D03*
X004936Y007725D03*
X004936Y007726D03*
X004897Y007785D03*
X004897Y007786D03*
X004887Y007794D03*
X004887Y007795D03*
X004887Y007797D03*
X004878Y007805D03*
X004852Y007819D03*
X004851Y007818D03*
X004826Y007814D03*
X004817Y007676D03*
X004768Y007631D03*
X004768Y007630D03*
X004769Y007564D03*
X004749Y007545D03*
X004749Y007544D03*
X004749Y007543D03*
X004749Y007541D03*
X004749Y007540D03*
X004749Y007539D03*
X004688Y007322D03*
X004678Y007312D03*
X004669Y007303D03*
X004740Y007259D03*
X004740Y007258D03*
X004749Y007269D03*
X004582Y007303D03*
X004582Y007304D03*
X004572Y007312D03*
X004572Y007314D03*
X004532Y007226D03*
X004365Y007384D03*
X004237Y007338D03*
X004237Y007337D03*
X004237Y007336D03*
X004237Y007335D03*
X004227Y007384D03*
X004227Y007421D03*
X004227Y007422D03*
X004218Y007430D03*
X004158Y007377D03*
X004148Y007336D03*
X004148Y007335D03*
X004148Y007334D03*
X004148Y007332D03*
X004080Y007327D03*
X004080Y007325D03*
X003991Y007335D03*
X004080Y007088D03*
X004080Y007087D03*
X004178Y007041D03*
X003921Y007060D03*
X005065Y007534D03*
X005113Y007449D03*
X005197Y007271D03*
X005271Y007322D03*
X005271Y007323D03*
X005368Y007101D03*
X005378Y007091D03*
D44*
X005363Y007107D03*
X005363Y007108D03*
X005344Y007256D03*
X005353Y007285D03*
X005404Y007342D03*
X005310Y007486D03*
X005310Y007487D03*
X005310Y007488D03*
X005310Y007490D03*
X005227Y007543D03*
X005265Y007629D03*
X005265Y007630D03*
X005265Y007631D03*
X005264Y007634D03*
X005227Y007656D03*
X005196Y007676D03*
X005159Y007624D03*
X005077Y007656D03*
X005077Y007657D03*
X005077Y007658D03*
X005078Y007664D03*
X005049Y007684D03*
X004949Y007684D03*
X004831Y007686D03*
X004803Y007668D03*
X004803Y007667D03*
X004763Y007621D03*
X004753Y007582D03*
X004814Y007736D03*
X004814Y007738D03*
X004814Y007739D03*
X004814Y007740D03*
X004814Y007741D03*
X004814Y007742D03*
X004847Y007811D03*
X004847Y007812D03*
X005310Y007725D03*
X005310Y007723D03*
X005310Y007722D03*
X005334Y007719D03*
X005334Y007689D03*
X005310Y007686D03*
X005310Y007684D03*
X005310Y007683D03*
X005324Y007645D03*
X005836Y007544D03*
X005836Y007543D03*
X005836Y007541D03*
X005836Y007540D03*
X005836Y007539D03*
X005855Y007563D03*
X005835Y007449D03*
X005816Y007440D03*
X005836Y007278D03*
X005965Y007283D03*
X005984Y007226D03*
X005955Y007155D03*
X004705Y007071D03*
X004576Y007099D03*
X004547Y007071D03*
X004222Y007041D03*
X004085Y007069D03*
X004015Y007187D03*
X003975Y007305D03*
X003986Y007325D03*
X004153Y007329D03*
X004192Y007358D03*
X004153Y007423D03*
D45*
X004029Y007340D03*
X004032Y007302D03*
X003879Y007259D03*
X003879Y007258D03*
X003879Y007257D03*
X003879Y007256D03*
X004028Y007075D03*
X004318Y007047D03*
X004550Y007161D03*
X004929Y007353D03*
X005075Y007253D03*
X005208Y007628D03*
X005628Y007041D03*
X005952Y007240D03*
X005952Y007241D03*
D46*
X005756Y007168D03*
X005620Y007490D03*
X005620Y007491D03*
X005620Y007492D03*
X005620Y007493D03*
X005620Y007494D03*
X005620Y007495D03*
X005620Y007497D03*
X005885Y007556D03*
X005374Y007192D03*
X005374Y007191D03*
X005374Y007190D03*
X005374Y007188D03*
X005375Y007177D03*
X005256Y007207D03*
X005256Y007208D03*
X005256Y007210D03*
X005256Y007211D03*
X005256Y007212D03*
X005256Y007213D03*
X005256Y007214D03*
X005256Y007216D03*
X005256Y007217D03*
X005059Y007051D03*
X005059Y007050D03*
X005059Y007049D03*
X005059Y007048D03*
X005059Y007045D03*
X005059Y007044D03*
X005059Y007043D03*
X004693Y007276D03*
X004329Y007218D03*
X004329Y007200D03*
X004329Y007199D03*
X004329Y007198D03*
X004329Y007197D03*
X004329Y007195D03*
X004329Y007194D03*
X004329Y007193D03*
X004329Y007192D03*
X004192Y007192D03*
X004192Y007193D03*
X004192Y007194D03*
X004192Y007195D03*
X004192Y007197D03*
X004192Y007198D03*
X004192Y007199D03*
X004192Y007200D03*
X004192Y007201D03*
X004192Y007203D03*
X004192Y007204D03*
X004192Y007205D03*
X004192Y007206D03*
X004192Y007207D03*
X004192Y007208D03*
X004192Y007210D03*
X004192Y007211D03*
X004192Y007212D03*
X004192Y007213D03*
X004192Y007214D03*
X004192Y007216D03*
X004192Y007217D03*
X004192Y007218D03*
X004192Y007219D03*
X004192Y007220D03*
X004192Y007221D03*
X004192Y007223D03*
X004192Y007224D03*
X004192Y007225D03*
X004192Y007226D03*
X004192Y007227D03*
X004192Y007229D03*
X004192Y007230D03*
X004192Y007231D03*
X004192Y007232D03*
X004192Y007233D03*
X004192Y007234D03*
X004192Y007236D03*
X004192Y007237D03*
X004192Y007238D03*
X004192Y007239D03*
X004192Y007240D03*
X004192Y007241D03*
X004192Y007243D03*
X004192Y007244D03*
X004192Y007245D03*
X004192Y007246D03*
X004192Y007247D03*
X004192Y007249D03*
X004192Y007250D03*
X004192Y007251D03*
X004192Y007252D03*
X004192Y007253D03*
X004192Y007254D03*
X004192Y007256D03*
X004192Y007257D03*
X004192Y007258D03*
X004192Y007259D03*
X004192Y007260D03*
X004192Y007262D03*
X004192Y007263D03*
X004192Y007264D03*
X004192Y007265D03*
X004192Y007266D03*
X004192Y007267D03*
X004192Y007269D03*
X004192Y007270D03*
X004192Y007271D03*
X004192Y007272D03*
X004192Y007273D03*
X004192Y007275D03*
X004192Y007276D03*
X004192Y007277D03*
X004192Y007278D03*
X004192Y007279D03*
X004192Y007280D03*
X004192Y007282D03*
X004192Y007283D03*
X004192Y007284D03*
X004192Y007285D03*
X004192Y007286D03*
X004192Y007288D03*
X004192Y007289D03*
X004192Y007290D03*
X004192Y007291D03*
X004192Y007292D03*
X004192Y007293D03*
X004192Y007295D03*
X004192Y007296D03*
X004192Y007297D03*
X004192Y007298D03*
X004192Y007299D03*
X004192Y007301D03*
X004192Y007302D03*
X004192Y007303D03*
X004192Y007304D03*
X004192Y007191D03*
X004192Y007190D03*
X004192Y007188D03*
X004192Y007187D03*
X004192Y007186D03*
X004192Y007185D03*
X004192Y007184D03*
X004192Y007182D03*
X004192Y007181D03*
X004192Y007180D03*
X004192Y007179D03*
X004192Y007178D03*
X004192Y007177D03*
X004192Y007175D03*
X004192Y007174D03*
X004192Y007173D03*
X004192Y007172D03*
X004192Y007171D03*
X004192Y007169D03*
X004192Y007168D03*
X004192Y007167D03*
X004192Y007166D03*
X004192Y007165D03*
X004192Y007164D03*
X004192Y007162D03*
X004192Y007161D03*
X004192Y007160D03*
X004192Y007159D03*
X004192Y007158D03*
X004192Y007156D03*
X004192Y007155D03*
X004192Y007154D03*
X004192Y007153D03*
X004192Y007152D03*
X004192Y007151D03*
X004192Y007149D03*
X004192Y007148D03*
X004192Y007147D03*
X004192Y007146D03*
X004192Y007145D03*
X004192Y007143D03*
X004192Y007142D03*
X004192Y007141D03*
X004192Y007140D03*
X004192Y007139D03*
X004192Y007138D03*
X004192Y007136D03*
X004192Y007135D03*
X004192Y007134D03*
X004192Y007133D03*
X004192Y007132D03*
X004192Y007130D03*
X004192Y007129D03*
X004192Y007128D03*
X004192Y007127D03*
X004192Y007126D03*
X004192Y007125D03*
X004192Y007123D03*
X004192Y007122D03*
X004192Y007121D03*
X004192Y007120D03*
X004192Y007119D03*
X004192Y007117D03*
X004192Y007116D03*
X004192Y007115D03*
X004192Y007114D03*
X004192Y007113D03*
X004192Y007112D03*
X004192Y007110D03*
X004192Y007109D03*
X004192Y007108D03*
X004192Y007107D03*
X004192Y007106D03*
X004192Y007104D03*
X004192Y007103D03*
X004192Y007102D03*
X004192Y007101D03*
X004192Y007100D03*
X004192Y007099D03*
X004192Y007097D03*
X004192Y007096D03*
X004192Y007095D03*
X004192Y007094D03*
X004192Y007093D03*
X004192Y007091D03*
X004192Y007090D03*
X004192Y007089D03*
X004192Y007088D03*
X004192Y007087D03*
X004192Y007086D03*
X004192Y007084D03*
X004192Y007083D03*
X004192Y007082D03*
X004192Y007081D03*
X004192Y007080D03*
X004192Y007079D03*
X004192Y007077D03*
X004192Y007076D03*
X004192Y007075D03*
X004192Y007074D03*
X004192Y007073D03*
X004192Y007071D03*
X004192Y007070D03*
X004192Y007069D03*
X004192Y007051D03*
X004192Y007044D03*
X003881Y007050D03*
X003880Y007045D03*
X003879Y007042D03*
X003886Y007153D03*
X003879Y007521D03*
X004329Y007490D03*
X004832Y007630D03*
X004864Y007661D03*
X005059Y007722D03*
X005254Y007552D03*
D47*
X005294Y007513D03*
X005207Y007629D03*
X005207Y007648D03*
X005207Y007649D03*
X005050Y007368D03*
X004929Y007360D03*
X004929Y007358D03*
X004929Y007357D03*
X004929Y007356D03*
X004929Y007355D03*
X004929Y007354D03*
X004550Y007162D03*
X004192Y007374D03*
X004192Y007375D03*
X004032Y007301D03*
X005397Y007138D03*
X005627Y007061D03*
X005629Y007042D03*
D48*
X005623Y007363D03*
X005895Y007446D03*
X005895Y007449D03*
X005300Y007716D03*
X005300Y007717D03*
X005256Y007569D03*
X005256Y007567D03*
X005255Y007564D03*
X004926Y007368D03*
X004690Y007266D03*
X004572Y007218D03*
X004572Y007217D03*
X004572Y007216D03*
X004572Y007214D03*
X004572Y007213D03*
X004572Y007212D03*
X004572Y007211D03*
X004572Y007210D03*
X004572Y007208D03*
X004572Y007207D03*
X004572Y007206D03*
X004572Y007205D03*
X004572Y007204D03*
X004572Y007203D03*
X004572Y007201D03*
X004572Y007200D03*
X004572Y007199D03*
X004572Y007198D03*
X004572Y007197D03*
X004572Y007195D03*
X004572Y007194D03*
X004572Y007193D03*
X004572Y007192D03*
X004572Y007191D03*
X004572Y007190D03*
X004572Y007188D03*
X004571Y007184D03*
X004571Y007182D03*
X004450Y007369D03*
X004326Y007368D03*
X004326Y007367D03*
X004326Y007366D03*
X004326Y007364D03*
X004326Y007363D03*
X004326Y007362D03*
X004326Y007386D03*
X004326Y007387D03*
X004326Y007388D03*
X004326Y007389D03*
X004326Y007390D03*
X004326Y007391D03*
X004326Y007393D03*
X004326Y007394D03*
X004326Y007395D03*
X004326Y007396D03*
X004326Y007397D03*
X004326Y007399D03*
X004326Y007400D03*
X004326Y007401D03*
X004326Y007402D03*
X004326Y007403D03*
X004326Y007404D03*
X004326Y007406D03*
X004326Y007407D03*
X004326Y007408D03*
X004326Y007409D03*
X004326Y007410D03*
X004326Y007412D03*
X004326Y007413D03*
X004326Y007414D03*
X004326Y007415D03*
X004326Y007416D03*
X004326Y007417D03*
X004326Y007419D03*
X004326Y007420D03*
X004326Y007421D03*
X004326Y007422D03*
X004326Y007423D03*
X004325Y007500D03*
X004325Y007501D03*
X004325Y007503D03*
X003882Y007504D03*
X003882Y007505D03*
X003882Y007506D03*
X003882Y007507D03*
X003882Y007503D03*
X003882Y007501D03*
X003882Y007500D03*
X003882Y007499D03*
X003882Y007498D03*
X003882Y007497D03*
X003882Y007495D03*
X003882Y007494D03*
X003882Y007493D03*
X003882Y007492D03*
X003882Y007491D03*
X003882Y007490D03*
X003882Y007488D03*
X003882Y007487D03*
X003882Y007486D03*
X003882Y007485D03*
X003882Y007484D03*
X003882Y007482D03*
X003882Y007481D03*
X003882Y007480D03*
X003882Y007479D03*
X003882Y007478D03*
X003882Y007477D03*
X003882Y007475D03*
X003882Y007474D03*
X003882Y007473D03*
X003882Y007472D03*
X003882Y007471D03*
X003882Y007469D03*
X003882Y007468D03*
X003882Y007467D03*
X003882Y007466D03*
X003882Y007465D03*
X003882Y007464D03*
X003882Y007462D03*
X003882Y007461D03*
X003882Y007460D03*
X003882Y007459D03*
X003882Y007458D03*
X003882Y007456D03*
X003882Y007455D03*
X003882Y007454D03*
X003882Y007453D03*
X003882Y007452D03*
X003882Y007451D03*
X003882Y007449D03*
X003882Y007448D03*
X003882Y007447D03*
X003882Y007446D03*
X003882Y007445D03*
X003882Y007443D03*
X003882Y007442D03*
X003882Y007441D03*
X003882Y007440D03*
X003882Y007439D03*
X003882Y007438D03*
X003882Y007436D03*
X003882Y007435D03*
X003882Y007434D03*
X003882Y007433D03*
X003882Y007432D03*
X003882Y007430D03*
X003882Y007429D03*
X003882Y007428D03*
X003882Y007427D03*
X003882Y007426D03*
X003882Y007425D03*
X003882Y007423D03*
X003882Y007422D03*
X003882Y007421D03*
X003882Y007420D03*
X003882Y007419D03*
X003882Y007417D03*
X003882Y007416D03*
X003882Y007415D03*
X003882Y007414D03*
X003882Y007413D03*
X003882Y007412D03*
X003882Y007410D03*
X003882Y007409D03*
X003882Y007408D03*
X003882Y007407D03*
X003882Y007406D03*
X003882Y007404D03*
X003882Y007403D03*
X003882Y007402D03*
X003882Y007401D03*
X003882Y007400D03*
X003882Y007399D03*
X003882Y007397D03*
X003882Y007396D03*
X003882Y007395D03*
X003882Y007394D03*
X003882Y007393D03*
X003882Y007391D03*
X003882Y007390D03*
X003882Y007389D03*
X003882Y007388D03*
X003882Y007387D03*
X003882Y007386D03*
X003882Y007384D03*
X003882Y007383D03*
X003882Y007382D03*
X003882Y007381D03*
X003882Y007380D03*
X003882Y007379D03*
X003882Y007377D03*
X003882Y007376D03*
X003882Y007375D03*
X003882Y007374D03*
X003882Y007373D03*
X003882Y007371D03*
X003882Y007370D03*
X003882Y007369D03*
X003882Y007368D03*
X003882Y007367D03*
X003882Y007366D03*
X003882Y007364D03*
X003882Y007363D03*
X003882Y007362D03*
X003882Y007361D03*
X003882Y007360D03*
X003882Y007358D03*
X003882Y007357D03*
X003882Y007356D03*
X003882Y007355D03*
X003882Y007354D03*
X003882Y007353D03*
X003882Y007351D03*
X003882Y007350D03*
X003882Y007349D03*
X003882Y007348D03*
X003882Y007347D03*
X003882Y007345D03*
X003882Y007344D03*
X003882Y007343D03*
X003882Y007342D03*
X003882Y007341D03*
X003882Y007340D03*
X003882Y007338D03*
X003882Y007337D03*
X003882Y007336D03*
X003882Y007335D03*
X003882Y007334D03*
X003882Y007332D03*
X003882Y007331D03*
X003882Y007330D03*
X003882Y007329D03*
X003882Y007328D03*
X003882Y007327D03*
X003882Y007325D03*
X003882Y007324D03*
X003882Y007323D03*
X003882Y007322D03*
X003882Y007321D03*
X003882Y007319D03*
X003882Y007318D03*
X003882Y007317D03*
X003882Y007316D03*
X003882Y007315D03*
X003882Y007314D03*
X003882Y007312D03*
X003882Y007311D03*
X003882Y007310D03*
X003882Y007309D03*
X003882Y007308D03*
X003882Y007306D03*
X003882Y007305D03*
X003882Y007304D03*
X003882Y007303D03*
X003882Y007302D03*
X003882Y007301D03*
X003882Y007299D03*
X003882Y007298D03*
X003882Y007297D03*
X003882Y007296D03*
X003882Y007295D03*
X003882Y007293D03*
X003882Y007292D03*
X003882Y007291D03*
X003882Y007290D03*
X003882Y007289D03*
X003882Y007288D03*
X003882Y007286D03*
X003882Y007285D03*
X003882Y007284D03*
X003882Y007283D03*
X003882Y007282D03*
X003882Y007280D03*
X003882Y007279D03*
X003882Y007278D03*
X003882Y007277D03*
X003882Y007276D03*
X003882Y007275D03*
X003882Y007273D03*
X003882Y007272D03*
X003882Y007271D03*
X003882Y007270D03*
X003882Y007269D03*
X003882Y007267D03*
X003882Y007266D03*
X003882Y007265D03*
X003882Y007264D03*
X003882Y007263D03*
X003882Y007262D03*
X003882Y007143D03*
X003882Y007142D03*
X003882Y007141D03*
X003882Y007140D03*
X003882Y007139D03*
X003882Y007138D03*
X003882Y007136D03*
X003882Y007135D03*
X003882Y007134D03*
X003882Y007133D03*
X003882Y007132D03*
X003882Y007130D03*
X003882Y007129D03*
X003882Y007128D03*
X003882Y007127D03*
X003882Y007126D03*
X003882Y007125D03*
X003882Y007123D03*
X003882Y007122D03*
X003882Y007121D03*
X003882Y007120D03*
X003882Y007119D03*
X003882Y007117D03*
X003882Y007116D03*
X003882Y007115D03*
X003882Y007114D03*
X003882Y007113D03*
X003882Y007112D03*
X003882Y007110D03*
X003882Y007109D03*
X003882Y007108D03*
X003882Y007107D03*
X003882Y007106D03*
X003882Y007104D03*
X003882Y007103D03*
X003882Y007102D03*
X003882Y007101D03*
X003882Y007100D03*
X003882Y007099D03*
X003882Y007097D03*
X003882Y007096D03*
X003882Y007095D03*
X003882Y007094D03*
X003882Y007093D03*
X003882Y007091D03*
X003882Y007090D03*
X003882Y007089D03*
X003882Y007088D03*
X003882Y007087D03*
X003882Y007086D03*
X003882Y007084D03*
X003882Y007083D03*
X003882Y007082D03*
X003882Y007081D03*
X003882Y007080D03*
X003882Y007079D03*
X003882Y007077D03*
X003882Y007076D03*
X003882Y007075D03*
X003882Y007074D03*
X003882Y007073D03*
X003882Y007071D03*
X003882Y007070D03*
X003882Y007069D03*
X003882Y007068D03*
X003882Y007067D03*
X003882Y007066D03*
X003882Y007064D03*
X003882Y007063D03*
X003882Y007062D03*
X003882Y007044D03*
X003882Y007043D03*
X003882Y007520D03*
X003882Y007527D03*
X003882Y007529D03*
X003882Y007530D03*
X003882Y007531D03*
X003882Y007532D03*
X003882Y007533D03*
D49*
X003879Y007526D03*
X004023Y007090D03*
X004328Y007156D03*
X004328Y007201D03*
X004546Y007149D03*
X004692Y007273D03*
X004692Y007275D03*
X004706Y007148D03*
X004801Y007612D03*
X004801Y007618D03*
X004801Y007619D03*
X004864Y007662D03*
X004864Y007663D03*
X005060Y007721D03*
X005253Y007554D03*
X005253Y007553D03*
X005257Y007276D03*
X005405Y007265D03*
X005405Y007264D03*
X005376Y007175D03*
X005493Y007043D03*
X005755Y007169D03*
X005755Y007171D03*
X005620Y007501D03*
D50*
X005600Y007271D03*
X005767Y007138D03*
X005769Y007134D03*
X005926Y007252D03*
X004714Y007132D03*
X004537Y007132D03*
X004448Y007045D03*
X004349Y007271D03*
D51*
X004803Y007045D03*
X004902Y007271D03*
X005600Y007142D03*
D52*
X005486Y007045D03*
X005416Y007110D03*
X005416Y007114D03*
X005416Y007298D03*
X005416Y007303D03*
X005164Y007367D03*
X005208Y007608D03*
X004707Y007133D03*
X004342Y007130D03*
X004342Y007129D03*
X004342Y007128D03*
X005888Y007277D03*
X005913Y007284D03*
D53*
X005902Y007422D03*
X005242Y007572D03*
X005242Y007573D03*
X005242Y007576D03*
X005221Y007580D03*
X004453Y007047D03*
D54*
X004738Y007108D03*
X004798Y007048D03*
X004798Y007047D03*
X005216Y007586D03*
X005496Y007048D03*
D55*
X005495Y007047D03*
X005897Y007272D03*
X005922Y007262D03*
X005903Y007419D03*
X005903Y007420D03*
X005219Y007582D03*
X004860Y007634D03*
D56*
X004847Y007641D03*
X004847Y007642D03*
X004847Y007643D03*
X004847Y007644D03*
X004847Y007645D03*
X004847Y007647D03*
X004847Y007648D03*
X004827Y007611D03*
X004798Y007050D03*
X004798Y007049D03*
X004453Y007049D03*
X004453Y007050D03*
X004453Y007048D03*
X005497Y007049D03*
X005497Y007050D03*
D57*
X005363Y007197D03*
X005363Y007217D03*
X005073Y007275D03*
X004931Y007226D03*
X004931Y007050D03*
X004319Y007217D03*
X004321Y007374D03*
X004321Y007384D03*
X004192Y007370D03*
X005205Y007630D03*
X005212Y007623D03*
X005304Y007727D03*
X005304Y007728D03*
X005304Y007729D03*
X005304Y007730D03*
X005629Y007364D03*
X005915Y007474D03*
X005936Y007286D03*
X005934Y007226D03*
X005946Y007212D03*
X005798Y007091D03*
D58*
X005623Y007362D03*
X005896Y007445D03*
X005378Y007174D03*
X005378Y007173D03*
X005290Y007523D03*
X005288Y007543D03*
X004926Y007367D03*
X004926Y007366D03*
X004926Y007364D03*
X004926Y007363D03*
X004867Y007669D03*
X004867Y007688D03*
X004572Y007225D03*
X004572Y007224D03*
X004572Y007223D03*
X004572Y007221D03*
X004572Y007220D03*
X004572Y007219D03*
X004572Y007187D03*
X004572Y007186D03*
X004572Y007185D03*
X004326Y007203D03*
X004326Y007204D03*
X004326Y007205D03*
X004326Y007206D03*
X004327Y007361D03*
X003883Y007051D03*
D59*
X004051Y007056D03*
X004192Y007362D03*
X004192Y007363D03*
X004192Y007368D03*
X004409Y007051D03*
X005029Y007554D03*
X005039Y007529D03*
X005058Y007429D03*
X005280Y007536D03*
X005280Y007537D03*
X005280Y007538D03*
X005280Y007539D03*
X005108Y007684D03*
X004892Y007708D03*
X004892Y007709D03*
X004892Y007710D03*
X004892Y007712D03*
X005307Y007733D03*
X005906Y007589D03*
X005920Y007430D03*
X005955Y007197D03*
X005955Y007195D03*
D60*
X005954Y007194D03*
X005954Y007193D03*
X005954Y007198D03*
X005954Y007199D03*
X005954Y007200D03*
X005954Y007201D03*
X005920Y007428D03*
X005920Y007429D03*
X005452Y007051D03*
X005314Y007480D03*
X005314Y007481D03*
X005314Y007482D03*
X005282Y007533D03*
X005281Y007534D03*
X005050Y007541D03*
X005040Y007527D03*
X004802Y007370D03*
X004773Y007577D03*
X004843Y007051D03*
X004192Y007361D03*
X004192Y007439D03*
X004050Y007055D03*
X004050Y007054D03*
D61*
X003938Y007256D03*
X003938Y007257D03*
X003938Y007258D03*
X004408Y007277D03*
X004761Y007273D03*
X004843Y007276D03*
X004844Y007272D03*
X004706Y007069D03*
X004958Y007051D03*
X005189Y007272D03*
X005187Y007275D03*
X005187Y007276D03*
X005451Y007138D03*
X005542Y007138D03*
X005542Y007139D03*
X005543Y007141D03*
X005972Y007410D03*
X005867Y007573D03*
X005868Y007575D03*
X005869Y007576D03*
X005907Y007599D03*
X005332Y007667D03*
X005310Y007688D03*
X005309Y007726D03*
X005225Y007661D03*
X005196Y007677D03*
X005049Y007622D03*
X005049Y007621D03*
X005049Y007619D03*
X005050Y007618D03*
X005040Y007706D03*
X005040Y007707D03*
X004845Y007694D03*
X004815Y007743D03*
X004847Y007808D03*
X004854Y007824D03*
X004782Y007571D03*
D62*
X005027Y007628D03*
X005027Y007629D03*
X005535Y007361D03*
X005910Y007454D03*
X005913Y007549D03*
X005913Y007573D03*
X004746Y007055D03*
X004326Y007484D03*
X004192Y007422D03*
X004165Y007324D03*
X003883Y007058D03*
X003883Y007053D03*
D63*
X003922Y007058D03*
X003923Y007053D03*
X004080Y007084D03*
X004080Y007086D03*
X004099Y007057D03*
X004366Y007207D03*
X004366Y007208D03*
X004366Y007210D03*
X004365Y007374D03*
X004366Y007375D03*
X004366Y007376D03*
X004366Y007377D03*
X004366Y007379D03*
X004366Y007380D03*
X004366Y007381D03*
X004366Y007382D03*
X004366Y007383D03*
X004366Y007425D03*
X004366Y007426D03*
X004366Y007427D03*
X004366Y007428D03*
X004366Y007436D03*
X004366Y007438D03*
X004366Y007439D03*
X004366Y007440D03*
X004366Y007441D03*
X004366Y007442D03*
X004366Y007443D03*
X004366Y007445D03*
X004366Y007446D03*
X004366Y007447D03*
X004366Y007448D03*
X004366Y007449D03*
X004366Y007451D03*
X004366Y007452D03*
X004366Y007453D03*
X004366Y007454D03*
X004366Y007455D03*
X004366Y007456D03*
X004366Y007458D03*
X004366Y007459D03*
X004366Y007460D03*
X004366Y007461D03*
X004366Y007462D03*
X004366Y007464D03*
X004366Y007465D03*
X004366Y007466D03*
X004366Y007467D03*
X004366Y007468D03*
X004366Y007469D03*
X004366Y007471D03*
X004366Y007472D03*
X004366Y007473D03*
X004366Y007474D03*
X004366Y007475D03*
X004366Y007477D03*
X004366Y007478D03*
X004366Y007479D03*
X004366Y007480D03*
X004366Y007481D03*
X004366Y007482D03*
X004366Y007484D03*
X004366Y007485D03*
X004366Y007486D03*
X004366Y007487D03*
X004365Y007498D03*
X004365Y007499D03*
X004286Y007499D03*
X004286Y007498D03*
X004286Y007504D03*
X004228Y007420D03*
X004228Y007388D03*
X004228Y007387D03*
X004228Y007386D03*
X004236Y007334D03*
X004236Y007332D03*
X004149Y007331D03*
X004149Y007330D03*
X004147Y007337D03*
X004147Y007338D03*
X004090Y007344D03*
X004090Y007345D03*
X004090Y007347D03*
X004080Y007329D03*
X004080Y007328D03*
X003990Y007332D03*
X003990Y007334D03*
X003922Y007512D03*
X003922Y007513D03*
X003922Y007514D03*
X003922Y007516D03*
X003922Y007517D03*
X003922Y007518D03*
X003922Y007519D03*
X003922Y007534D03*
X003843Y007534D03*
X004531Y007230D03*
X004531Y007229D03*
X004531Y007227D03*
X004592Y007283D03*
X004592Y007284D03*
X004592Y007285D03*
X004582Y007302D03*
X004670Y007302D03*
X004750Y007270D03*
X004752Y007271D03*
X004719Y007187D03*
X004719Y007186D03*
X004720Y007182D03*
X004670Y007110D03*
X004670Y007109D03*
X004582Y007112D03*
X004749Y007538D03*
X004747Y007554D03*
X004747Y007558D03*
X004759Y007554D03*
X004770Y007565D03*
X004758Y007608D03*
X004758Y007609D03*
X004758Y007610D03*
X004768Y007627D03*
X004768Y007628D03*
X004778Y007638D03*
X004778Y007640D03*
X004808Y007727D03*
X004808Y007728D03*
X004808Y007729D03*
X004916Y007707D03*
X004916Y007706D03*
X004916Y007704D03*
X004916Y007703D03*
X004916Y007702D03*
X004916Y007701D03*
X004916Y007700D03*
X004945Y007694D03*
X004957Y007691D03*
X004957Y007690D03*
X004985Y007714D03*
X004997Y007697D03*
X005009Y007676D03*
X005007Y007675D03*
X005044Y007675D03*
X005044Y007676D03*
X005044Y007677D03*
X005044Y007679D03*
X005044Y007680D03*
X005044Y007681D03*
X005044Y007682D03*
X005044Y007674D03*
X005044Y007673D03*
X005044Y007671D03*
X005044Y007670D03*
X005044Y007669D03*
X005044Y007668D03*
X005044Y007667D03*
X005044Y007666D03*
X005044Y007664D03*
X005044Y007663D03*
X005044Y007662D03*
X005044Y007661D03*
X005044Y007660D03*
X005044Y007658D03*
X005044Y007657D03*
X005044Y007640D03*
X005044Y007638D03*
X005044Y007637D03*
X005044Y007636D03*
X005044Y007635D03*
X005044Y007634D03*
X005053Y007615D03*
X005064Y007615D03*
X005083Y007625D03*
X005083Y007627D03*
X005083Y007631D03*
X005073Y007645D03*
X005083Y007667D03*
X005083Y007668D03*
X005083Y007669D03*
X005083Y007670D03*
X005058Y007714D03*
X005053Y007725D03*
X005053Y007726D03*
X005053Y007727D03*
X005053Y007728D03*
X005053Y007729D03*
X005053Y007730D03*
X005033Y007712D03*
X005033Y007710D03*
X005024Y007714D03*
X004936Y007729D03*
X004936Y007730D03*
X004936Y007732D03*
X004916Y007640D03*
X004916Y007638D03*
X004926Y007635D03*
X004897Y007624D03*
X004896Y007615D03*
X004896Y007614D03*
X004896Y007610D03*
X005014Y007543D03*
X005014Y007541D03*
X005112Y007448D03*
X005075Y007369D03*
X005201Y007267D03*
X005201Y007266D03*
X005319Y007420D03*
X005319Y007421D03*
X005319Y007422D03*
X005319Y007423D03*
X005319Y007425D03*
X005319Y007426D03*
X005319Y007427D03*
X005319Y007428D03*
X005319Y007429D03*
X005319Y007430D03*
X005319Y007432D03*
X005319Y007433D03*
X005319Y007434D03*
X005319Y007435D03*
X005319Y007436D03*
X005310Y007443D03*
X005310Y007445D03*
X005310Y007446D03*
X005310Y007447D03*
X005310Y007448D03*
X005290Y007484D03*
X005290Y007485D03*
X005279Y007495D03*
X005270Y007505D03*
X005270Y007506D03*
X005260Y007516D03*
X005310Y007570D03*
X005300Y007588D03*
X005280Y007609D03*
X005280Y007610D03*
X005252Y007636D03*
X005206Y007661D03*
X005172Y007670D03*
X005172Y007671D03*
X005172Y007673D03*
X005172Y007674D03*
X005172Y007675D03*
X005172Y007676D03*
X005172Y007677D03*
X005162Y007695D03*
X005142Y007704D03*
X005143Y007656D03*
X005314Y007674D03*
X005314Y007675D03*
X005314Y007676D03*
X005320Y007637D03*
X005585Y007498D03*
X005584Y007366D03*
X005812Y007391D03*
X005812Y007393D03*
X005812Y007394D03*
X005812Y007395D03*
X005813Y007399D03*
X005812Y007423D03*
X005812Y007425D03*
X005812Y007426D03*
X005812Y007427D03*
X005812Y007428D03*
X005812Y007429D03*
X005812Y007430D03*
X005875Y007429D03*
X005875Y007428D03*
X005950Y007451D03*
X005950Y007452D03*
X005950Y007453D03*
X005959Y007433D03*
X005930Y007539D03*
X005930Y007540D03*
X005930Y007541D03*
X005930Y007543D03*
X005930Y007544D03*
X005930Y007545D03*
X005905Y007566D03*
X005885Y007564D03*
X005860Y007567D03*
X005931Y007592D03*
X005931Y007593D03*
X005931Y007596D03*
X005931Y007597D03*
X005931Y007598D03*
X005939Y007616D03*
X005940Y007621D03*
X005940Y007622D03*
X005940Y007623D03*
X005857Y007289D03*
X005812Y007175D03*
X005950Y007152D03*
X005950Y007145D03*
X005950Y007143D03*
X005959Y007168D03*
X005960Y007172D03*
X005388Y007082D03*
D64*
X005446Y007358D03*
X005213Y007358D03*
X005313Y007702D03*
X005313Y007703D03*
X004859Y007765D03*
X004859Y007766D03*
X004844Y007794D03*
X004800Y007595D03*
X004800Y007590D03*
X004800Y007589D03*
X004848Y007357D03*
X004747Y007357D03*
X004200Y007380D03*
X004050Y007058D03*
X004050Y007053D03*
X005920Y007427D03*
D65*
X005373Y007226D03*
X005307Y007511D03*
X005284Y007532D03*
X005316Y007699D03*
X005081Y007715D03*
X005081Y007716D03*
X005052Y007544D03*
X005052Y007543D03*
X004792Y007610D03*
X004840Y007799D03*
X004741Y007057D03*
X004509Y007058D03*
X004407Y007053D03*
X004193Y007053D03*
D66*
X004232Y007054D03*
X004232Y007055D03*
X004232Y007056D03*
X004232Y007057D03*
X004232Y007058D03*
X004232Y007060D03*
X004232Y007061D03*
X004232Y007062D03*
X004232Y007063D03*
X004232Y007064D03*
X004232Y007066D03*
X004232Y007067D03*
X004290Y007057D03*
X004290Y007053D03*
X004152Y007054D03*
X004152Y007055D03*
X004152Y007056D03*
X004085Y007073D03*
X004085Y007074D03*
X004085Y007075D03*
X004085Y007076D03*
X004003Y007060D03*
X004003Y007056D03*
X004017Y007179D03*
X004017Y007180D03*
X004017Y007181D03*
X004017Y007182D03*
X004017Y007184D03*
X004006Y007210D03*
X003974Y007297D03*
X003974Y007301D03*
X003974Y007302D03*
X003974Y007303D03*
X003986Y007329D03*
X004085Y007337D03*
X004085Y007338D03*
X004085Y007340D03*
X004085Y007341D03*
X004095Y007350D03*
X004153Y007380D03*
X004153Y007388D03*
X004153Y007389D03*
X004153Y007416D03*
X004153Y007417D03*
X004153Y007419D03*
X004153Y007420D03*
X004161Y007429D03*
X004221Y007429D03*
X004224Y007428D03*
X004232Y007417D03*
X004232Y007410D03*
X004232Y007409D03*
X004232Y007408D03*
X004232Y007407D03*
X004232Y007406D03*
X004232Y007404D03*
X004232Y007403D03*
X004232Y007402D03*
X004232Y007401D03*
X004232Y007400D03*
X004232Y007399D03*
X004233Y007395D03*
X004233Y007394D03*
X004233Y007391D03*
X004233Y007390D03*
X004232Y007389D03*
X004232Y007312D03*
X004232Y007311D03*
X004232Y007310D03*
X004232Y007309D03*
X004232Y007308D03*
X004152Y007308D03*
X004152Y007309D03*
X004152Y007310D03*
X004152Y007311D03*
X004289Y007486D03*
X004289Y007487D03*
X004525Y007233D03*
X004526Y007232D03*
X004526Y007174D03*
X004526Y007173D03*
X004526Y007172D03*
X004526Y007171D03*
X004526Y007169D03*
X004606Y007156D03*
X004606Y007155D03*
X004606Y007154D03*
X004606Y007153D03*
X004606Y007152D03*
X004608Y007162D03*
X004608Y007164D03*
X004608Y007165D03*
X004608Y007166D03*
X004608Y007167D03*
X004608Y007168D03*
X004608Y007169D03*
X004608Y007171D03*
X004608Y007172D03*
X004608Y007173D03*
X004608Y007174D03*
X004645Y007155D03*
X004645Y007154D03*
X004645Y007153D03*
X004645Y007152D03*
X004645Y007151D03*
X004645Y007149D03*
X004665Y007113D03*
X004702Y007075D03*
X004726Y007179D03*
X004724Y007181D03*
X004724Y007230D03*
X004724Y007231D03*
X004724Y007232D03*
X004724Y007233D03*
X004743Y007260D03*
X004746Y007263D03*
X004747Y007264D03*
X004684Y007321D03*
X004694Y007330D03*
X004711Y007341D03*
X004674Y007310D03*
X004672Y007309D03*
X004597Y007280D03*
X004598Y007276D03*
X004579Y007309D03*
X004569Y007319D03*
X004558Y007330D03*
X004745Y007560D03*
X004752Y007569D03*
X004752Y007570D03*
X004766Y007558D03*
X004763Y007556D03*
X004753Y007590D03*
X004753Y007591D03*
X004753Y007592D03*
X004753Y007593D03*
X004753Y007595D03*
X004753Y007596D03*
X004753Y007597D03*
X004753Y007598D03*
X004753Y007599D03*
X004753Y007603D03*
X004753Y007604D03*
X004772Y007635D03*
X004774Y007636D03*
X004895Y007623D03*
X004812Y007754D03*
X004812Y007755D03*
X004812Y007756D03*
X004812Y007758D03*
X004812Y007759D03*
X004812Y007760D03*
X004812Y007761D03*
X004812Y007762D03*
X004812Y007764D03*
X004812Y007765D03*
X004812Y007766D03*
X004812Y007767D03*
X004812Y007768D03*
X004813Y007775D03*
X004813Y007777D03*
X004813Y007780D03*
X004813Y007781D03*
X004813Y007782D03*
X004813Y007784D03*
X004813Y007785D03*
X004813Y007786D03*
X004820Y007811D03*
X004821Y007812D03*
X004848Y007816D03*
X004880Y007804D03*
X004883Y007803D03*
X004891Y007793D03*
X005069Y007537D03*
X005117Y007456D03*
X005243Y007530D03*
X005243Y007531D03*
X005256Y007517D03*
X005265Y007507D03*
X005272Y007501D03*
X005276Y007497D03*
X005283Y007488D03*
X005284Y007487D03*
X005304Y007458D03*
X005326Y007458D03*
X005326Y007459D03*
X005326Y007456D03*
X005326Y007455D03*
X005326Y007454D03*
X005326Y007453D03*
X005324Y007448D03*
X005334Y007485D03*
X005334Y007499D03*
X005334Y007500D03*
X005316Y007554D03*
X005316Y007556D03*
X005316Y007557D03*
X005316Y007558D03*
X005317Y007560D03*
X005317Y007563D03*
X005316Y007564D03*
X005304Y007585D03*
X005297Y007595D03*
X005287Y007605D03*
X005285Y007606D03*
X005277Y007614D03*
X005277Y007615D03*
X005277Y007616D03*
X005268Y007624D03*
X005248Y007644D03*
X005247Y007645D03*
X005209Y007666D03*
X005198Y007675D03*
X005255Y007714D03*
X005272Y007695D03*
X005283Y007686D03*
X005284Y007684D03*
X005293Y007676D03*
X005294Y007675D03*
X005295Y007674D03*
X005303Y007666D03*
X005304Y007664D03*
X005327Y007657D03*
X005334Y007673D03*
X005334Y007674D03*
X005334Y007675D03*
X005335Y007676D03*
X005335Y007677D03*
X005335Y007679D03*
X005335Y007680D03*
X005335Y007681D03*
X005335Y007682D03*
X005335Y007683D03*
X005335Y007684D03*
X005335Y007686D03*
X005335Y007721D03*
X005335Y007722D03*
X005335Y007723D03*
X005196Y007565D03*
X005028Y007438D03*
X005019Y007360D03*
X005019Y007358D03*
X005019Y007357D03*
X005019Y007356D03*
X005019Y007355D03*
X005019Y007354D03*
X005019Y007353D03*
X005019Y007351D03*
X005019Y007350D03*
X005019Y007349D03*
X005019Y007348D03*
X005019Y007347D03*
X005019Y007345D03*
X005019Y007344D03*
X005019Y007343D03*
X005019Y007342D03*
X005019Y007341D03*
X005019Y007340D03*
X005019Y007338D03*
X005019Y007337D03*
X005019Y007336D03*
X005019Y007335D03*
X005019Y007334D03*
X005019Y007332D03*
X005019Y007331D03*
X005019Y007330D03*
X005019Y007329D03*
X005019Y007328D03*
X005019Y007327D03*
X005019Y007325D03*
X005019Y007324D03*
X005019Y007323D03*
X005019Y007322D03*
X005019Y007321D03*
X005019Y007319D03*
X005019Y007318D03*
X005019Y007317D03*
X005019Y007316D03*
X005019Y007315D03*
X005019Y007314D03*
X005019Y007312D03*
X005019Y007311D03*
X005019Y007310D03*
X005019Y007309D03*
X005019Y007308D03*
X005019Y007306D03*
X005019Y007305D03*
X005019Y007304D03*
X005019Y007303D03*
X005019Y007302D03*
X005019Y007301D03*
X005019Y007299D03*
X005019Y007298D03*
X005019Y007297D03*
X005019Y007296D03*
X005019Y007295D03*
X005019Y007293D03*
X005019Y007292D03*
X005019Y007291D03*
X005019Y007290D03*
X005019Y007289D03*
X005019Y007288D03*
X005019Y007286D03*
X005019Y007285D03*
X005019Y007284D03*
X005019Y007283D03*
X005019Y007282D03*
X005019Y007280D03*
X005019Y007279D03*
X005019Y007278D03*
X005019Y007277D03*
X005019Y007276D03*
X005019Y007275D03*
X005019Y007273D03*
X005019Y007272D03*
X005019Y007271D03*
X005019Y007270D03*
X005019Y007269D03*
X005019Y007267D03*
X005019Y007266D03*
X005019Y007265D03*
X005019Y007264D03*
X005019Y007263D03*
X005019Y007262D03*
X005019Y007260D03*
X005019Y007259D03*
X005019Y007258D03*
X005019Y007257D03*
X005019Y007256D03*
X005019Y007254D03*
X005019Y007253D03*
X005019Y007252D03*
X005019Y007251D03*
X005019Y007250D03*
X005019Y007249D03*
X005019Y007247D03*
X005019Y007246D03*
X005019Y007245D03*
X005019Y007244D03*
X005019Y007243D03*
X005019Y007241D03*
X005019Y007240D03*
X005019Y007239D03*
X005019Y007238D03*
X005019Y007237D03*
X005019Y007236D03*
X005019Y007234D03*
X005019Y007233D03*
X005019Y007232D03*
X005019Y007231D03*
X005019Y007230D03*
X005019Y007229D03*
X005019Y007227D03*
X005019Y007226D03*
X005019Y007225D03*
X005019Y007224D03*
X005019Y007223D03*
X005019Y007221D03*
X005019Y007220D03*
X005019Y007219D03*
X005019Y007218D03*
X005019Y007217D03*
X005019Y007216D03*
X005019Y007214D03*
X005019Y007213D03*
X005019Y007212D03*
X005019Y007211D03*
X005019Y007210D03*
X005019Y007208D03*
X005019Y007207D03*
X005019Y007206D03*
X005019Y007205D03*
X005019Y007204D03*
X005019Y007203D03*
X005019Y007201D03*
X005019Y007200D03*
X005019Y007199D03*
X005019Y007198D03*
X005019Y007197D03*
X005019Y007195D03*
X005019Y007194D03*
X005019Y007193D03*
X005019Y007192D03*
X005019Y007191D03*
X005019Y007190D03*
X005019Y007188D03*
X005019Y007187D03*
X005019Y007186D03*
X005019Y007185D03*
X005019Y007184D03*
X005019Y007182D03*
X005019Y007181D03*
X005019Y007180D03*
X005019Y007179D03*
X005019Y007178D03*
X005019Y007177D03*
X005019Y007175D03*
X005019Y007174D03*
X005019Y007173D03*
X005019Y007172D03*
X005019Y007171D03*
X005019Y007169D03*
X005019Y007168D03*
X005019Y007167D03*
X005019Y007166D03*
X005019Y007165D03*
X005019Y007164D03*
X005019Y007162D03*
X005019Y007161D03*
X005019Y007160D03*
X005019Y007159D03*
X005019Y007158D03*
X005019Y007156D03*
X005019Y007155D03*
X005019Y007154D03*
X005019Y007153D03*
X005019Y007152D03*
X005019Y007151D03*
X005019Y007149D03*
X005019Y007148D03*
X005019Y007147D03*
X005019Y007146D03*
X005019Y007145D03*
X005019Y007143D03*
X005019Y007142D03*
X005019Y007141D03*
X005019Y007140D03*
X005019Y007139D03*
X005019Y007138D03*
X005019Y007136D03*
X005019Y007135D03*
X005019Y007134D03*
X005019Y007133D03*
X005019Y007132D03*
X005019Y007130D03*
X005019Y007129D03*
X005019Y007128D03*
X005019Y007127D03*
X005019Y007126D03*
X005019Y007125D03*
X005019Y007123D03*
X005019Y007122D03*
X005019Y007121D03*
X005019Y007120D03*
X005019Y007119D03*
X005019Y007117D03*
X005019Y007116D03*
X005019Y007115D03*
X005019Y007114D03*
X005019Y007113D03*
X005019Y007112D03*
X005019Y007110D03*
X005019Y007109D03*
X005019Y007108D03*
X005019Y007107D03*
X005019Y007106D03*
X005019Y007104D03*
X005019Y007103D03*
X005019Y007102D03*
X005019Y007101D03*
X005019Y007100D03*
X005019Y007099D03*
X005019Y007097D03*
X005019Y007096D03*
X005019Y007095D03*
X005019Y007094D03*
X005019Y007093D03*
X005019Y007091D03*
X005019Y007090D03*
X005019Y007089D03*
X005019Y007088D03*
X005019Y007087D03*
X005019Y007086D03*
X005019Y007084D03*
X005019Y007083D03*
X005019Y007082D03*
X005019Y007081D03*
X005019Y007080D03*
X005019Y007079D03*
X005019Y007077D03*
X005019Y007076D03*
X005019Y007075D03*
X005019Y007074D03*
X005019Y007073D03*
X005019Y007071D03*
X005019Y007070D03*
X005019Y007069D03*
X005019Y007068D03*
X005019Y007067D03*
X005019Y007066D03*
X005019Y007064D03*
X005019Y007063D03*
X005019Y007062D03*
X005019Y007061D03*
X005019Y007060D03*
X005019Y007058D03*
X005019Y007057D03*
X005019Y007056D03*
X005019Y007055D03*
X005019Y007054D03*
X005099Y007054D03*
X005099Y007055D03*
X005216Y007055D03*
X005216Y007056D03*
X005216Y007054D03*
X005296Y007054D03*
X005296Y007055D03*
X005296Y007056D03*
X005296Y007057D03*
X005296Y007058D03*
X005296Y007060D03*
X005296Y007061D03*
X005296Y007062D03*
X005296Y007063D03*
X005296Y007064D03*
X005296Y007066D03*
X005296Y007067D03*
X005296Y007068D03*
X005296Y007069D03*
X005296Y007070D03*
X005296Y007071D03*
X005296Y007073D03*
X005296Y007074D03*
X005296Y007075D03*
X005296Y007076D03*
X005296Y007077D03*
X005296Y007079D03*
X005296Y007080D03*
X005296Y007081D03*
X005296Y007082D03*
X005296Y007083D03*
X005296Y007084D03*
X005296Y007086D03*
X005296Y007087D03*
X005296Y007088D03*
X005296Y007089D03*
X005296Y007090D03*
X005296Y007091D03*
X005296Y007093D03*
X005296Y007094D03*
X005296Y007095D03*
X005296Y007096D03*
X005296Y007097D03*
X005296Y007099D03*
X005296Y007100D03*
X005296Y007101D03*
X005296Y007102D03*
X005296Y007103D03*
X005296Y007104D03*
X005296Y007106D03*
X005296Y007107D03*
X005296Y007108D03*
X005296Y007109D03*
X005296Y007110D03*
X005296Y007112D03*
X005296Y007113D03*
X005296Y007114D03*
X005296Y007115D03*
X005296Y007116D03*
X005296Y007117D03*
X005296Y007119D03*
X005296Y007120D03*
X005296Y007121D03*
X005296Y007122D03*
X005296Y007123D03*
X005296Y007125D03*
X005296Y007126D03*
X005296Y007127D03*
X005296Y007128D03*
X005296Y007129D03*
X005296Y007130D03*
X005296Y007132D03*
X005296Y007133D03*
X005296Y007134D03*
X005296Y007135D03*
X005296Y007136D03*
X005296Y007138D03*
X005296Y007139D03*
X005296Y007140D03*
X005296Y007141D03*
X005296Y007142D03*
X005296Y007143D03*
X005296Y007145D03*
X005296Y007146D03*
X005296Y007147D03*
X005296Y007148D03*
X005296Y007149D03*
X005296Y007151D03*
X005296Y007152D03*
X005296Y007153D03*
X005296Y007154D03*
X005296Y007155D03*
X005296Y007156D03*
X005296Y007158D03*
X005296Y007159D03*
X005296Y007160D03*
X005296Y007161D03*
X005296Y007162D03*
X005296Y007164D03*
X005296Y007165D03*
X005296Y007166D03*
X005296Y007167D03*
X005296Y007168D03*
X005296Y007169D03*
X005296Y007171D03*
X005296Y007172D03*
X005296Y007173D03*
X005296Y007174D03*
X005296Y007175D03*
X005296Y007177D03*
X005296Y007178D03*
X005296Y007179D03*
X005296Y007180D03*
X005296Y007181D03*
X005296Y007182D03*
X005296Y007184D03*
X005296Y007185D03*
X005296Y007186D03*
X005296Y007187D03*
X005296Y007188D03*
X005296Y007190D03*
X005296Y007191D03*
X005296Y007192D03*
X005296Y007193D03*
X005296Y007194D03*
X005296Y007195D03*
X005296Y007197D03*
X005296Y007198D03*
X005296Y007199D03*
X005296Y007200D03*
X005296Y007201D03*
X005296Y007203D03*
X005296Y007204D03*
X005296Y007220D03*
X005296Y007221D03*
X005296Y007223D03*
X005296Y007224D03*
X005297Y007229D03*
X005297Y007230D03*
X005295Y007263D03*
X005295Y007264D03*
X005295Y007265D03*
X005295Y007266D03*
X005295Y007267D03*
X005295Y007269D03*
X005295Y007270D03*
X005295Y007272D03*
X005295Y007273D03*
X005285Y007298D03*
X005285Y007299D03*
X005285Y007301D03*
X005285Y007302D03*
X005276Y007319D03*
X005268Y007329D03*
X005258Y007338D03*
X005257Y007340D03*
X005255Y007341D03*
X005354Y007290D03*
X005343Y007262D03*
X005343Y007260D03*
X005335Y007233D03*
X005335Y007231D03*
X005335Y007230D03*
X005335Y007229D03*
X005335Y007227D03*
X005334Y007184D03*
X005335Y007180D03*
X005335Y007179D03*
X005335Y007178D03*
X005371Y007097D03*
X005373Y007094D03*
X005380Y007088D03*
X005381Y007087D03*
X005382Y007084D03*
X005384Y007083D03*
X005425Y007160D03*
X005425Y007161D03*
X005425Y007162D03*
X005425Y007164D03*
X005425Y007165D03*
X005414Y007220D03*
X005414Y007221D03*
X005414Y007223D03*
X005414Y007224D03*
X005402Y007341D03*
X005550Y007262D03*
X005580Y007379D03*
X005580Y007380D03*
X005580Y007381D03*
X005580Y007383D03*
X005580Y007384D03*
X005580Y007386D03*
X005580Y007387D03*
X005580Y007388D03*
X005580Y007389D03*
X005580Y007390D03*
X005580Y007391D03*
X005580Y007393D03*
X005580Y007394D03*
X005580Y007395D03*
X005580Y007396D03*
X005580Y007397D03*
X005580Y007399D03*
X005580Y007400D03*
X005580Y007401D03*
X005580Y007402D03*
X005580Y007403D03*
X005580Y007404D03*
X005580Y007406D03*
X005580Y007407D03*
X005580Y007408D03*
X005580Y007409D03*
X005580Y007410D03*
X005580Y007412D03*
X005580Y007413D03*
X005580Y007414D03*
X005580Y007415D03*
X005580Y007416D03*
X005580Y007417D03*
X005580Y007419D03*
X005580Y007420D03*
X005580Y007421D03*
X005580Y007422D03*
X005580Y007423D03*
X005580Y007425D03*
X005580Y007426D03*
X005580Y007427D03*
X005580Y007428D03*
X005580Y007429D03*
X005580Y007430D03*
X005580Y007432D03*
X005580Y007433D03*
X005580Y007434D03*
X005580Y007435D03*
X005580Y007436D03*
X005580Y007438D03*
X005580Y007439D03*
X005580Y007440D03*
X005580Y007441D03*
X005580Y007442D03*
X005580Y007443D03*
X005580Y007445D03*
X005580Y007446D03*
X005580Y007447D03*
X005580Y007448D03*
X005580Y007449D03*
X005580Y007451D03*
X005580Y007452D03*
X005580Y007453D03*
X005580Y007454D03*
X005580Y007455D03*
X005580Y007456D03*
X005580Y007458D03*
X005580Y007459D03*
X005580Y007460D03*
X005580Y007461D03*
X005580Y007462D03*
X005580Y007464D03*
X005580Y007465D03*
X005580Y007466D03*
X005580Y007467D03*
X005580Y007468D03*
X005580Y007469D03*
X005580Y007471D03*
X005580Y007472D03*
X005580Y007473D03*
X005580Y007474D03*
X005580Y007475D03*
X005580Y007477D03*
X005580Y007478D03*
X005580Y007479D03*
X005580Y007480D03*
X005580Y007481D03*
X005580Y007482D03*
X005580Y007484D03*
X005580Y007485D03*
X005580Y007486D03*
X005580Y007487D03*
X005660Y007487D03*
X005660Y007486D03*
X005660Y007485D03*
X005660Y007484D03*
X005660Y007482D03*
X005660Y007481D03*
X005660Y007480D03*
X005660Y007479D03*
X005660Y007478D03*
X005660Y007477D03*
X005660Y007475D03*
X005660Y007474D03*
X005660Y007473D03*
X005660Y007472D03*
X005660Y007471D03*
X005660Y007469D03*
X005660Y007468D03*
X005660Y007467D03*
X005660Y007466D03*
X005660Y007465D03*
X005660Y007464D03*
X005660Y007462D03*
X005660Y007461D03*
X005660Y007460D03*
X005660Y007459D03*
X005660Y007458D03*
X005660Y007456D03*
X005660Y007455D03*
X005660Y007454D03*
X005660Y007453D03*
X005660Y007452D03*
X005660Y007451D03*
X005660Y007449D03*
X005660Y007448D03*
X005660Y007447D03*
X005660Y007446D03*
X005660Y007445D03*
X005660Y007443D03*
X005660Y007442D03*
X005660Y007441D03*
X005660Y007440D03*
X005660Y007439D03*
X005660Y007438D03*
X005660Y007436D03*
X005660Y007435D03*
X005660Y007434D03*
X005660Y007433D03*
X005660Y007432D03*
X005660Y007430D03*
X005660Y007429D03*
X005660Y007428D03*
X005815Y007422D03*
X005815Y007421D03*
X005815Y007420D03*
X005815Y007419D03*
X005815Y007417D03*
X005815Y007435D03*
X005815Y007436D03*
X005815Y007438D03*
X005815Y007439D03*
X005834Y007448D03*
X005947Y007456D03*
X005947Y007458D03*
X005954Y007448D03*
X005955Y007447D03*
X005956Y007446D03*
X005956Y007443D03*
X005965Y007428D03*
X005975Y007409D03*
X005967Y007282D03*
X005986Y007269D03*
X005985Y007233D03*
X005985Y007232D03*
X005985Y007231D03*
X005985Y007230D03*
X005966Y007174D03*
X005943Y007174D03*
X005943Y007173D03*
X005943Y007172D03*
X005943Y007175D03*
X005826Y007155D03*
X005826Y007154D03*
X005826Y007153D03*
X005826Y007152D03*
X005826Y007151D03*
X005828Y007148D03*
X005828Y007147D03*
X005828Y007146D03*
X005828Y007145D03*
X005828Y007143D03*
X005828Y007142D03*
X005819Y007168D03*
X005819Y007169D03*
X005809Y007178D03*
X005809Y007179D03*
X005809Y007180D03*
X005809Y007181D03*
X005835Y007284D03*
X005835Y007285D03*
X005835Y007286D03*
X005835Y007288D03*
X005835Y007289D03*
X005835Y007290D03*
X005660Y007056D03*
X005660Y007055D03*
X005660Y007054D03*
X005216Y007229D03*
X005216Y007230D03*
X005216Y007231D03*
X005216Y007232D03*
X005216Y007233D03*
X005216Y007234D03*
X005099Y007234D03*
X005099Y007233D03*
X005099Y007232D03*
X005099Y007236D03*
X005099Y007237D03*
X005099Y007238D03*
X005099Y007239D03*
X005099Y007240D03*
X005099Y007241D03*
X005099Y007243D03*
X004882Y007223D03*
X004882Y007221D03*
X004882Y007220D03*
X004882Y007219D03*
X004882Y007218D03*
X004882Y007217D03*
X004882Y007216D03*
X004882Y007214D03*
X004882Y007213D03*
X004882Y007212D03*
X004882Y007211D03*
X004882Y007210D03*
X004882Y007208D03*
X004882Y007207D03*
X004882Y007206D03*
X004882Y007205D03*
X004882Y007204D03*
X004882Y007203D03*
X004882Y007201D03*
X004882Y007200D03*
X004882Y007199D03*
X004882Y007198D03*
X004882Y007197D03*
X004882Y007195D03*
X004882Y007194D03*
X004882Y007193D03*
X004882Y007192D03*
X004882Y007191D03*
X004882Y007190D03*
X004882Y007188D03*
X004880Y007186D03*
X004880Y007185D03*
X004880Y007184D03*
X004880Y007182D03*
X004880Y007181D03*
X004587Y007114D03*
X004586Y007113D03*
X004578Y007104D03*
X004578Y007103D03*
X004578Y007102D03*
X004548Y007075D03*
X004547Y007073D03*
X004369Y007212D03*
X004369Y007213D03*
X004369Y007214D03*
X004369Y007216D03*
X003847Y007058D03*
X003846Y007055D03*
X003846Y007054D03*
X005856Y007566D03*
X005874Y007577D03*
X005902Y007596D03*
D67*
X005895Y007595D03*
X005862Y007460D03*
X005502Y007058D03*
X005187Y007569D03*
X005218Y007664D03*
X005202Y007669D03*
X005034Y007716D03*
X004975Y007712D03*
X004975Y007710D03*
X004965Y007701D03*
X004964Y007699D03*
X004883Y007773D03*
X004844Y007754D03*
X004847Y007826D03*
X004847Y007827D03*
X004793Y007058D03*
X004321Y007058D03*
X004321Y007053D03*
D68*
X004458Y007053D03*
X004458Y007057D03*
X004792Y007053D03*
X005083Y007438D03*
X004872Y007615D03*
X004877Y007707D03*
X004876Y007771D03*
X004843Y007778D03*
X004847Y007829D03*
X004847Y007830D03*
X004975Y007713D03*
X005092Y007682D03*
X005092Y007681D03*
X005092Y007680D03*
X005319Y007656D03*
X005305Y007500D03*
X005502Y007053D03*
X005836Y007427D03*
X005836Y007430D03*
X004224Y007328D03*
X004216Y007322D03*
X004192Y007425D03*
X004192Y007426D03*
X004192Y007430D03*
D69*
X004495Y007360D03*
X004505Y007055D03*
X004504Y007053D03*
X004747Y007053D03*
X005122Y007361D03*
X004919Y007625D03*
X004879Y007617D03*
X004879Y007616D03*
X004865Y007703D03*
X004889Y007774D03*
X004791Y007585D03*
X004791Y007584D03*
X005189Y007654D03*
X005189Y007655D03*
X005189Y007656D03*
X005189Y007657D03*
X005189Y007658D03*
X005849Y007456D03*
X005849Y007455D03*
X005854Y007417D03*
X005909Y007460D03*
X005961Y007415D03*
X005961Y007414D03*
X005913Y007575D03*
X005913Y007576D03*
X005913Y007577D03*
X005549Y007054D03*
X005548Y007053D03*
D70*
X005618Y007053D03*
X005619Y007058D03*
X005450Y007053D03*
X005307Y007507D03*
X005307Y007508D03*
X005307Y007510D03*
X005317Y007696D03*
X005317Y007697D03*
X004840Y007800D03*
X004840Y007801D03*
X004840Y007803D03*
X004844Y007053D03*
X004742Y007056D03*
X004510Y007056D03*
X004510Y007057D03*
X004406Y007054D03*
D71*
X004567Y007177D03*
X004845Y007054D03*
X005059Y007053D03*
X005256Y007053D03*
X005256Y007236D03*
X005115Y007358D03*
X005052Y007545D03*
X005052Y007546D03*
X004893Y007694D03*
X004854Y007608D03*
X004839Y007804D03*
X005317Y007695D03*
X005317Y007694D03*
X005317Y007693D03*
X005622Y007423D03*
X005450Y007054D03*
D72*
X005847Y007293D03*
X005826Y007403D03*
X005826Y007404D03*
X005826Y007406D03*
X005910Y007456D03*
X005910Y007458D03*
X005954Y007181D03*
X005954Y007180D03*
X005954Y007179D03*
X005315Y007467D03*
X005315Y007468D03*
X005186Y007680D03*
X005186Y007681D03*
X005186Y007682D03*
X005108Y007686D03*
X005108Y007687D03*
X005108Y007688D03*
X005108Y007689D03*
X004841Y007689D03*
X004325Y007487D03*
X004192Y007447D03*
X004188Y007310D03*
X004188Y007309D03*
X003882Y007055D03*
X003882Y007054D03*
D73*
X004188Y007306D03*
X004165Y007323D03*
X004219Y007325D03*
X004504Y007054D03*
X004747Y007054D03*
X005028Y007630D03*
X004975Y007706D03*
X004912Y007717D03*
X004912Y007719D03*
X004912Y007720D03*
X004912Y007721D03*
X004910Y007714D03*
X005914Y007572D03*
D74*
X005619Y007057D03*
X005618Y007054D03*
X005551Y007058D03*
X005253Y007226D03*
X004792Y007609D03*
X004838Y007805D03*
X005318Y007691D03*
X004564Y007167D03*
D75*
X004674Y007181D03*
X004674Y007232D03*
X004694Y007254D03*
X004693Y007256D03*
X004935Y007061D03*
X005244Y007267D03*
X005045Y007540D03*
X005034Y007550D03*
X005034Y007551D03*
X005034Y007552D03*
X005202Y007640D03*
X005309Y007710D03*
X005900Y007580D03*
X005900Y007579D03*
X005949Y007211D03*
X005949Y007210D03*
X005949Y007208D03*
X005949Y007207D03*
X004398Y007055D03*
X004188Y007432D03*
X004188Y007433D03*
X004188Y007434D03*
X004188Y007435D03*
X004188Y007436D03*
D76*
X004189Y007438D03*
X004504Y007355D03*
X004675Y007230D03*
X004677Y007185D03*
X004675Y007182D03*
X004747Y007355D03*
X004799Y007371D03*
X004799Y007373D03*
X004799Y007374D03*
X004799Y007375D03*
X004848Y007355D03*
X004851Y007055D03*
X005213Y007355D03*
X005301Y007521D03*
X005446Y007356D03*
X005496Y007376D03*
X005803Y007087D03*
X004879Y007680D03*
D77*
X004843Y007795D03*
X004799Y007588D03*
X004848Y007358D03*
X004747Y007358D03*
X004504Y007358D03*
X005062Y007361D03*
X005280Y007540D03*
X005311Y007506D03*
X005312Y007505D03*
X005313Y007701D03*
X005838Y007410D03*
X005920Y007432D03*
X005446Y007055D03*
D78*
X005550Y007055D03*
X005456Y007361D03*
X005203Y007361D03*
X005119Y007360D03*
X005023Y007556D03*
X004851Y007606D03*
X004889Y007690D03*
X004865Y007701D03*
X004889Y007777D03*
X005190Y007650D03*
X004839Y007361D03*
X004758Y007361D03*
X004494Y007361D03*
X004413Y007361D03*
X004326Y007482D03*
X004188Y007312D03*
X005849Y007454D03*
X005910Y007453D03*
X005859Y007549D03*
X005919Y007601D03*
X005919Y007602D03*
X005919Y007603D03*
X005950Y007182D03*
D79*
X005955Y007178D03*
X005910Y007455D03*
X005910Y007459D03*
X005892Y007563D03*
X005897Y007590D03*
X005314Y007466D03*
X005314Y007465D03*
X005314Y007464D03*
X005187Y007679D03*
X005049Y007704D03*
X005029Y007632D03*
X005029Y007631D03*
X005039Y007525D03*
X005039Y007524D03*
X005039Y007523D03*
X005039Y007521D03*
X005039Y007520D03*
X005039Y007519D03*
X004920Y007627D03*
X004887Y007695D03*
X004912Y007715D03*
X004912Y007716D03*
X004326Y007488D03*
X004326Y007486D03*
X004326Y007485D03*
X004188Y007311D03*
X004188Y007308D03*
X004164Y007325D03*
X003883Y007057D03*
X003883Y007056D03*
D80*
X004180Y007060D03*
X004180Y007061D03*
X004180Y007062D03*
X004397Y007056D03*
X004554Y007166D03*
X004674Y007180D03*
X004674Y007233D03*
X004853Y007057D03*
X004853Y007056D03*
X004934Y007062D03*
X004934Y007184D03*
X004934Y007185D03*
X004934Y007186D03*
X004934Y007187D03*
X004934Y007216D03*
X004934Y007217D03*
X004934Y007218D03*
X004934Y007219D03*
X004934Y007220D03*
X005071Y007220D03*
X005071Y007219D03*
X005071Y007218D03*
X005071Y007217D03*
X005071Y007216D03*
X005071Y007214D03*
X005071Y007213D03*
X005071Y007212D03*
X005071Y007211D03*
X005071Y007210D03*
X005071Y007208D03*
X005071Y007207D03*
X005071Y007206D03*
X005071Y007205D03*
X005071Y007204D03*
X005071Y007203D03*
X005071Y007201D03*
X005071Y007200D03*
X005071Y007199D03*
X005071Y007198D03*
X005071Y007197D03*
X005071Y007195D03*
X005071Y007194D03*
X005071Y007193D03*
X005071Y007192D03*
X005071Y007191D03*
X005071Y007190D03*
X005071Y007188D03*
X005071Y007187D03*
X005071Y007186D03*
X005071Y007185D03*
X005071Y007184D03*
X005071Y007182D03*
X005071Y007181D03*
X005071Y007180D03*
X005071Y007179D03*
X005071Y007178D03*
X005071Y007177D03*
X005071Y007175D03*
X005071Y007174D03*
X005071Y007173D03*
X005071Y007172D03*
X005071Y007171D03*
X005071Y007169D03*
X005071Y007168D03*
X005071Y007167D03*
X005071Y007166D03*
X005071Y007165D03*
X005071Y007164D03*
X005071Y007162D03*
X005071Y007161D03*
X005071Y007160D03*
X005071Y007159D03*
X005071Y007158D03*
X005071Y007156D03*
X005071Y007155D03*
X005071Y007154D03*
X005071Y007153D03*
X005071Y007152D03*
X005071Y007151D03*
X005071Y007149D03*
X005071Y007148D03*
X005071Y007147D03*
X005071Y007146D03*
X005071Y007145D03*
X005071Y007143D03*
X005071Y007142D03*
X005071Y007141D03*
X005071Y007140D03*
X005071Y007139D03*
X005071Y007138D03*
X005071Y007136D03*
X005071Y007135D03*
X005071Y007134D03*
X005071Y007133D03*
X005071Y007132D03*
X005071Y007130D03*
X005071Y007129D03*
X005071Y007128D03*
X005071Y007127D03*
X005071Y007126D03*
X005071Y007125D03*
X005071Y007123D03*
X005071Y007122D03*
X005071Y007121D03*
X005071Y007120D03*
X005071Y007119D03*
X005071Y007117D03*
X005071Y007116D03*
X005071Y007115D03*
X005071Y007114D03*
X005071Y007113D03*
X005071Y007112D03*
X005071Y007110D03*
X005071Y007109D03*
X005071Y007108D03*
X005071Y007107D03*
X005071Y007106D03*
X005071Y007104D03*
X005071Y007103D03*
X005071Y007102D03*
X005071Y007101D03*
X005071Y007100D03*
X005071Y007099D03*
X005071Y007097D03*
X005071Y007096D03*
X005071Y007095D03*
X005071Y007094D03*
X005071Y007093D03*
X005071Y007091D03*
X005071Y007090D03*
X005071Y007089D03*
X005071Y007088D03*
X005071Y007087D03*
X005071Y007086D03*
X005071Y007084D03*
X005071Y007083D03*
X005071Y007082D03*
X005071Y007081D03*
X005071Y007080D03*
X005071Y007079D03*
X005071Y007077D03*
X005071Y007076D03*
X005071Y007075D03*
X005071Y007074D03*
X005071Y007073D03*
X005071Y007071D03*
X005071Y007070D03*
X005071Y007069D03*
X005071Y007068D03*
X005071Y007067D03*
X005071Y007066D03*
X005071Y007064D03*
X005071Y007063D03*
X005071Y007062D03*
X005071Y007061D03*
X005071Y007060D03*
X005071Y007221D03*
X005071Y007223D03*
X005071Y007224D03*
X005071Y007225D03*
X005071Y007226D03*
X005071Y007246D03*
X005071Y007247D03*
X005243Y007266D03*
X005244Y007221D03*
X005244Y007220D03*
X005244Y007204D03*
X005244Y007203D03*
X005244Y007201D03*
X005244Y007195D03*
X005244Y007194D03*
X005244Y007193D03*
X005244Y007192D03*
X005244Y007191D03*
X005244Y007190D03*
X005244Y007188D03*
X005244Y007187D03*
X005244Y007186D03*
X005244Y007185D03*
X005244Y007184D03*
X005244Y007182D03*
X005244Y007181D03*
X005244Y007180D03*
X005244Y007179D03*
X005244Y007178D03*
X005244Y007177D03*
X005244Y007175D03*
X005244Y007174D03*
X005244Y007173D03*
X005244Y007172D03*
X005244Y007171D03*
X005244Y007169D03*
X005244Y007168D03*
X005244Y007167D03*
X005244Y007166D03*
X005244Y007165D03*
X005244Y007164D03*
X005244Y007162D03*
X005244Y007161D03*
X005244Y007160D03*
X005244Y007159D03*
X005244Y007158D03*
X005244Y007156D03*
X005244Y007155D03*
X005244Y007154D03*
X005244Y007153D03*
X005244Y007152D03*
X005244Y007151D03*
X005244Y007149D03*
X005244Y007148D03*
X005244Y007147D03*
X005244Y007146D03*
X005244Y007145D03*
X005244Y007143D03*
X005244Y007142D03*
X005244Y007141D03*
X005244Y007140D03*
X005244Y007139D03*
X005244Y007138D03*
X005244Y007136D03*
X005244Y007135D03*
X005244Y007134D03*
X005244Y007133D03*
X005244Y007132D03*
X005244Y007130D03*
X005244Y007129D03*
X005244Y007128D03*
X005244Y007127D03*
X005244Y007126D03*
X005244Y007125D03*
X005244Y007123D03*
X005244Y007122D03*
X005244Y007121D03*
X005244Y007120D03*
X005244Y007119D03*
X005244Y007117D03*
X005244Y007116D03*
X005244Y007115D03*
X005244Y007114D03*
X005244Y007113D03*
X005244Y007112D03*
X005244Y007110D03*
X005244Y007109D03*
X005244Y007108D03*
X005244Y007107D03*
X005244Y007106D03*
X005244Y007104D03*
X005244Y007103D03*
X005244Y007102D03*
X005244Y007101D03*
X005244Y007100D03*
X005244Y007099D03*
X005244Y007097D03*
X005244Y007096D03*
X005244Y007095D03*
X005244Y007094D03*
X005244Y007093D03*
X005244Y007091D03*
X005244Y007090D03*
X005244Y007089D03*
X005244Y007088D03*
X005244Y007087D03*
X005244Y007086D03*
X005244Y007084D03*
X005244Y007083D03*
X005244Y007082D03*
X005244Y007081D03*
X005244Y007080D03*
X005244Y007079D03*
X005244Y007077D03*
X005244Y007076D03*
X005244Y007075D03*
X005244Y007074D03*
X005244Y007073D03*
X005244Y007071D03*
X005244Y007070D03*
X005244Y007069D03*
X005244Y007068D03*
X005244Y007067D03*
X005244Y007066D03*
X005244Y007064D03*
X005244Y007063D03*
X005244Y007062D03*
X005244Y007061D03*
X005362Y007199D03*
X005362Y007200D03*
X005362Y007201D03*
X005362Y007203D03*
X005362Y007204D03*
X005362Y007220D03*
X005362Y007221D03*
X005362Y007223D03*
X005362Y007224D03*
X005062Y007434D03*
X005203Y007637D03*
X005308Y007713D03*
X005297Y007529D03*
X005046Y007723D03*
X004840Y007788D03*
X004317Y007480D03*
X004318Y007449D03*
X004318Y007448D03*
X004318Y007447D03*
X004318Y007446D03*
X004318Y007445D03*
X004318Y007443D03*
X004318Y007442D03*
X004318Y007441D03*
X004318Y007440D03*
X004318Y007439D03*
X004318Y007438D03*
X004318Y007436D03*
X004318Y007435D03*
X004318Y007434D03*
X004318Y007433D03*
X004318Y007432D03*
X004318Y007430D03*
X004318Y007429D03*
X004318Y007428D03*
X004318Y007380D03*
X004318Y007379D03*
X004180Y007394D03*
X004180Y007395D03*
X005632Y007394D03*
X005632Y007395D03*
X005632Y007396D03*
X005632Y007397D03*
X005632Y007399D03*
X005632Y007400D03*
X005632Y007401D03*
X005632Y007402D03*
X005632Y007403D03*
X005632Y007404D03*
X005632Y007406D03*
X005632Y007407D03*
X005632Y007408D03*
X005632Y007409D03*
X005632Y007410D03*
X005632Y007412D03*
X005632Y007413D03*
X005632Y007414D03*
X005632Y007415D03*
X005632Y007416D03*
X005632Y007417D03*
X005632Y007419D03*
X005632Y007420D03*
X005632Y007421D03*
X005632Y007422D03*
X005632Y007393D03*
X005632Y007391D03*
X005632Y007390D03*
X005632Y007389D03*
X005632Y007388D03*
X005632Y007387D03*
X005632Y007386D03*
X005632Y007384D03*
X005632Y007383D03*
X005632Y007382D03*
X005632Y007381D03*
X005632Y007380D03*
X005632Y007379D03*
X005632Y007377D03*
X005632Y007376D03*
X005632Y007375D03*
X005632Y007374D03*
X005632Y007373D03*
X005632Y007371D03*
X005632Y007370D03*
X005632Y007369D03*
X005632Y007368D03*
X005933Y007232D03*
X005933Y007231D03*
X005933Y007230D03*
D81*
X005937Y007289D03*
X005937Y007290D03*
X005917Y007475D03*
X005631Y007367D03*
X005386Y007232D03*
X005386Y007231D03*
X005386Y007230D03*
X005363Y007225D03*
X005362Y007219D03*
X005386Y007184D03*
X005386Y007182D03*
X005386Y007181D03*
X005371Y007165D03*
X005371Y007164D03*
X005371Y007162D03*
X005371Y007161D03*
X005371Y007160D03*
X005441Y007057D03*
X005441Y007056D03*
X005245Y007205D03*
X005245Y007219D03*
X005071Y007249D03*
X005071Y007250D03*
X005071Y007251D03*
X005071Y007252D03*
X004933Y007224D03*
X004933Y007223D03*
X004933Y007221D03*
X004933Y007214D03*
X004933Y007213D03*
X004933Y007212D03*
X004933Y007211D03*
X004933Y007210D03*
X004933Y007208D03*
X004933Y007207D03*
X004933Y007206D03*
X004933Y007205D03*
X004933Y007204D03*
X004933Y007203D03*
X004933Y007201D03*
X004933Y007200D03*
X004933Y007199D03*
X004933Y007198D03*
X004933Y007197D03*
X004933Y007195D03*
X004933Y007194D03*
X004933Y007193D03*
X004933Y007192D03*
X004933Y007191D03*
X004933Y007190D03*
X004933Y007188D03*
X004933Y007182D03*
X004933Y007181D03*
X004933Y007180D03*
X004673Y007179D03*
X004673Y007234D03*
X004579Y007234D03*
X004579Y007233D03*
X004579Y007232D03*
X004579Y007231D03*
X004579Y007230D03*
X004554Y007165D03*
X004554Y007164D03*
X004398Y007057D03*
X004318Y007211D03*
X004318Y007212D03*
X004318Y007213D03*
X004319Y007376D03*
X004319Y007377D03*
X004319Y007381D03*
X004319Y007382D03*
X004319Y007426D03*
X004319Y007427D03*
X004318Y007451D03*
X004318Y007452D03*
X004318Y007453D03*
X004318Y007454D03*
X004318Y007455D03*
X004318Y007456D03*
X004318Y007458D03*
X004318Y007459D03*
X004318Y007460D03*
X004318Y007461D03*
X004318Y007462D03*
X004318Y007464D03*
X004318Y007465D03*
X004318Y007466D03*
X004318Y007467D03*
X004318Y007468D03*
X004318Y007469D03*
X004318Y007471D03*
X004318Y007472D03*
X004318Y007477D03*
X004318Y007478D03*
X004318Y007479D03*
X004181Y007413D03*
X004181Y007412D03*
X004181Y007410D03*
X004181Y007409D03*
X004181Y007408D03*
X004181Y007407D03*
X004181Y007406D03*
X004181Y007404D03*
X004181Y007403D03*
X004181Y007402D03*
X004181Y007401D03*
X004181Y007400D03*
X004181Y007399D03*
X004181Y007397D03*
X004181Y007396D03*
X004181Y007314D03*
X004028Y007299D03*
X004049Y007060D03*
X004181Y007063D03*
X004181Y007064D03*
X004181Y007066D03*
X004814Y007621D03*
X005062Y007435D03*
X005203Y007635D03*
X005203Y007636D03*
X005307Y007714D03*
X005297Y007530D03*
X005298Y007527D03*
X005298Y007526D03*
X005298Y007525D03*
D82*
X005313Y007504D03*
X005314Y007700D03*
X005040Y007531D03*
X005040Y007530D03*
X004872Y007697D03*
X004857Y007609D03*
X004843Y007797D03*
X004192Y007367D03*
X004192Y007366D03*
X004192Y007364D03*
X004050Y007057D03*
D83*
X004191Y007058D03*
X004194Y007386D03*
X004191Y007393D03*
X004191Y007414D03*
X004188Y007440D03*
X004188Y007441D03*
X004188Y007442D03*
X004188Y007443D03*
X004567Y007175D03*
X004567Y007174D03*
X004566Y007168D03*
X004769Y007573D03*
X004769Y007576D03*
X004792Y007608D03*
X004867Y007699D03*
X004851Y007786D03*
X005033Y007625D03*
X005310Y007734D03*
X005310Y007736D03*
X005310Y007738D03*
X005310Y007739D03*
X005310Y007473D03*
X005255Y007233D03*
X005254Y007227D03*
X005059Y007229D03*
X005059Y007244D03*
X005059Y007057D03*
X005254Y007058D03*
X005551Y007057D03*
X005620Y007426D03*
X005950Y007192D03*
X005950Y007191D03*
D84*
X005979Y007273D03*
X005858Y007286D03*
X005875Y007430D03*
X005875Y007432D03*
X005841Y007546D03*
X005905Y007565D03*
X005905Y007569D03*
X005566Y007246D03*
X005566Y007245D03*
X005437Y007149D03*
X005271Y007324D03*
X005262Y007331D03*
X005261Y007332D03*
X005251Y007342D03*
X005280Y007492D03*
X005271Y007504D03*
X005241Y007533D03*
X005236Y007537D03*
X005291Y007599D03*
X005291Y007601D03*
X005291Y007602D03*
X005290Y007603D03*
X005290Y007604D03*
X005300Y007591D03*
X005300Y007590D03*
X005310Y007657D03*
X005310Y007658D03*
X005300Y007668D03*
X005300Y007669D03*
X005299Y007670D03*
X005299Y007671D03*
X005290Y007681D03*
X005280Y007690D03*
X005271Y007697D03*
X005270Y007701D03*
X005251Y007640D03*
X005251Y007638D03*
X005205Y007660D03*
X005161Y007700D03*
X005161Y007701D03*
X005133Y007683D03*
X005133Y007682D03*
X005134Y007681D03*
X005134Y007680D03*
X005134Y007679D03*
X005064Y007706D03*
X005064Y007707D03*
X005064Y007708D03*
X005064Y007709D03*
X004996Y007701D03*
X004996Y007700D03*
X004996Y007699D03*
X004936Y007727D03*
X004936Y007728D03*
X004916Y007699D03*
X004916Y007697D03*
X004916Y007696D03*
X004915Y007695D03*
X004915Y007654D03*
X004916Y007653D03*
X004916Y007651D03*
X004916Y007650D03*
X004915Y007649D03*
X004896Y007787D03*
X004896Y007788D03*
X004887Y007798D03*
X004887Y007799D03*
X004887Y007800D03*
X004886Y007801D03*
X004877Y007806D03*
X004877Y007807D03*
X004877Y007808D03*
X004877Y007810D03*
X004876Y007811D03*
X004828Y007820D03*
X004827Y007817D03*
X004827Y007816D03*
X004769Y007632D03*
X004768Y007629D03*
X004769Y007563D03*
X004699Y007332D03*
X004690Y007327D03*
X004690Y007325D03*
X004690Y007324D03*
X004688Y007323D03*
X004680Y007317D03*
X004679Y007315D03*
X004679Y007314D03*
X004670Y007305D03*
X004670Y007304D03*
X004739Y007257D03*
X004739Y007256D03*
X004739Y007254D03*
X004749Y007267D03*
X004857Y007264D03*
X004867Y007160D03*
X004867Y007159D03*
X004867Y007158D03*
X004581Y007305D03*
X004581Y007306D03*
X004572Y007315D03*
X004572Y007316D03*
X004572Y007317D03*
X004563Y007322D03*
X004562Y007323D03*
X004562Y007324D03*
X004394Y007265D03*
X004394Y007264D03*
X004384Y007160D03*
X004234Y007330D03*
X004227Y007423D03*
X004227Y007425D03*
X004079Y007324D03*
X004079Y007323D03*
X004079Y007089D03*
X004099Y007058D03*
X005114Y007451D03*
X005114Y007452D03*
X005142Y007601D03*
X005142Y007602D03*
X005142Y007603D03*
D85*
X005187Y007570D03*
X005219Y007663D03*
X005273Y007722D03*
X005316Y007742D03*
X005305Y007501D03*
X004975Y007708D03*
X004975Y007709D03*
X004965Y007700D03*
X004916Y007631D03*
X004918Y007630D03*
X004844Y007755D03*
X004847Y007825D03*
X004160Y007321D03*
X004458Y007058D03*
X005825Y007447D03*
X005836Y007426D03*
X005918Y007547D03*
D86*
X005858Y007416D03*
X005808Y007086D03*
X005313Y007479D03*
X005314Y007503D03*
X005306Y007512D03*
X004803Y007376D03*
X004742Y007058D03*
X004856Y007780D03*
X004841Y007798D03*
D87*
X005205Y007631D03*
X005385Y007236D03*
X005385Y007227D03*
X005363Y007206D03*
X005384Y007187D03*
X005385Y007178D03*
X005372Y007158D03*
X005441Y007058D03*
X005246Y007206D03*
X004932Y007178D03*
X004696Y007246D03*
X004579Y007227D03*
X004319Y007216D03*
X004319Y007207D03*
X004182Y007068D03*
X004027Y007296D03*
X004033Y007343D03*
X005799Y007094D03*
X005937Y007288D03*
D88*
X005949Y007206D03*
X005949Y007205D03*
X005802Y007093D03*
X005841Y007412D03*
X005496Y007374D03*
X005496Y007373D03*
X005496Y007371D03*
X005246Y007273D03*
X005246Y007272D03*
X005246Y007271D03*
X005246Y007270D03*
X005245Y007269D03*
X005162Y007370D03*
X005162Y007371D03*
X005162Y007373D03*
X005162Y007374D03*
X005162Y007375D03*
X005063Y007430D03*
X005034Y007547D03*
X005034Y007549D03*
X005033Y007553D03*
X004778Y007579D03*
X004778Y007580D03*
X004674Y007231D03*
X004677Y007227D03*
X004453Y007371D03*
X004453Y007373D03*
X004453Y007374D03*
X004453Y007375D03*
X004035Y007330D03*
X004035Y007329D03*
X004035Y007328D03*
X004034Y007325D03*
X003873Y007060D03*
X004935Y007060D03*
D89*
X004678Y007187D03*
X004678Y007226D03*
X004318Y007061D03*
X004318Y007060D03*
X004316Y007481D03*
X004841Y007790D03*
X004841Y007791D03*
X005063Y007433D03*
X005063Y007432D03*
X005246Y007275D03*
X005244Y007225D03*
X005244Y007224D03*
X005244Y007223D03*
X005244Y007200D03*
X005244Y007199D03*
X005244Y007198D03*
X005244Y007197D03*
X005244Y007060D03*
X005202Y007638D03*
X005309Y007712D03*
D90*
X004802Y007062D03*
X004449Y007061D03*
X004448Y007062D03*
X004449Y007060D03*
D91*
X004802Y007061D03*
X004802Y007060D03*
X003927Y007193D03*
X003927Y007194D03*
X003927Y007195D03*
X003927Y007218D03*
X003927Y007219D03*
X003927Y007220D03*
D92*
X005490Y007061D03*
X005490Y007060D03*
D93*
X005492Y007062D03*
X003926Y007197D03*
X003926Y007198D03*
X003926Y007199D03*
X003926Y007200D03*
X003926Y007201D03*
X003926Y007203D03*
X003926Y007204D03*
X003926Y007205D03*
X003926Y007206D03*
D94*
X004000Y007271D03*
X004001Y007279D03*
X004009Y007282D03*
X004010Y007290D03*
X004051Y007358D03*
X004060Y007369D03*
X004010Y007123D03*
X004010Y007122D03*
X004010Y007121D03*
X004012Y007114D03*
X004019Y007113D03*
X004021Y007103D03*
X004021Y007102D03*
X004021Y007096D03*
X004031Y007093D03*
X004049Y007063D03*
X004335Y007243D03*
X004335Y007244D03*
X004562Y007251D03*
X004690Y007161D03*
X004916Y007243D03*
X004840Y007631D03*
X005388Y007252D03*
X005379Y007168D03*
X005614Y007171D03*
X005614Y007172D03*
X005614Y007164D03*
X005614Y007162D03*
X005614Y007161D03*
X005614Y007241D03*
X005754Y007188D03*
X005783Y007128D03*
X005900Y007466D03*
D95*
X004841Y007063D03*
X004409Y007063D03*
D96*
X004838Y007325D03*
X005536Y007063D03*
D97*
X005536Y007064D03*
X004413Y007064D03*
X004414Y007349D03*
D98*
X004414Y007348D03*
X004414Y007347D03*
X004414Y007341D03*
X004837Y007348D03*
X004837Y007349D03*
X004837Y007064D03*
D99*
X004833Y007066D03*
X004833Y007067D03*
X004833Y007315D03*
X004419Y007315D03*
X004419Y007340D03*
X004418Y007066D03*
X005531Y007067D03*
X005531Y007066D03*
X005531Y007073D03*
X005531Y007343D03*
X005531Y007344D03*
X005531Y007345D03*
D100*
X005530Y007089D03*
X005530Y007071D03*
X005530Y007070D03*
X005530Y007069D03*
X005530Y007068D03*
X004832Y007068D03*
X004419Y007068D03*
X004419Y007069D03*
X004419Y007067D03*
X004420Y007336D03*
X004420Y007337D03*
X004420Y007338D03*
D101*
X004407Y007077D03*
X004407Y007076D03*
X004407Y007071D03*
X004407Y007070D03*
X004844Y007069D03*
X005542Y007335D03*
D102*
X005551Y007266D03*
X005542Y007140D03*
X005451Y007140D03*
X005451Y007139D03*
X005188Y007273D03*
X005127Y007273D03*
X005127Y007275D03*
X005127Y007276D03*
X005069Y007539D03*
X005049Y007623D03*
X005157Y007621D03*
X005159Y007618D03*
X005177Y007684D03*
X005207Y007668D03*
X005225Y007662D03*
X005226Y007660D03*
X005226Y007658D03*
X005257Y007706D03*
X005259Y007704D03*
X005255Y007708D03*
X005255Y007709D03*
X005255Y007710D03*
X005310Y007720D03*
X005310Y007721D03*
X005332Y007668D03*
X005331Y007666D03*
X005228Y007539D03*
X005309Y007492D03*
X005310Y007485D03*
X004951Y007687D03*
X004951Y007688D03*
X004951Y007689D03*
X004900Y007780D03*
X004833Y007687D03*
X004804Y007673D03*
X004782Y007570D03*
X004782Y007569D03*
X004781Y007567D03*
X004747Y007565D03*
X004746Y007564D03*
X004843Y007275D03*
X004843Y007273D03*
X004705Y007070D03*
X004546Y007070D03*
X004407Y007272D03*
X004409Y007273D03*
X004409Y007275D03*
X004409Y007276D03*
X004156Y007426D03*
X005866Y007572D03*
D103*
X005542Y007342D03*
X005542Y007336D03*
X005160Y007314D03*
X005160Y007312D03*
X005160Y007311D03*
X005160Y007309D03*
X005160Y007308D03*
X004844Y007070D03*
X004406Y007073D03*
X004406Y007074D03*
X004406Y007075D03*
D104*
X004549Y007153D03*
X004549Y007154D03*
X004549Y007155D03*
X004549Y007156D03*
X004549Y007158D03*
X004549Y007159D03*
X004549Y007160D03*
X004683Y007188D03*
X004701Y007251D03*
X004928Y007076D03*
X004928Y007075D03*
X004928Y007074D03*
X004928Y007073D03*
X005076Y007254D03*
X005076Y007256D03*
X005076Y007257D03*
X005076Y007258D03*
X005076Y007259D03*
X005076Y007260D03*
X005076Y007262D03*
X005076Y007263D03*
X005076Y007264D03*
X005076Y007265D03*
X005076Y007266D03*
X005076Y007267D03*
X005076Y007269D03*
X005238Y007265D03*
X005238Y007264D03*
X005238Y007263D03*
X005239Y007262D03*
X005239Y007260D03*
X005239Y007259D03*
X005368Y007166D03*
X005401Y007259D03*
X005401Y007260D03*
X005283Y007549D03*
X005208Y007627D03*
X004810Y007598D03*
X004810Y007597D03*
X004038Y007351D03*
X004038Y007350D03*
X004038Y007349D03*
X004038Y007348D03*
X004038Y007347D03*
X004038Y007345D03*
X004027Y007338D03*
X004027Y007337D03*
X004027Y007336D03*
X003879Y007254D03*
X004027Y007083D03*
X004027Y007082D03*
X004027Y007081D03*
X004027Y007080D03*
X004027Y007079D03*
X004027Y007077D03*
X004027Y007076D03*
X004028Y007074D03*
X004028Y007073D03*
X004028Y007071D03*
X005927Y007233D03*
X005951Y007238D03*
X005951Y007239D03*
X005952Y007243D03*
D105*
X005916Y007263D03*
X005916Y007264D03*
X005916Y007265D03*
X004798Y007077D03*
X004798Y007071D03*
D106*
X004798Y007073D03*
X004798Y007074D03*
X004798Y007075D03*
X004798Y007076D03*
X005204Y007591D03*
X005203Y007592D03*
X005885Y007442D03*
X005885Y007441D03*
D107*
X005876Y007427D03*
X005948Y007454D03*
X005904Y007570D03*
X005929Y007590D03*
X005862Y007569D03*
X005856Y007292D03*
X005858Y007285D03*
X005581Y007375D03*
X005567Y007244D03*
X005556Y007151D03*
X005556Y007149D03*
X005556Y007148D03*
X005556Y007147D03*
X005438Y007148D03*
X005437Y007151D03*
X005379Y007090D03*
X005369Y007100D03*
X005270Y007325D03*
X005270Y007327D03*
X005269Y007328D03*
X005261Y007334D03*
X005261Y007335D03*
X005259Y007336D03*
X005259Y007337D03*
X005281Y007491D03*
X005271Y007503D03*
X005251Y007524D03*
X005224Y007546D03*
X005298Y007593D03*
X005300Y007592D03*
X005250Y007641D03*
X005250Y007642D03*
X005290Y007679D03*
X005290Y007680D03*
X005291Y007677D03*
X005301Y007667D03*
X005313Y007680D03*
X005281Y007688D03*
X005281Y007689D03*
X005277Y007693D03*
X005271Y007696D03*
X005270Y007699D03*
X005270Y007700D03*
X005173Y007669D03*
X005134Y007677D03*
X005143Y007604D03*
X005143Y007599D03*
X005143Y007598D03*
X005067Y007536D03*
X005063Y007533D03*
X005115Y007455D03*
X005114Y007454D03*
X005114Y007453D03*
X005063Y007710D03*
X004896Y007790D03*
X004869Y007814D03*
X004867Y007816D03*
X004867Y007817D03*
X004866Y007818D03*
X004866Y007819D03*
X004828Y007821D03*
X004827Y007819D03*
X004827Y007818D03*
X004824Y007813D03*
X004819Y007810D03*
X004819Y007808D03*
X004769Y007634D03*
X004768Y007562D03*
X004690Y007328D03*
X004681Y007318D03*
X004680Y007316D03*
X004671Y007308D03*
X004670Y007306D03*
X004748Y007266D03*
X004857Y007266D03*
X004857Y007265D03*
X004858Y007263D03*
X004867Y007156D03*
X004661Y007117D03*
X004590Y007116D03*
X004579Y007108D03*
X004548Y007074D03*
X004384Y007158D03*
X004384Y007159D03*
X004394Y007263D03*
X004394Y007266D03*
X004552Y007332D03*
X004554Y007331D03*
X004561Y007328D03*
X004561Y007327D03*
X004561Y007325D03*
X004571Y007318D03*
X004580Y007308D03*
X004226Y007426D03*
X004078Y007090D03*
D108*
X004422Y007099D03*
X004423Y007305D03*
X004828Y007305D03*
X005526Y007099D03*
X005526Y007074D03*
D109*
X005526Y007075D03*
X005526Y007331D03*
D110*
X005319Y007439D03*
X005307Y007493D03*
X005219Y007547D03*
X005219Y007549D03*
X005190Y007567D03*
X005179Y007662D03*
X005179Y007663D03*
X005179Y007664D03*
X005179Y007666D03*
X005179Y007668D03*
X005234Y007654D03*
X005234Y007653D03*
X005277Y007723D03*
X005278Y007725D03*
X005035Y007654D03*
X004874Y007704D03*
X004825Y007683D03*
X004840Y007605D03*
X004860Y007821D03*
X004859Y007823D03*
X005058Y007428D03*
X004761Y007276D03*
X004553Y007076D03*
X005888Y007243D03*
X005888Y007244D03*
X005972Y007278D03*
X005878Y007584D03*
D111*
X005879Y007583D03*
X005879Y007582D03*
X005859Y007459D03*
X005821Y007401D03*
X005888Y007245D03*
X005972Y007277D03*
X005951Y007164D03*
X005951Y007160D03*
X005397Y007336D03*
X005397Y007337D03*
X005096Y007445D03*
X005180Y007661D03*
X005203Y007671D03*
X005203Y007673D03*
X005311Y007689D03*
X005310Y007719D03*
X004860Y007820D03*
X004825Y007682D03*
X004796Y007661D03*
X004840Y007604D03*
X004750Y007547D03*
X004706Y007337D03*
X004706Y007336D03*
X004698Y007077D03*
X004698Y007076D03*
D112*
X004827Y007080D03*
X004827Y007081D03*
X004827Y007082D03*
X004827Y007083D03*
X004423Y007083D03*
X005525Y007081D03*
X005525Y007080D03*
X005525Y007079D03*
X005525Y007077D03*
X005525Y007076D03*
X005525Y007330D03*
X005525Y007332D03*
X005525Y007334D03*
D113*
X004407Y007079D03*
D114*
X004798Y007079D03*
X005208Y007588D03*
X005207Y007589D03*
D115*
X004827Y007304D03*
X004425Y007304D03*
X004424Y007082D03*
X004424Y007081D03*
X004424Y007080D03*
D116*
X004417Y007318D03*
X004417Y007319D03*
X004417Y007321D03*
X004835Y007321D03*
X004835Y007319D03*
X005533Y007087D03*
X005533Y007086D03*
X005533Y007084D03*
X005533Y007083D03*
X005533Y007082D03*
D117*
X005382Y007147D03*
X005405Y007263D03*
X005622Y007246D03*
X005622Y007244D03*
X005896Y007443D03*
X005081Y007271D03*
X004923Y007160D03*
X004923Y007159D03*
X004923Y007158D03*
X004706Y007152D03*
X004685Y007223D03*
X004686Y007224D03*
X004681Y007257D03*
X004683Y007259D03*
X004692Y007269D03*
X004692Y007270D03*
X004692Y007271D03*
X004692Y007272D03*
X004801Y007615D03*
X004801Y007616D03*
X004801Y007617D03*
X004866Y007667D03*
X005063Y007717D03*
X005063Y007719D03*
X004022Y007324D03*
X003884Y007152D03*
X003884Y007151D03*
X004022Y007087D03*
X004023Y007084D03*
D118*
X004428Y007084D03*
X004822Y007086D03*
X004822Y007087D03*
X004822Y007090D03*
X004822Y007091D03*
X004822Y007094D03*
X005521Y007321D03*
X005521Y007322D03*
X005521Y007323D03*
X005521Y007324D03*
X005521Y007325D03*
X005521Y007327D03*
D119*
X005521Y007328D03*
X005521Y007329D03*
X004823Y007093D03*
X004823Y007084D03*
D120*
X005039Y007518D03*
X005029Y007532D03*
X005049Y007703D03*
X005108Y007690D03*
X005186Y007683D03*
X005274Y007719D03*
X004884Y007696D03*
X004823Y007746D03*
X004823Y007747D03*
X004823Y007748D03*
X004823Y007749D03*
X004823Y007751D03*
X005826Y007407D03*
X005826Y007402D03*
X005964Y007413D03*
X005964Y007416D03*
X005816Y007084D03*
D121*
X005754Y007172D03*
X005754Y007173D03*
X005754Y007174D03*
X005754Y007175D03*
X005748Y007185D03*
X005381Y007151D03*
X005252Y007556D03*
X005062Y007720D03*
X004865Y007666D03*
X004865Y007664D03*
X004800Y007614D03*
X004569Y007256D03*
X004545Y007151D03*
X004707Y007151D03*
X004707Y007149D03*
X004923Y007156D03*
X004328Y007158D03*
X004328Y007159D03*
X004328Y007160D03*
X004023Y007086D03*
X004022Y007088D03*
X004022Y007089D03*
X003998Y007256D03*
X003998Y007257D03*
X003998Y007258D03*
X004017Y007286D03*
X004023Y007323D03*
D122*
X004429Y007094D03*
X004429Y007093D03*
X004429Y007091D03*
X004429Y007090D03*
X004429Y007089D03*
X004429Y007088D03*
X004429Y007087D03*
X004429Y007086D03*
X004822Y007088D03*
X004822Y007089D03*
D123*
X004834Y007317D03*
X004834Y007318D03*
X004417Y007317D03*
X005532Y007088D03*
D124*
X005529Y007090D03*
X004831Y007312D03*
X004421Y007312D03*
D125*
X004422Y007311D03*
X004422Y007310D03*
X004422Y007309D03*
X004830Y007311D03*
X005528Y007096D03*
X005528Y007095D03*
X005528Y007094D03*
X005528Y007093D03*
X005528Y007091D03*
D126*
X005380Y007169D03*
X005251Y007256D03*
X005262Y007571D03*
X004917Y007241D03*
X004689Y007162D03*
X004531Y007276D03*
X004029Y007319D03*
X004022Y007310D03*
X004011Y007291D03*
X003992Y007153D03*
X004000Y007142D03*
X004002Y007133D03*
X004030Y007094D03*
X005615Y007266D03*
X005753Y007190D03*
X005760Y007156D03*
X005760Y007155D03*
D127*
X004817Y007107D03*
X004817Y007106D03*
X004817Y007104D03*
X004817Y007103D03*
X004817Y007101D03*
X004817Y007100D03*
X004817Y007099D03*
X004817Y007097D03*
X004433Y007097D03*
X004433Y007096D03*
X004433Y007095D03*
D128*
X004818Y007095D03*
X004818Y007096D03*
X004818Y007102D03*
X005516Y007295D03*
X005516Y007309D03*
X005516Y007312D03*
X005516Y007314D03*
X005516Y007315D03*
X005516Y007316D03*
X005516Y007317D03*
D129*
X005528Y007097D03*
X004830Y007308D03*
X004830Y007309D03*
X004830Y007310D03*
X004422Y007308D03*
X004421Y007104D03*
X004421Y007103D03*
X004421Y007102D03*
D130*
X004422Y007101D03*
X004422Y007100D03*
X004422Y007106D03*
X004422Y007107D03*
X004423Y007306D03*
X004829Y007306D03*
D131*
X004426Y007303D03*
X005524Y007100D03*
D132*
X005523Y007101D03*
X005523Y007102D03*
X005523Y007103D03*
X005523Y007104D03*
X004825Y007302D03*
X004825Y007303D03*
X004426Y007302D03*
D133*
X004339Y007153D03*
X004696Y007145D03*
X004704Y007142D03*
X004912Y007153D03*
X004912Y007260D03*
X005214Y007602D03*
X005213Y007603D03*
X005219Y007599D03*
X005220Y007598D03*
X005205Y007611D03*
X005610Y007253D03*
X005610Y007252D03*
X005610Y007153D03*
X005779Y007114D03*
X005779Y007104D03*
D134*
X005523Y007106D03*
X005523Y007107D03*
X004825Y007298D03*
X004825Y007299D03*
X004825Y007301D03*
X004427Y007301D03*
X004427Y007299D03*
X004427Y007298D03*
X004427Y007297D03*
D135*
X004339Y007260D03*
X004547Y007142D03*
X004556Y007145D03*
X004556Y007146D03*
X004704Y007141D03*
X004911Y007152D03*
X005093Y007301D03*
X005093Y007302D03*
X004802Y007368D03*
X004847Y007636D03*
X005212Y007604D03*
X005221Y007597D03*
X005492Y007368D03*
X005402Y007271D03*
X005394Y007270D03*
X005609Y007258D03*
X005609Y007257D03*
X005609Y007256D03*
X005609Y007254D03*
X005609Y007152D03*
X005778Y007115D03*
X005778Y007112D03*
X005778Y007110D03*
X005778Y007106D03*
X003986Y007259D03*
D136*
X003986Y007254D03*
X004340Y007262D03*
X004340Y007152D03*
X004340Y007151D03*
X004547Y007141D03*
X004547Y007140D03*
X004547Y007139D03*
X004547Y007135D03*
X004547Y007134D03*
X004556Y007147D03*
X004696Y007147D03*
X004696Y007146D03*
X004705Y007140D03*
X004705Y007139D03*
X004705Y007138D03*
X004705Y007136D03*
X004705Y007135D03*
X004705Y007134D03*
X004910Y007145D03*
X004910Y007146D03*
X004910Y007147D03*
X004910Y007148D03*
X004910Y007149D03*
X004910Y007151D03*
X004910Y007262D03*
X004910Y007270D03*
X005094Y007299D03*
X005094Y007303D03*
X005166Y007368D03*
X005221Y007595D03*
X005221Y007596D03*
X005394Y007269D03*
X005394Y007267D03*
X005394Y007266D03*
X005403Y007272D03*
X005609Y007146D03*
X005609Y007145D03*
X005609Y007143D03*
X005767Y007162D03*
X005767Y007164D03*
X005777Y007116D03*
X005777Y007109D03*
X005777Y007108D03*
X005777Y007107D03*
X005934Y007247D03*
X005934Y007249D03*
X005934Y007250D03*
X005934Y007251D03*
X004848Y007635D03*
D137*
X004892Y007108D03*
X004359Y007108D03*
X003916Y007217D03*
X005897Y007425D03*
D138*
X005417Y007304D03*
X005406Y007280D03*
X005398Y007142D03*
X005417Y007115D03*
X004840Y007622D03*
X004454Y007367D03*
X004502Y007108D03*
D139*
X004530Y007277D03*
X004529Y007280D03*
X004333Y007263D03*
X004334Y007241D03*
X004830Y007623D03*
X005086Y007280D03*
X005410Y007136D03*
X005411Y007133D03*
X005429Y007108D03*
X005616Y007240D03*
X005616Y007259D03*
X005760Y007154D03*
X005760Y007153D03*
X005760Y007143D03*
X005760Y007142D03*
X005784Y007127D03*
X005784Y007126D03*
X005784Y007121D03*
D140*
X005575Y007108D03*
X003930Y007192D03*
X003930Y007221D03*
D141*
X003915Y007216D03*
X003915Y007214D03*
X003915Y007208D03*
X004358Y007110D03*
X004358Y007109D03*
X004359Y007355D03*
X004893Y007115D03*
X004893Y007109D03*
X005591Y007132D03*
X005591Y007355D03*
D142*
X005604Y007270D03*
X005604Y007269D03*
X005496Y007362D03*
X005496Y007364D03*
X005771Y007161D03*
X005889Y007276D03*
X005889Y007299D03*
X004906Y007142D03*
X004710Y007280D03*
X004543Y007272D03*
X004507Y007112D03*
X004506Y007109D03*
D143*
X004743Y007109D03*
X005203Y007605D03*
X005898Y007439D03*
X005898Y007438D03*
X005898Y007436D03*
X005903Y007270D03*
X005903Y007269D03*
X005903Y007267D03*
D144*
X005495Y007366D03*
X005417Y007305D03*
X005417Y007297D03*
X005398Y007141D03*
X005416Y007109D03*
X005240Y007279D03*
X005163Y007366D03*
X004907Y007143D03*
X004344Y007143D03*
D145*
X005577Y007109D03*
X005577Y007298D03*
X005577Y007304D03*
D146*
X005604Y007267D03*
X005496Y007363D03*
X005240Y007278D03*
X004906Y007141D03*
X004744Y007114D03*
X004744Y007113D03*
X004744Y007112D03*
X004710Y007279D03*
X004798Y007362D03*
X004798Y007363D03*
X004798Y007364D03*
X004798Y007366D03*
X004798Y007367D03*
X004542Y007275D03*
X004542Y007273D03*
X004508Y007114D03*
X004508Y007113D03*
X004507Y007110D03*
X004345Y007142D03*
X004848Y007656D03*
X005772Y007160D03*
X005772Y007159D03*
X005772Y007158D03*
X005773Y007132D03*
X005773Y007130D03*
X005773Y007129D03*
X005773Y007120D03*
X005773Y007119D03*
X005773Y007117D03*
D147*
X005772Y007133D03*
X005163Y007362D03*
X004905Y007140D03*
X004905Y007139D03*
X004905Y007138D03*
X004905Y007136D03*
X004905Y007135D03*
X004905Y007134D03*
X004743Y007110D03*
X004709Y007277D03*
X004709Y007278D03*
X004453Y007366D03*
X004345Y007141D03*
X004345Y007140D03*
X004345Y007139D03*
X004345Y007138D03*
X004345Y007136D03*
X004345Y007135D03*
X004345Y007134D03*
X004847Y007657D03*
X004847Y007658D03*
D148*
X005238Y007577D03*
X005591Y007356D03*
X004893Y007114D03*
X004893Y007110D03*
X004357Y007112D03*
X004357Y007113D03*
X004357Y007114D03*
X004358Y007356D03*
X004358Y007357D03*
X003914Y007213D03*
X003914Y007212D03*
X003914Y007211D03*
X003914Y007210D03*
D149*
X005577Y007299D03*
X005577Y007301D03*
X005577Y007302D03*
X005577Y007303D03*
X005577Y007114D03*
X005577Y007113D03*
X005577Y007112D03*
X005577Y007110D03*
D150*
X005592Y007357D03*
X005592Y007358D03*
X005592Y007360D03*
X004894Y007113D03*
X004894Y007112D03*
X004358Y007358D03*
X004358Y007360D03*
D151*
X004544Y007133D03*
X004909Y007130D03*
X004909Y007129D03*
X004909Y007128D03*
X005415Y007112D03*
X005415Y007299D03*
X005415Y007301D03*
X005415Y007302D03*
X005493Y007367D03*
X005208Y007609D03*
X004847Y007640D03*
D152*
X005095Y007305D03*
X005416Y007113D03*
D153*
X005758Y007186D03*
X005758Y007187D03*
X005779Y007113D03*
X005217Y007601D03*
D154*
X004358Y007115D03*
X003915Y007207D03*
D155*
X004506Y007115D03*
X004839Y007649D03*
X004839Y007650D03*
X004839Y007651D03*
X004839Y007653D03*
X004840Y007654D03*
X005204Y007606D03*
X005602Y007285D03*
X005602Y007284D03*
X005602Y007283D03*
X005422Y007130D03*
D156*
X004745Y007115D03*
X004452Y007362D03*
X004452Y007363D03*
X004452Y007364D03*
D157*
X005576Y007305D03*
X005576Y007115D03*
D158*
X004824Y007116D03*
X004824Y007117D03*
X004824Y007296D03*
X004824Y007297D03*
X004427Y007296D03*
X004426Y007116D03*
D159*
X005511Y007116D03*
X005511Y007129D03*
X005511Y007296D03*
X005511Y007306D03*
D160*
X004427Y007117D03*
D161*
X005507Y007117D03*
X005507Y007119D03*
X005507Y007120D03*
X005507Y007121D03*
D162*
X004821Y007119D03*
X004429Y007119D03*
D163*
X004439Y007120D03*
D164*
X004439Y007121D03*
X004439Y007122D03*
X004812Y007121D03*
X004812Y007120D03*
D165*
X004812Y007122D03*
X004812Y007282D03*
X004812Y007283D03*
X004812Y007284D03*
X004812Y007285D03*
X004812Y007286D03*
X004812Y007288D03*
X004812Y007289D03*
X004812Y007290D03*
X004812Y007291D03*
X004812Y007292D03*
X004812Y007293D03*
X004812Y007295D03*
X004439Y007295D03*
X004439Y007293D03*
X004439Y007292D03*
X004439Y007291D03*
X004439Y007290D03*
X004439Y007289D03*
X004439Y007288D03*
X004439Y007286D03*
D166*
X004442Y007123D03*
X004808Y007125D03*
X005506Y007126D03*
X005506Y007127D03*
X005506Y007128D03*
X005506Y007125D03*
X005506Y007123D03*
X005506Y007122D03*
D167*
X004809Y007123D03*
D168*
X004808Y007126D03*
X004808Y007127D03*
X004443Y007125D03*
X005506Y007282D03*
D169*
X004443Y007127D03*
X004443Y007126D03*
D170*
X004506Y007128D03*
X004506Y007129D03*
D171*
X004745Y007129D03*
X004745Y007128D03*
X003937Y007167D03*
D172*
X004356Y007132D03*
X004531Y007130D03*
X004721Y007130D03*
X004895Y007132D03*
D173*
X004798Y007353D03*
X004798Y007354D03*
X005231Y007579D03*
X005584Y007130D03*
D174*
X005418Y007132D03*
X005404Y007273D03*
X005404Y007275D03*
X005404Y007276D03*
X005404Y007277D03*
X005404Y007278D03*
X005404Y007279D03*
X005236Y007280D03*
X005094Y007298D03*
X005094Y007304D03*
X004910Y007269D03*
X004910Y007267D03*
X004847Y007637D03*
X004847Y007638D03*
X005206Y007610D03*
X005221Y007593D03*
X005767Y007166D03*
X005767Y007165D03*
X004546Y007138D03*
X004546Y007136D03*
X004341Y007145D03*
X004341Y007146D03*
X004341Y007147D03*
X004341Y007148D03*
X004341Y007149D03*
X004341Y007267D03*
X004341Y007269D03*
X004341Y007270D03*
D175*
X004351Y007280D03*
X004350Y007133D03*
X004900Y007133D03*
X004900Y007278D03*
X005598Y007133D03*
X005895Y007297D03*
X005926Y007260D03*
X005926Y007259D03*
X005924Y007257D03*
D176*
X005925Y007258D03*
X005925Y007256D03*
X005925Y007254D03*
X005925Y007253D03*
X005896Y007295D03*
X005896Y007296D03*
X005894Y007298D03*
X005768Y007136D03*
X005768Y007135D03*
X005599Y007135D03*
X005599Y007134D03*
X005599Y007136D03*
X005599Y007272D03*
X005599Y007273D03*
X005599Y007275D03*
X005599Y007276D03*
X005599Y007277D03*
X005599Y007278D03*
X005599Y007279D03*
X004901Y007279D03*
X004853Y007655D03*
X004351Y007279D03*
X004351Y007278D03*
D177*
X004336Y007155D03*
X004336Y007154D03*
X004452Y007368D03*
X004059Y007367D03*
X004059Y007366D03*
X004000Y007139D03*
X004000Y007138D03*
X004000Y007136D03*
X005089Y007355D03*
X005216Y007298D03*
X005757Y007141D03*
X005881Y007301D03*
D178*
X005881Y007452D03*
X005612Y007140D03*
X005612Y007139D03*
X005612Y007138D03*
X005216Y007304D03*
X005244Y007558D03*
X005244Y007559D03*
X004914Y007276D03*
X004914Y007275D03*
X004914Y007273D03*
X004338Y007273D03*
X004338Y007275D03*
X004338Y007276D03*
X003989Y007147D03*
D179*
X003994Y007151D03*
X003994Y007152D03*
X003994Y007260D03*
X004055Y007361D03*
X004919Y007266D03*
X004919Y007265D03*
X004919Y007264D03*
X005085Y007272D03*
X005386Y007140D03*
X005386Y007139D03*
X005617Y007147D03*
X005617Y007151D03*
X005617Y007262D03*
X005617Y007263D03*
X005617Y007264D03*
X005899Y007278D03*
X005913Y007434D03*
D180*
X005757Y007139D03*
X005401Y007283D03*
X005216Y007305D03*
X004913Y007277D03*
X004557Y007260D03*
X004549Y007271D03*
X004338Y007272D03*
X005205Y007612D03*
D181*
X005204Y007614D03*
X005204Y007615D03*
X005204Y007616D03*
X005204Y007617D03*
X005243Y007563D03*
X005243Y007562D03*
X005243Y007560D03*
X005400Y007284D03*
X005611Y007141D03*
X005757Y007140D03*
X005882Y007451D03*
X004913Y007272D03*
X004338Y007277D03*
D182*
X003941Y007253D03*
X003941Y007159D03*
X003941Y007158D03*
X003941Y007156D03*
X003941Y007155D03*
X003941Y007154D03*
X003941Y007149D03*
X003941Y007148D03*
X005138Y007336D03*
X005138Y007337D03*
X005138Y007341D03*
D183*
X005163Y007369D03*
X005288Y007544D03*
X005288Y007545D03*
X005256Y007570D03*
X005205Y007625D03*
X005412Y007285D03*
X005405Y007262D03*
X005381Y007149D03*
X005381Y007148D03*
X005622Y007245D03*
X005622Y007361D03*
X005753Y007177D03*
X005908Y007467D03*
X004866Y007668D03*
X004691Y007267D03*
X004683Y007260D03*
X004682Y007258D03*
X004687Y007225D03*
X004545Y007152D03*
D184*
X004861Y007677D03*
X004861Y007679D03*
X005249Y007557D03*
X005254Y007277D03*
X005617Y007149D03*
X005617Y007148D03*
D185*
X005137Y007338D03*
X005137Y007340D03*
X003941Y007252D03*
X003941Y007161D03*
X003941Y007160D03*
D186*
X004154Y007425D03*
X004156Y007427D03*
X004746Y007563D03*
X004804Y007669D03*
X004804Y007670D03*
X004804Y007671D03*
X004806Y007674D03*
X004852Y007696D03*
X004950Y007686D03*
X004847Y007810D03*
X005049Y007694D03*
X005049Y007693D03*
X005049Y007691D03*
X005049Y007690D03*
X005049Y007689D03*
X005049Y007688D03*
X005049Y007687D03*
X005049Y007686D03*
X005078Y007663D03*
X005078Y007662D03*
X005078Y007661D03*
X005078Y007660D03*
X005049Y007624D03*
X005158Y007623D03*
X005158Y007622D03*
X005158Y007619D03*
X005197Y007564D03*
X005228Y007541D03*
X005228Y007540D03*
X005230Y007538D03*
X005304Y007580D03*
X005275Y007619D03*
X005264Y007632D03*
X005226Y007657D03*
X005177Y007686D03*
X005256Y007707D03*
X005255Y007712D03*
X005310Y007687D03*
X005333Y007669D03*
X005324Y007654D03*
X005324Y007653D03*
X005324Y007651D03*
X005324Y007650D03*
X005324Y007649D03*
X005324Y007648D03*
X005324Y007647D03*
X005309Y007491D03*
X005276Y007315D03*
X005100Y007446D03*
X005059Y007427D03*
X005059Y007426D03*
X005059Y007425D03*
X005059Y007423D03*
X005059Y007422D03*
X005818Y007400D03*
X005865Y007571D03*
X005906Y007598D03*
X005930Y007599D03*
X005895Y007237D03*
X005954Y007162D03*
X005954Y007161D03*
D187*
X003937Y007162D03*
X003937Y007164D03*
X003937Y007165D03*
X003937Y007166D03*
X003937Y007168D03*
X003937Y007169D03*
X003937Y007171D03*
X003937Y007249D03*
X003937Y007250D03*
X003937Y007251D03*
D188*
X003936Y007247D03*
X003936Y007246D03*
X003936Y007245D03*
X003936Y007244D03*
X003936Y007243D03*
X003936Y007241D03*
X003936Y007240D03*
X003936Y007239D03*
X003936Y007172D03*
D189*
X003932Y007173D03*
X003932Y007174D03*
X003932Y007175D03*
X003932Y007177D03*
X003932Y007225D03*
X003932Y007226D03*
X003932Y007227D03*
X003932Y007229D03*
X003932Y007234D03*
D190*
X003920Y007187D03*
X003920Y007178D03*
D191*
X003920Y007179D03*
X003920Y007180D03*
X003920Y007185D03*
X003920Y007186D03*
D192*
X003919Y007184D03*
X003919Y007182D03*
X003919Y007181D03*
D193*
X004676Y007184D03*
X004747Y007356D03*
X004848Y007356D03*
X004801Y007596D03*
X004858Y007610D03*
X004879Y007681D03*
X004879Y007682D03*
X004879Y007686D03*
X004879Y007687D03*
X004896Y007713D03*
X005199Y007647D03*
X005199Y007641D03*
X005311Y007708D03*
X005302Y007520D03*
X005213Y007357D03*
X005213Y007356D03*
X005932Y007292D03*
D194*
X005930Y007293D03*
X005949Y007204D03*
X005949Y007203D03*
X005497Y007370D03*
X005497Y007375D03*
X005446Y007355D03*
X005161Y007376D03*
X005310Y007709D03*
X004778Y007578D03*
X004676Y007229D03*
X004677Y007186D03*
X004453Y007370D03*
X004453Y007376D03*
X004188Y007369D03*
X004035Y007335D03*
X004035Y007334D03*
X004035Y007332D03*
X004035Y007331D03*
X004035Y007327D03*
D195*
X003931Y007233D03*
X003931Y007232D03*
X003931Y007231D03*
X003931Y007230D03*
X003931Y007224D03*
X003931Y007223D03*
X003931Y007190D03*
X003931Y007188D03*
D196*
X003931Y007191D03*
X005575Y007297D03*
D197*
X003935Y007238D03*
X003935Y007237D03*
X003935Y007236D03*
D198*
X004228Y007329D03*
X004706Y007338D03*
X004707Y007340D03*
X004762Y007275D03*
X004760Y007272D03*
X004843Y007277D03*
X004782Y007572D03*
X004756Y007572D03*
X004796Y007662D03*
X004796Y007663D03*
X004825Y007684D03*
X005179Y007667D03*
X005203Y007674D03*
X005233Y007655D03*
X005272Y007623D03*
X005273Y007622D03*
X005273Y007621D03*
X005310Y007484D03*
X005397Y007338D03*
X005188Y007277D03*
X005888Y007241D03*
X005971Y007280D03*
X005972Y007279D03*
X005879Y007585D03*
D199*
X005897Y007440D03*
X005897Y007435D03*
X005903Y007266D03*
D200*
X005898Y007271D03*
X005597Y007280D03*
X005219Y007583D03*
X005219Y007584D03*
X005219Y007585D03*
D201*
X005242Y007575D03*
X005903Y007421D03*
X005898Y007273D03*
D202*
X005906Y007275D03*
X005206Y007590D03*
D203*
X004900Y007280D03*
D204*
X004432Y007282D03*
X004432Y007283D03*
X005518Y007288D03*
X005518Y007289D03*
X005518Y007290D03*
X005518Y007291D03*
X005518Y007292D03*
D205*
X005537Y007349D03*
X005165Y007282D03*
X004839Y007327D03*
X004413Y007325D03*
D206*
X004412Y007327D03*
X004412Y007328D03*
X004412Y007329D03*
X004412Y007330D03*
X004412Y007331D03*
X004412Y007332D03*
X004840Y007332D03*
X004840Y007331D03*
X004840Y007330D03*
X004840Y007329D03*
X004840Y007328D03*
X005164Y007295D03*
X005164Y007293D03*
X005164Y007292D03*
X005164Y007291D03*
X005164Y007290D03*
X005164Y007289D03*
X005164Y007288D03*
X005164Y007286D03*
X005164Y007285D03*
X005164Y007284D03*
X005164Y007283D03*
D207*
X005518Y007286D03*
X004432Y007284D03*
D208*
X004433Y007285D03*
X005517Y007293D03*
X005517Y007319D03*
D209*
X005446Y007357D03*
X005303Y007514D03*
X005303Y007516D03*
X005303Y007517D03*
X005303Y007518D03*
X005303Y007519D03*
X005280Y007541D03*
X005199Y007642D03*
X005199Y007643D03*
X005199Y007644D03*
X005199Y007645D03*
X005312Y007704D03*
X005312Y007706D03*
X005312Y007707D03*
X004880Y007684D03*
X004880Y007683D03*
X004860Y007767D03*
X004860Y007768D03*
X004860Y007769D03*
X004844Y007792D03*
X004844Y007793D03*
X004801Y007593D03*
X004801Y007592D03*
X004801Y007591D03*
X004504Y007357D03*
X004504Y007356D03*
X004201Y007381D03*
X004201Y007382D03*
X004201Y007383D03*
X004199Y007379D03*
X004199Y007377D03*
X005920Y007433D03*
X005920Y007477D03*
X005932Y007291D03*
D210*
X005153Y007296D03*
D211*
X005153Y007297D03*
D212*
X005205Y007360D03*
X005455Y007360D03*
X005829Y007432D03*
X005912Y007578D03*
X005919Y007604D03*
X005189Y007651D03*
X005189Y007653D03*
X004915Y007722D03*
X004889Y007693D03*
X004889Y007691D03*
X004864Y007702D03*
X004889Y007775D03*
X004879Y007619D03*
X004879Y007618D03*
X004790Y007583D03*
X004756Y007360D03*
X004840Y007360D03*
X004192Y007421D03*
X004188Y007305D03*
D213*
X005164Y007306D03*
D214*
X005512Y007308D03*
D215*
X005543Y007337D03*
X005543Y007338D03*
X005543Y007340D03*
X005543Y007341D03*
X005159Y007310D03*
D216*
X005516Y007310D03*
X005516Y007311D03*
X005516Y007318D03*
D217*
X004831Y007314D03*
X004831Y007334D03*
X004420Y007335D03*
X004420Y007334D03*
X004420Y007314D03*
D218*
X005149Y007315D03*
D219*
X004834Y007316D03*
X004418Y007316D03*
X005532Y007348D03*
D220*
X005148Y007317D03*
X005148Y007316D03*
D221*
X005147Y007318D03*
X005147Y007319D03*
X005147Y007321D03*
D222*
X004835Y007322D03*
X004416Y007322D03*
D223*
X005147Y007322D03*
D224*
X004836Y007323D03*
X004416Y007323D03*
D225*
X005146Y007323D03*
D226*
X004837Y007324D03*
X004837Y007343D03*
X004837Y007344D03*
X004837Y007345D03*
X004837Y007347D03*
X004415Y007345D03*
X004415Y007344D03*
X004415Y007343D03*
X004415Y007342D03*
X004415Y007324D03*
D227*
X005146Y007324D03*
X005146Y007343D03*
X005146Y007344D03*
X005146Y007345D03*
X005146Y007347D03*
D228*
X005144Y007325D03*
D229*
X005143Y007327D03*
X005118Y007363D03*
X005118Y007364D03*
D230*
X005143Y007330D03*
X005143Y007329D03*
X005143Y007328D03*
D231*
X005142Y007331D03*
D232*
X005141Y007332D03*
D233*
X005141Y007334D03*
D234*
X004848Y007335D03*
D235*
X005139Y007335D03*
D236*
X004849Y007336D03*
X004849Y007337D03*
X004849Y007342D03*
D237*
X004850Y007341D03*
X004850Y007340D03*
X004850Y007338D03*
D238*
X005138Y007342D03*
D239*
X005531Y007347D03*
D240*
X005145Y007348D03*
X005145Y007349D03*
D241*
X004409Y007350D03*
X004409Y007351D03*
D242*
X004410Y007353D03*
X004410Y007354D03*
X004842Y007350D03*
X005540Y007350D03*
X005540Y007351D03*
X005540Y007353D03*
X005540Y007354D03*
D243*
X005140Y007354D03*
X005140Y007353D03*
X005140Y007351D03*
X005140Y007350D03*
D244*
X004799Y007351D03*
D245*
X005900Y007423D03*
D246*
X005232Y007578D03*
D247*
X005282Y006974D02*
X005337Y006974D01*
X005356Y006956D01*
X005356Y006919D01*
X005337Y006901D01*
X005282Y006901D01*
X005282Y006864D02*
X005282Y006974D01*
X005319Y006901D02*
X005356Y006864D01*
X005430Y006864D02*
X005430Y006974D01*
X005503Y006974D01*
X005466Y006919D02*
X005430Y006919D01*
X005430Y006864D02*
X005503Y006864D01*
X005577Y006901D02*
X005614Y006864D01*
X005650Y006901D01*
X005650Y006974D01*
X005577Y006974D02*
X005577Y006901D01*
X005724Y006919D02*
X005798Y006919D01*
X005871Y006882D02*
X005890Y006864D01*
X005927Y006864D01*
X005945Y006882D01*
X005871Y006882D02*
X005871Y006956D01*
X005890Y006974D01*
X005927Y006974D01*
X005945Y006956D01*
X005208Y006846D02*
X005135Y006846D01*
X005061Y006901D02*
X005061Y006974D01*
X005061Y006901D02*
X005024Y006864D01*
X004988Y006901D01*
X004988Y006974D01*
X004914Y006974D02*
X004840Y006974D01*
X004840Y006864D01*
X004914Y006864D01*
X004877Y006919D02*
X004840Y006919D01*
X004766Y006882D02*
X004766Y006956D01*
X004748Y006974D01*
X004693Y006974D01*
X004693Y006864D01*
X004748Y006864D01*
X004766Y006882D01*
X004619Y006846D02*
X004546Y006846D01*
X004472Y006882D02*
X004472Y006956D01*
X004453Y006974D01*
X004417Y006974D01*
X004398Y006956D01*
X004398Y006882D01*
X004417Y006864D01*
X004453Y006864D01*
X004472Y006882D01*
X004337Y006864D02*
X004300Y006864D01*
X004318Y006864D02*
X004318Y006974D01*
X004300Y006974D02*
X004337Y006974D01*
X004226Y006956D02*
X004226Y006882D01*
X004208Y006864D01*
X004153Y006864D01*
X004153Y006974D01*
X004208Y006974D01*
X004226Y006956D01*
X004079Y006974D02*
X004079Y006882D01*
X004060Y006864D01*
X004024Y006864D01*
X004005Y006882D01*
X004005Y006974D01*
X003931Y006938D02*
X003931Y006864D01*
X003931Y006919D02*
X003858Y006919D01*
X003858Y006938D02*
X003895Y006974D01*
X003931Y006938D01*
X003858Y006938D02*
X003858Y006864D01*
X003408Y006893D02*
X003335Y006893D01*
X003371Y006857D02*
X003371Y006930D01*
X003261Y006838D02*
X003187Y006838D01*
X003187Y006948D01*
X003187Y007838D02*
X003187Y007948D01*
X003261Y007838D01*
X003261Y007948D01*
X003335Y007930D02*
X003335Y007857D01*
X003353Y007838D01*
X003390Y007838D01*
X003408Y007857D01*
X003408Y007930D02*
X003390Y007948D01*
X003353Y007948D01*
X003335Y007930D01*
X003353Y005948D02*
X003390Y005948D01*
X003408Y005930D01*
X003335Y005857D01*
X003353Y005838D01*
X003390Y005838D01*
X003408Y005857D01*
X003408Y005930D01*
X003353Y005948D02*
X003335Y005930D01*
X003335Y005857D01*
X003261Y005838D02*
X003261Y005912D01*
X003224Y005948D01*
X003187Y005912D01*
X003187Y005838D01*
X003187Y005893D02*
X003261Y005893D01*
X003242Y004948D02*
X003206Y004948D01*
X003187Y004930D01*
X003187Y004912D01*
X003206Y004893D01*
X003242Y004893D01*
X003261Y004875D01*
X003261Y004857D01*
X003242Y004838D01*
X003206Y004838D01*
X003187Y004857D01*
X003261Y004930D02*
X003242Y004948D01*
X003335Y004930D02*
X003335Y004857D01*
X003353Y004838D01*
X003390Y004838D01*
X003408Y004857D01*
X003408Y004930D02*
X003390Y004948D01*
X003353Y004948D01*
X003335Y004930D01*
X003482Y004948D02*
X003482Y004838D01*
X003555Y004838D01*
X003519Y003948D02*
X003555Y003912D01*
X003555Y003838D01*
X003555Y003893D02*
X003482Y003893D01*
X003482Y003912D02*
X003519Y003948D01*
X003482Y003912D02*
X003482Y003838D01*
X003408Y003857D02*
X003408Y003930D01*
X003390Y003948D01*
X003335Y003948D01*
X003335Y003838D01*
X003390Y003838D01*
X003408Y003857D01*
X003261Y003857D02*
X003242Y003838D01*
X003206Y003838D01*
X003187Y003857D01*
X003206Y003893D02*
X003242Y003893D01*
X003261Y003875D01*
X003261Y003857D01*
X003206Y003893D02*
X003187Y003912D01*
X003187Y003930D01*
X003206Y003948D01*
X003242Y003948D01*
X003261Y003930D01*
X003242Y002948D02*
X003206Y002948D01*
X003187Y002930D01*
X003187Y002857D01*
X003206Y002838D01*
X003242Y002838D01*
X003261Y002857D01*
X003261Y002893D01*
X003224Y002893D01*
X003261Y002930D02*
X003242Y002948D01*
X003335Y002948D02*
X003408Y002838D01*
X003408Y002948D01*
X003335Y002948D02*
X003335Y002838D01*
X003482Y002838D02*
X003482Y002948D01*
X003537Y002948D01*
X003555Y002930D01*
X003555Y002857D01*
X003537Y002838D01*
X003482Y002838D01*
X004462Y004164D02*
X004462Y004274D01*
X004517Y004274D01*
X004535Y004256D01*
X004535Y004219D01*
X004517Y004201D01*
X004462Y004201D01*
X004609Y004182D02*
X004609Y004256D01*
X004627Y004274D01*
X004664Y004274D01*
X004682Y004256D01*
X004682Y004182D01*
X004664Y004164D01*
X004627Y004164D01*
X004609Y004182D01*
X004756Y004274D02*
X004830Y004274D01*
X004793Y004274D02*
X004793Y004164D01*
X004904Y004164D02*
X004977Y004164D01*
X004940Y004164D02*
X004940Y004274D01*
X004904Y004237D01*
X005097Y005000D02*
X005170Y005000D01*
X005097Y005000D02*
X005097Y005110D01*
X005244Y005073D02*
X005281Y005110D01*
X005281Y005000D01*
X005244Y005000D02*
X005318Y005000D01*
X006598Y005715D02*
X006635Y005678D01*
X006671Y005715D01*
X006671Y005788D01*
X006598Y005788D02*
X006598Y005715D01*
X006745Y005733D02*
X006800Y005733D01*
X006819Y005715D01*
X006819Y005697D01*
X006800Y005678D01*
X006745Y005678D01*
X006745Y005788D01*
X006800Y005788D01*
X006819Y005770D01*
X006819Y005752D01*
X006800Y005733D01*
X006893Y005733D02*
X006966Y005733D01*
X006966Y005752D02*
X006966Y005678D01*
X006893Y005678D02*
X006893Y005752D01*
X006929Y005788D01*
X006966Y005752D01*
X007040Y005788D02*
X007113Y005788D01*
X007077Y005788D02*
X007077Y005678D01*
X007095Y004788D02*
X007113Y004770D01*
X007113Y004752D01*
X007095Y004733D01*
X007040Y004733D01*
X007040Y004678D02*
X007040Y004788D01*
X007095Y004788D01*
X007095Y004733D02*
X007113Y004715D01*
X007113Y004697D01*
X007095Y004678D01*
X007040Y004678D01*
X006966Y004697D02*
X006966Y004770D01*
X006893Y004697D01*
X006911Y004678D01*
X006948Y004678D01*
X006966Y004697D01*
X006966Y004770D02*
X006948Y004788D01*
X006911Y004788D01*
X006893Y004770D01*
X006893Y004697D01*
X006819Y004733D02*
X006800Y004715D01*
X006745Y004715D01*
X006745Y004678D02*
X006745Y004788D01*
X006800Y004788D01*
X006819Y004770D01*
X006819Y004733D01*
X006800Y003788D02*
X006745Y003788D01*
X006745Y003678D01*
X006745Y003715D02*
X006800Y003715D01*
X006819Y003733D01*
X006819Y003770D01*
X006800Y003788D01*
X006893Y003770D02*
X006911Y003788D01*
X006948Y003788D01*
X006966Y003770D01*
X006893Y003697D01*
X006911Y003678D01*
X006948Y003678D01*
X006966Y003697D01*
X006966Y003770D01*
X006893Y003770D02*
X006893Y003697D01*
X007040Y003678D02*
X007040Y003788D01*
X007113Y003788D02*
X007113Y003678D01*
X007077Y003715D01*
X007040Y003678D01*
X007077Y002788D02*
X007113Y002752D01*
X007113Y002678D01*
X007113Y002733D02*
X007040Y002733D01*
X007040Y002752D02*
X007077Y002788D01*
X007040Y002752D02*
X007040Y002678D01*
X006966Y002697D02*
X006948Y002678D01*
X006911Y002678D01*
X006893Y002697D01*
X006966Y002770D01*
X006966Y002697D01*
X006966Y002770D02*
X006948Y002788D01*
X006911Y002788D01*
X006893Y002770D01*
X006893Y002697D01*
X006819Y002733D02*
X006800Y002715D01*
X006745Y002715D01*
X006745Y002678D02*
X006745Y002788D01*
X006800Y002788D01*
X006819Y002770D01*
X006819Y002733D01*
X006942Y006678D02*
X006978Y006678D01*
X006960Y006678D02*
X006960Y006788D01*
X006942Y006788D02*
X006978Y006788D01*
X007040Y006788D02*
X007040Y006678D01*
X007113Y006678D02*
X007040Y006788D01*
X007113Y006788D02*
X007113Y006678D01*
X006966Y007678D02*
X006893Y007678D01*
X006893Y007788D01*
X007040Y007733D02*
X007113Y007733D01*
M02*
