G75*
%MOIN*%
%OFA0B0*%
%FSLAX24Y24*%
%IPPOS*%
%LPD*%
%AMOC8*
5,1,8,0,0,1.08239X$1,22.5*
%
%ADD10C,0.0010*%
%ADD11C,0.0000*%
%ADD12C,0.0050*%
%ADD13C,0.0031*%
D10*
X003167Y002843D02*
X003192Y002818D01*
X003242Y002818D01*
X003267Y002843D01*
X003267Y002893D01*
X003217Y002893D01*
X003167Y002943D02*
X003167Y002843D01*
X003167Y002943D02*
X003192Y002968D01*
X003242Y002968D01*
X003267Y002943D01*
X003315Y002968D02*
X003415Y002818D01*
X003415Y002968D01*
X003462Y002968D02*
X003537Y002968D01*
X003562Y002943D01*
X003562Y002843D01*
X003537Y002818D01*
X003462Y002818D01*
X003462Y002968D01*
X003315Y002968D02*
X003315Y002818D01*
X003315Y003818D02*
X003390Y003818D01*
X003415Y003843D01*
X003415Y003943D01*
X003390Y003968D01*
X003315Y003968D01*
X003315Y003818D01*
X003267Y003843D02*
X003267Y003868D01*
X003242Y003893D01*
X003192Y003893D01*
X003167Y003918D01*
X003167Y003943D01*
X003192Y003968D01*
X003242Y003968D01*
X003267Y003943D01*
X003267Y003843D02*
X003242Y003818D01*
X003192Y003818D01*
X003167Y003843D01*
X003462Y003818D02*
X003462Y003918D01*
X003512Y003968D01*
X003562Y003918D01*
X003562Y003818D01*
X003562Y003893D02*
X003462Y003893D01*
X003462Y004818D02*
X003562Y004818D01*
X003462Y004818D02*
X003462Y004968D01*
X003415Y004943D02*
X003390Y004968D01*
X003340Y004968D01*
X003315Y004943D01*
X003315Y004843D01*
X003340Y004818D01*
X003390Y004818D01*
X003415Y004843D01*
X003267Y004843D02*
X003242Y004818D01*
X003192Y004818D01*
X003167Y004843D01*
X003192Y004893D02*
X003242Y004893D01*
X003267Y004868D01*
X003267Y004843D01*
X003192Y004893D02*
X003167Y004918D01*
X003167Y004943D01*
X003192Y004968D01*
X003242Y004968D01*
X003267Y004943D01*
X003267Y005818D02*
X003267Y005918D01*
X003217Y005968D01*
X003167Y005918D01*
X003167Y005818D01*
X003167Y005893D02*
X003267Y005893D01*
X003315Y005843D02*
X003415Y005943D01*
X003415Y005843D01*
X003390Y005818D01*
X003340Y005818D01*
X003315Y005843D01*
X003315Y005943D01*
X003340Y005968D01*
X003390Y005968D01*
X003415Y005943D01*
X003267Y006818D02*
X003167Y006818D01*
X003167Y006968D01*
X003315Y006893D02*
X003415Y006893D01*
X003365Y006943D02*
X003365Y006843D01*
X003340Y007818D02*
X003390Y007818D01*
X003415Y007843D01*
X003340Y007818D02*
X003315Y007843D01*
X003315Y007943D01*
X003340Y007968D01*
X003390Y007968D01*
X003415Y007943D01*
X003267Y007968D02*
X003267Y007818D01*
X003167Y007968D01*
X003167Y007818D01*
X006578Y005808D02*
X006578Y005708D01*
X006628Y005658D01*
X006678Y005708D01*
X006678Y005808D01*
X006725Y005808D02*
X006800Y005808D01*
X006825Y005783D01*
X006825Y005758D01*
X006800Y005733D01*
X006725Y005733D01*
X006725Y005658D02*
X006800Y005658D01*
X006825Y005683D01*
X006825Y005708D01*
X006800Y005733D01*
X006873Y005733D02*
X006973Y005733D01*
X006973Y005758D02*
X006973Y005658D01*
X007070Y005658D02*
X007070Y005808D01*
X007020Y005808D02*
X007120Y005808D01*
X006973Y005758D02*
X006923Y005808D01*
X006873Y005758D01*
X006873Y005658D01*
X006725Y005658D02*
X006725Y005808D01*
X006922Y006658D02*
X006972Y006658D01*
X006947Y006658D02*
X006947Y006808D01*
X006922Y006808D02*
X006972Y006808D01*
X007020Y006808D02*
X007120Y006658D01*
X007120Y006808D01*
X007020Y006808D02*
X007020Y006658D01*
X006973Y007658D02*
X006873Y007658D01*
X006873Y007808D01*
X007020Y007733D02*
X007120Y007733D01*
X007095Y004808D02*
X007120Y004783D01*
X007120Y004758D01*
X007095Y004733D01*
X007020Y004733D01*
X006973Y004683D02*
X006948Y004658D01*
X006898Y004658D01*
X006873Y004683D01*
X006973Y004783D01*
X006973Y004683D01*
X007020Y004658D02*
X007095Y004658D01*
X007120Y004683D01*
X007120Y004708D01*
X007095Y004733D01*
X007095Y004808D02*
X007020Y004808D01*
X007020Y004658D01*
X006973Y004783D02*
X006948Y004808D01*
X006898Y004808D01*
X006873Y004783D01*
X006873Y004683D01*
X006825Y004733D02*
X006800Y004708D01*
X006725Y004708D01*
X006725Y004658D02*
X006725Y004808D01*
X006800Y004808D01*
X006825Y004783D01*
X006825Y004733D01*
X006800Y003808D02*
X006725Y003808D01*
X006725Y003658D01*
X006725Y003708D02*
X006800Y003708D01*
X006825Y003733D01*
X006825Y003783D01*
X006800Y003808D01*
X006873Y003783D02*
X006898Y003808D01*
X006948Y003808D01*
X006973Y003783D01*
X006873Y003683D01*
X006898Y003658D01*
X006948Y003658D01*
X006973Y003683D01*
X006973Y003783D01*
X007020Y003808D02*
X007020Y003658D01*
X007070Y003708D01*
X007120Y003658D01*
X007120Y003808D01*
X006873Y003783D02*
X006873Y003683D01*
X006898Y002808D02*
X006948Y002808D01*
X006973Y002783D01*
X006873Y002683D01*
X006898Y002658D01*
X006948Y002658D01*
X006973Y002683D01*
X006973Y002783D01*
X007020Y002758D02*
X007070Y002808D01*
X007120Y002758D01*
X007120Y002658D01*
X007120Y002733D02*
X007020Y002733D01*
X007020Y002758D02*
X007020Y002658D01*
X006873Y002683D02*
X006873Y002783D01*
X006898Y002808D01*
X006825Y002783D02*
X006825Y002733D01*
X006800Y002708D01*
X006725Y002708D01*
X006725Y002658D02*
X006725Y002808D01*
X006800Y002808D01*
X006825Y002783D01*
X004983Y004145D02*
X004883Y004145D01*
X004933Y004145D02*
X004933Y004296D01*
X004883Y004246D01*
X004835Y004296D02*
X004735Y004296D01*
X004785Y004296D02*
X004785Y004145D01*
X004688Y004170D02*
X004688Y004271D01*
X004663Y004296D01*
X004613Y004296D01*
X004588Y004271D01*
X004588Y004170D01*
X004613Y004145D01*
X004663Y004145D01*
X004688Y004170D01*
X004541Y004221D02*
X004516Y004196D01*
X004441Y004196D01*
X004441Y004145D02*
X004441Y004296D01*
X004516Y004296D01*
X004541Y004271D01*
X004541Y004221D01*
D11*
X002662Y003083D02*
X002662Y002543D01*
X002392Y002813D02*
X002932Y002813D01*
X002662Y003543D02*
X002662Y004083D01*
X002392Y003813D02*
X002932Y003813D01*
X002662Y004543D02*
X002662Y005083D01*
X002392Y004813D02*
X002932Y004813D01*
X002662Y005543D02*
X002662Y006083D01*
X002392Y005813D02*
X002932Y005813D01*
X002662Y006543D02*
X002662Y007083D01*
X002392Y006813D02*
X002932Y006813D01*
X002662Y007543D02*
X002662Y008083D01*
X002392Y007813D02*
X002932Y007813D01*
X004612Y005843D02*
X005412Y005843D01*
X005012Y005443D02*
X005012Y006243D01*
X005022Y003863D02*
X005022Y003063D01*
X004622Y003463D02*
X005422Y003463D01*
X007392Y003813D02*
X007932Y003813D01*
X007662Y003543D02*
X007662Y004083D01*
X007662Y004543D02*
X007662Y005083D01*
X007392Y004813D02*
X007932Y004813D01*
X007662Y005543D02*
X007662Y006083D01*
X007392Y005813D02*
X007932Y005813D01*
X007662Y006543D02*
X007662Y007083D01*
X007392Y006813D02*
X007932Y006813D01*
X007662Y007543D02*
X007662Y008083D01*
X007392Y007813D02*
X007932Y007813D01*
X007662Y003083D02*
X007662Y002543D01*
X007392Y002813D02*
X007932Y002813D01*
D12*
X005318Y005000D02*
X005244Y005000D01*
X005281Y005000D02*
X005281Y005110D01*
X005244Y005073D01*
X005170Y005000D02*
X005097Y005000D01*
X005097Y005110D01*
X004362Y005843D02*
X004364Y005893D01*
X004370Y005943D01*
X004380Y005993D01*
X004393Y006041D01*
X004410Y006089D01*
X004431Y006135D01*
X004455Y006179D01*
X004483Y006221D01*
X004514Y006261D01*
X004548Y006298D01*
X004585Y006333D01*
X004624Y006364D01*
X004665Y006393D01*
X004709Y006418D01*
X004755Y006440D01*
X004802Y006458D01*
X004850Y006472D01*
X004899Y006483D01*
X004949Y006490D01*
X004999Y006493D01*
X005050Y006492D01*
X005100Y006487D01*
X005150Y006478D01*
X005198Y006466D01*
X005246Y006449D01*
X005292Y006429D01*
X005337Y006406D01*
X005380Y006379D01*
X005420Y006349D01*
X005458Y006316D01*
X005493Y006280D01*
X005526Y006241D01*
X005555Y006200D01*
X005581Y006157D01*
X005604Y006112D01*
X005623Y006065D01*
X005638Y006017D01*
X005650Y005968D01*
X005658Y005918D01*
X005662Y005868D01*
X005662Y005818D01*
X005658Y005768D01*
X005650Y005718D01*
X005638Y005669D01*
X005623Y005621D01*
X005604Y005574D01*
X005581Y005529D01*
X005555Y005486D01*
X005526Y005445D01*
X005493Y005406D01*
X005458Y005370D01*
X005420Y005337D01*
X005380Y005307D01*
X005337Y005280D01*
X005292Y005257D01*
X005246Y005237D01*
X005198Y005220D01*
X005150Y005208D01*
X005100Y005199D01*
X005050Y005194D01*
X004999Y005193D01*
X004949Y005196D01*
X004899Y005203D01*
X004850Y005214D01*
X004802Y005228D01*
X004755Y005246D01*
X004709Y005268D01*
X004665Y005293D01*
X004624Y005322D01*
X004585Y005353D01*
X004548Y005388D01*
X004514Y005425D01*
X004483Y005465D01*
X004455Y005507D01*
X004431Y005551D01*
X004410Y005597D01*
X004393Y005645D01*
X004380Y005693D01*
X004370Y005743D01*
X004364Y005793D01*
X004362Y005843D01*
X004546Y003845D02*
X004548Y003865D01*
X004554Y003884D01*
X004563Y003902D01*
X004575Y003918D01*
X004591Y003931D01*
X004608Y003941D01*
X004627Y003948D01*
X004647Y003951D01*
X004667Y003950D01*
X004687Y003945D01*
X004705Y003937D01*
X004721Y003925D01*
X004735Y003911D01*
X004746Y003894D01*
X004754Y003875D01*
X004758Y003855D01*
X004758Y003835D01*
X004754Y003815D01*
X004746Y003796D01*
X004735Y003779D01*
X004721Y003765D01*
X004705Y003753D01*
X004687Y003745D01*
X004667Y003740D01*
X004647Y003739D01*
X004627Y003742D01*
X004608Y003749D01*
X004591Y003759D01*
X004575Y003772D01*
X004563Y003788D01*
X004554Y003806D01*
X004548Y003825D01*
X004546Y003845D01*
D13*
X004432Y004054D02*
X004432Y002873D01*
X005613Y002873D01*
X005613Y004054D01*
X004432Y004054D01*
M02*
