G75*
%MOIN*%
%OFA0B0*%
%FSLAX24Y24*%
%IPPOS*%
%LPD*%
%AMOC8*
5,1,8,0,0,1.08239X$1,22.5*
%
%ADD10R,0.0531X0.0531*%
%ADD11R,0.0650X0.0295*%
%ADD12R,0.0571X0.0177*%
%ADD13C,0.0240*%
%ADD14C,0.0160*%
%ADD15C,0.0080*%
D10*
X002662Y002813D03*
X002662Y003813D03*
X002662Y004813D03*
X002662Y005813D03*
X002662Y006813D03*
X002662Y007813D03*
X007662Y007813D03*
X007662Y006813D03*
X007662Y005813D03*
X007662Y004813D03*
X007662Y003813D03*
X007662Y002813D03*
D11*
X006016Y005843D03*
X004008Y005843D03*
D12*
X004129Y003845D03*
X004129Y003589D03*
X004129Y003333D03*
X004129Y003077D03*
X005912Y003077D03*
X005912Y003333D03*
X005912Y003589D03*
X005912Y003845D03*
D13*
X004402Y004603D03*
X003902Y006293D03*
X005762Y006363D03*
X004132Y002693D03*
D14*
X004129Y002710D01*
X004129Y003077D01*
X004129Y003333D02*
X003142Y003333D01*
X002662Y003813D01*
X003272Y003933D02*
X003272Y004203D01*
X002662Y004813D01*
X003272Y003933D02*
X003616Y003589D01*
X004129Y003589D01*
X004129Y003845D02*
X004129Y004347D01*
X002662Y005813D01*
X002662Y006813D02*
X003382Y006813D01*
X003902Y006293D01*
X003902Y005949D01*
X004008Y005843D01*
X005762Y006097D02*
X006016Y005843D01*
X005762Y006097D02*
X005762Y006363D01*
X007212Y007813D01*
X007662Y007813D01*
X007662Y004813D02*
X007012Y004163D01*
X007012Y003803D01*
X006798Y003589D01*
X005912Y003589D01*
X005912Y003333D02*
X007182Y003333D01*
X007662Y003813D01*
X007662Y002813D02*
X006176Y002813D01*
X005912Y003077D01*
D15*
X005838Y002869D02*
X005976Y002730D01*
X006093Y002613D01*
X007277Y002613D01*
X007277Y002523D01*
X004302Y002523D01*
X004336Y002557D01*
X004372Y002646D01*
X004372Y002741D01*
X004336Y002829D01*
X004329Y002836D01*
X004329Y002869D01*
X004464Y002869D01*
X004534Y002939D01*
X004534Y003728D01*
X004534Y003983D01*
X004464Y004054D01*
X004329Y004054D01*
X004329Y004430D01*
X003048Y005710D01*
X003048Y006129D01*
X002978Y006199D01*
X002372Y006199D01*
X002372Y006428D01*
X002978Y006428D01*
X003048Y006498D01*
X003048Y006613D01*
X003299Y006613D01*
X003662Y006250D01*
X002372Y006250D01*
X002372Y006328D02*
X003584Y006328D01*
X003662Y006250D02*
X003662Y006246D01*
X003699Y006157D01*
X003702Y006154D01*
X003702Y006111D01*
X003634Y006111D01*
X003564Y006041D01*
X003564Y005646D01*
X003634Y005576D01*
X004383Y005576D01*
X004453Y005646D01*
X004453Y006041D01*
X004383Y006111D01*
X004102Y006111D01*
X004102Y006154D01*
X004106Y006157D01*
X004142Y006246D01*
X004142Y006341D01*
X004106Y006429D01*
X004038Y006497D01*
X003950Y006533D01*
X003945Y006533D01*
X003465Y007013D01*
X003048Y007013D01*
X003048Y007129D01*
X002978Y007199D01*
X002372Y007199D01*
X002372Y007428D01*
X002978Y007428D01*
X003048Y007498D01*
X003048Y008103D01*
X007277Y008103D01*
X007277Y008013D01*
X007129Y008013D01*
X005719Y006603D01*
X005715Y006603D01*
X005626Y006567D01*
X005559Y006499D01*
X005522Y006411D01*
X005522Y006316D01*
X005559Y006227D01*
X005562Y006224D01*
X005562Y006014D01*
X004453Y006014D01*
X004453Y005936D02*
X005571Y005936D01*
X005571Y006005D02*
X005571Y005646D01*
X005642Y005576D01*
X006391Y005576D01*
X006461Y005646D01*
X006461Y006041D01*
X006391Y006111D01*
X006031Y006111D01*
X005962Y006180D01*
X005962Y006224D01*
X005966Y006227D01*
X006002Y006316D01*
X006002Y006320D01*
X007277Y007595D01*
X007277Y007498D01*
X007347Y007428D01*
X007952Y007428D01*
X007952Y007199D01*
X007347Y007199D01*
X007277Y007129D01*
X007277Y006498D01*
X007347Y006428D01*
X007952Y006428D01*
X007952Y006197D01*
X007944Y006199D01*
X007702Y006199D01*
X007702Y005853D01*
X007622Y005853D01*
X007622Y005773D01*
X007702Y005773D01*
X007702Y005428D01*
X007944Y005428D01*
X007952Y005430D01*
X007952Y005199D01*
X007347Y005199D01*
X007277Y005129D01*
X007277Y004710D01*
X006812Y004246D01*
X006812Y003886D01*
X006715Y003789D01*
X006317Y003789D01*
X006317Y003841D01*
X005916Y003841D01*
X005916Y003849D01*
X006317Y003849D01*
X006317Y003950D01*
X006309Y003980D01*
X006293Y004007D01*
X006271Y004030D01*
X006244Y004046D01*
X006213Y004054D01*
X005916Y004054D01*
X005916Y003849D01*
X005908Y003849D01*
X005908Y003841D01*
X005507Y003841D01*
X005507Y003741D01*
X005509Y003730D01*
X005507Y003728D01*
X005507Y002939D01*
X005577Y002869D01*
X005838Y002869D01*
X005911Y002796D02*
X004350Y002796D01*
X004372Y002717D02*
X005989Y002717D01*
X006068Y002639D02*
X004369Y002639D01*
X004337Y002560D02*
X007277Y002560D01*
X006742Y003816D02*
X006317Y003816D01*
X006317Y003895D02*
X006812Y003895D01*
X006812Y003973D02*
X006311Y003973D01*
X006221Y004052D02*
X006812Y004052D01*
X006812Y004130D02*
X004329Y004130D01*
X004329Y004209D02*
X006812Y004209D01*
X006853Y004287D02*
X004329Y004287D01*
X004329Y004366D02*
X006932Y004366D01*
X007010Y004444D02*
X004314Y004444D01*
X004236Y004523D02*
X007089Y004523D01*
X007167Y004601D02*
X004157Y004601D01*
X004079Y004680D02*
X007246Y004680D01*
X007277Y004758D02*
X004000Y004758D01*
X003922Y004837D02*
X007277Y004837D01*
X007277Y004915D02*
X003843Y004915D01*
X003765Y004994D02*
X007277Y004994D01*
X007277Y005072D02*
X003686Y005072D01*
X003608Y005151D02*
X007299Y005151D01*
X007381Y005428D02*
X007622Y005428D01*
X007622Y005773D01*
X007277Y005773D01*
X007277Y005532D01*
X007285Y005501D01*
X007300Y005474D01*
X007323Y005452D01*
X007350Y005436D01*
X007381Y005428D01*
X007310Y005465D02*
X003294Y005465D01*
X003372Y005386D02*
X007952Y005386D01*
X007952Y005308D02*
X003451Y005308D01*
X003529Y005229D02*
X007952Y005229D01*
X007702Y005465D02*
X007622Y005465D01*
X007622Y005543D02*
X007702Y005543D01*
X007702Y005622D02*
X007622Y005622D01*
X007622Y005700D02*
X007702Y005700D01*
X007622Y005779D02*
X006461Y005779D01*
X006461Y005857D02*
X007277Y005857D01*
X007277Y005853D02*
X007622Y005853D01*
X007622Y006199D01*
X007381Y006199D01*
X007350Y006191D01*
X007323Y006175D01*
X007300Y006153D01*
X007285Y006125D01*
X007277Y006095D01*
X007277Y005853D01*
X007277Y005936D02*
X006461Y005936D01*
X006461Y006014D02*
X007277Y006014D01*
X007277Y006093D02*
X006409Y006093D01*
X006089Y006407D02*
X007952Y006407D01*
X007952Y006328D02*
X006010Y006328D01*
X005975Y006250D02*
X007952Y006250D01*
X007702Y006171D02*
X007622Y006171D01*
X007622Y006093D02*
X007702Y006093D01*
X007702Y006014D02*
X007622Y006014D01*
X007622Y005936D02*
X007702Y005936D01*
X007702Y005857D02*
X007622Y005857D01*
X007277Y005700D02*
X006461Y005700D01*
X006437Y005622D02*
X007277Y005622D01*
X007277Y005543D02*
X003215Y005543D01*
X003137Y005622D02*
X003588Y005622D01*
X003564Y005700D02*
X003058Y005700D01*
X003048Y005779D02*
X003564Y005779D01*
X003564Y005857D02*
X003048Y005857D01*
X003048Y005936D02*
X003564Y005936D01*
X003564Y006014D02*
X003048Y006014D01*
X003048Y006093D02*
X003616Y006093D01*
X003693Y006171D02*
X003005Y006171D01*
X003035Y006485D02*
X003427Y006485D01*
X003349Y006564D02*
X003048Y006564D01*
X003048Y007035D02*
X006151Y007035D01*
X006229Y007113D02*
X003048Y007113D01*
X002985Y007192D02*
X006308Y007192D01*
X006386Y007270D02*
X002372Y007270D01*
X002372Y007349D02*
X006465Y007349D01*
X006543Y007427D02*
X002372Y007427D01*
X003048Y007506D02*
X006622Y007506D01*
X006700Y007584D02*
X003048Y007584D01*
X003048Y007663D02*
X006779Y007663D01*
X006857Y007741D02*
X003048Y007741D01*
X003048Y007820D02*
X006936Y007820D01*
X007014Y007898D02*
X003048Y007898D01*
X003048Y007977D02*
X007093Y007977D01*
X007277Y008055D02*
X003048Y008055D01*
X003522Y006956D02*
X006072Y006956D01*
X005994Y006878D02*
X003601Y006878D01*
X003679Y006799D02*
X005915Y006799D01*
X005837Y006721D02*
X003758Y006721D01*
X003836Y006642D02*
X005758Y006642D01*
X005623Y006564D02*
X003915Y006564D01*
X004050Y006485D02*
X005553Y006485D01*
X005522Y006407D02*
X004115Y006407D01*
X004142Y006328D02*
X005522Y006328D01*
X005549Y006250D02*
X004142Y006250D01*
X004111Y006171D02*
X005562Y006171D01*
X005562Y006093D02*
X004401Y006093D01*
X004453Y005857D02*
X005571Y005857D01*
X005571Y005779D02*
X004453Y005779D01*
X004453Y005700D02*
X005571Y005700D01*
X005596Y005622D02*
X004429Y005622D01*
X003506Y006407D02*
X002372Y006407D01*
X004466Y004052D02*
X005603Y004052D01*
X005611Y004054D02*
X005580Y004046D01*
X005553Y004030D01*
X005531Y004007D01*
X005515Y003980D01*
X005507Y003950D01*
X005507Y003849D01*
X005908Y003849D01*
X005908Y004054D01*
X005611Y004054D01*
X005513Y003973D02*
X004534Y003973D01*
X004534Y003895D02*
X005507Y003895D01*
X005507Y003816D02*
X004534Y003816D01*
X004534Y003738D02*
X005507Y003738D01*
X005507Y003659D02*
X004534Y003659D01*
X004534Y003581D02*
X005507Y003581D01*
X005507Y003502D02*
X004534Y003502D01*
X004534Y003424D02*
X005507Y003424D01*
X005507Y003345D02*
X004534Y003345D01*
X004534Y003267D02*
X005507Y003267D01*
X005507Y003188D02*
X004534Y003188D01*
X004534Y003110D02*
X005507Y003110D01*
X005507Y003031D02*
X004534Y003031D01*
X004534Y002953D02*
X005507Y002953D01*
X005571Y002874D02*
X004469Y002874D01*
X005908Y003895D02*
X005916Y003895D01*
X005908Y003973D02*
X005916Y003973D01*
X005908Y004052D02*
X005916Y004052D01*
X005571Y006005D02*
X005562Y006014D01*
X005971Y006171D02*
X007319Y006171D01*
X007289Y006485D02*
X006167Y006485D01*
X006246Y006564D02*
X007277Y006564D01*
X007277Y006642D02*
X006324Y006642D01*
X006403Y006721D02*
X007277Y006721D01*
X007277Y006799D02*
X006481Y006799D01*
X006560Y006878D02*
X007277Y006878D01*
X007277Y006956D02*
X006638Y006956D01*
X006717Y007035D02*
X007277Y007035D01*
X007277Y007113D02*
X006795Y007113D01*
X006874Y007192D02*
X007340Y007192D01*
X007109Y007427D02*
X007952Y007427D01*
X007952Y007349D02*
X007031Y007349D01*
X006952Y007270D02*
X007952Y007270D01*
X007277Y007506D02*
X007188Y007506D01*
X007266Y007584D02*
X007277Y007584D01*
M02*
