G75*
%MOIN*%
%OFA0B0*%
%FSLAX24Y24*%
%IPPOS*%
%LPD*%
%AMOC8*
5,1,8,0,0,1.08239X$1,22.5*
%
%ADD10R,0.0531X0.0531*%
%ADD11R,0.0394X0.0433*%
%ADD12R,0.0276X0.0197*%
%ADD13C,0.0160*%
%ADD14C,0.0240*%
%ADD15C,0.0080*%
D10*
X002662Y002813D03*
X002662Y003813D03*
X002662Y004813D03*
X002662Y005813D03*
X002662Y006813D03*
X002662Y007813D03*
X007662Y007813D03*
X007662Y006813D03*
X007662Y005813D03*
X007662Y004813D03*
X007662Y003813D03*
X007662Y002813D03*
D11*
X004932Y004609D03*
X004932Y005278D03*
X003902Y005268D03*
X003902Y004599D03*
X006642Y006199D03*
X006642Y006868D03*
D12*
X006615Y005227D03*
X006615Y004440D03*
X005779Y004833D03*
D13*
X005779Y006347D01*
X005762Y006363D01*
X006642Y006199D02*
X006642Y005254D01*
X006615Y005227D01*
X006697Y006813D02*
X006642Y006868D01*
X006697Y006813D02*
X007662Y006813D01*
X004932Y004609D02*
X004408Y004609D01*
X004402Y004603D01*
X003907Y004603D01*
X003902Y004599D01*
X003902Y005268D02*
X003902Y006293D01*
D14*
X003902Y006293D03*
X004402Y004603D03*
X005762Y006363D03*
X004132Y002693D03*
D15*
X002702Y002773D02*
X002702Y002853D01*
X002622Y002853D01*
X002622Y003199D01*
X002381Y003199D01*
X002372Y003197D01*
X002372Y003428D01*
X002978Y003428D01*
X003048Y003498D01*
X003048Y004129D01*
X002978Y004199D01*
X002372Y004199D01*
X002372Y004428D01*
X002978Y004428D01*
X003048Y004498D01*
X003048Y005129D01*
X002978Y005199D01*
X002372Y005199D01*
X002372Y005428D01*
X002978Y005428D01*
X003048Y005498D01*
X003048Y006129D01*
X002978Y006199D01*
X002372Y006199D01*
X002372Y006428D01*
X002978Y006428D01*
X003048Y006498D01*
X003048Y007129D01*
X002978Y007199D01*
X002372Y007199D01*
X002372Y007428D01*
X002978Y007428D01*
X003048Y007498D01*
X003048Y008103D01*
X007277Y008103D01*
X007277Y007498D01*
X007347Y007428D01*
X007952Y007428D01*
X007952Y007199D01*
X007347Y007199D01*
X007277Y007129D01*
X007277Y007013D01*
X006959Y007013D01*
X006959Y007134D01*
X006889Y007204D01*
X006396Y007204D01*
X006325Y007134D01*
X006325Y006602D01*
X006394Y006533D01*
X006325Y006465D01*
X006325Y005932D01*
X006396Y005862D01*
X006442Y005862D01*
X006442Y005445D01*
X006428Y005445D01*
X006357Y005375D01*
X006357Y005079D01*
X006428Y005009D01*
X006803Y005009D01*
X006873Y005079D01*
X006873Y005375D01*
X006842Y005406D01*
X006842Y005862D01*
X006889Y005862D01*
X006959Y005932D01*
X006959Y006465D01*
X006891Y006533D01*
X006959Y006602D01*
X006959Y006613D01*
X007277Y006613D01*
X007277Y006498D01*
X007347Y006428D01*
X007952Y006428D01*
X007952Y006199D01*
X007347Y006199D01*
X007277Y006129D01*
X007277Y005498D01*
X007347Y005428D01*
X007952Y005428D01*
X007952Y005199D01*
X007347Y005199D01*
X007277Y005129D01*
X007277Y004498D01*
X007347Y004428D01*
X007952Y004428D01*
X007952Y004199D01*
X007347Y004199D01*
X007277Y004129D01*
X007277Y003498D01*
X007347Y003428D01*
X007952Y003428D01*
X007952Y003199D01*
X007347Y003199D01*
X007277Y003129D01*
X007277Y002523D01*
X003046Y002523D01*
X003048Y002532D01*
X003048Y002773D01*
X002702Y002773D01*
X002702Y002796D02*
X007277Y002796D01*
X007277Y002874D02*
X003048Y002874D01*
X003048Y002853D02*
X003048Y003095D01*
X003040Y003125D01*
X003024Y003153D01*
X003002Y003175D01*
X002974Y003191D01*
X002944Y003199D01*
X002702Y003199D01*
X002702Y002853D01*
X003048Y002853D01*
X003048Y002717D02*
X007277Y002717D01*
X007277Y002639D02*
X003048Y002639D01*
X003048Y002560D02*
X007277Y002560D01*
X007277Y002953D02*
X003048Y002953D01*
X003048Y003031D02*
X007277Y003031D01*
X007277Y003110D02*
X003044Y003110D01*
X002979Y003188D02*
X007336Y003188D01*
X007277Y003502D02*
X003048Y003502D01*
X003048Y003581D02*
X007277Y003581D01*
X007277Y003659D02*
X003048Y003659D01*
X003048Y003738D02*
X007277Y003738D01*
X007277Y003816D02*
X003048Y003816D01*
X003048Y003895D02*
X007277Y003895D01*
X007277Y003973D02*
X003048Y003973D01*
X003048Y004052D02*
X007277Y004052D01*
X007278Y004130D02*
X003046Y004130D01*
X002994Y004444D02*
X003585Y004444D01*
X003585Y004366D02*
X002372Y004366D01*
X002372Y004287D02*
X003631Y004287D01*
X003656Y004262D02*
X004149Y004262D01*
X004219Y004332D01*
X004219Y004403D01*
X004263Y004403D01*
X004266Y004400D01*
X004355Y004363D01*
X004450Y004363D01*
X004538Y004400D01*
X004547Y004409D01*
X004615Y004409D01*
X004615Y004342D01*
X004686Y004272D01*
X005179Y004272D01*
X005249Y004342D01*
X005249Y004875D01*
X005179Y004945D01*
X005159Y004945D01*
X005175Y004950D01*
X005203Y004965D01*
X005225Y004988D01*
X005241Y005015D01*
X005249Y005046D01*
X005249Y005238D01*
X004972Y005238D01*
X004972Y005318D01*
X004892Y005318D01*
X004892Y005238D01*
X004615Y005238D01*
X004615Y005046D01*
X004624Y005015D01*
X004639Y004988D01*
X004662Y004965D01*
X004689Y004950D01*
X004706Y004945D01*
X004686Y004945D01*
X004615Y004875D01*
X004615Y004809D01*
X004534Y004809D01*
X004450Y004843D01*
X004355Y004843D01*
X004266Y004807D01*
X004263Y004803D01*
X004219Y004803D01*
X004219Y004865D01*
X004151Y004933D01*
X004219Y005002D01*
X004219Y005534D01*
X004149Y005604D01*
X004102Y005604D01*
X004102Y006154D01*
X004106Y006157D01*
X004142Y006246D01*
X004142Y006341D01*
X004106Y006429D01*
X004038Y006497D01*
X003950Y006533D01*
X003855Y006533D01*
X003766Y006497D01*
X003699Y006429D01*
X003662Y006341D01*
X003662Y006246D01*
X003699Y006157D01*
X003702Y006154D01*
X003702Y005604D01*
X003656Y005604D01*
X003585Y005534D01*
X003585Y005002D01*
X003654Y004933D01*
X003585Y004865D01*
X003585Y004332D01*
X003656Y004262D01*
X003585Y004523D02*
X003048Y004523D01*
X003048Y004601D02*
X003585Y004601D01*
X003585Y004680D02*
X003048Y004680D01*
X003048Y004758D02*
X003585Y004758D01*
X003585Y004837D02*
X003048Y004837D01*
X003048Y004915D02*
X003636Y004915D01*
X003593Y004994D02*
X003048Y004994D01*
X003048Y005072D02*
X003585Y005072D01*
X003585Y005151D02*
X003026Y005151D01*
X003015Y005465D02*
X003585Y005465D01*
X003585Y005386D02*
X002372Y005386D01*
X002372Y005308D02*
X003585Y005308D01*
X003585Y005229D02*
X002372Y005229D01*
X003048Y005543D02*
X003595Y005543D01*
X003702Y005622D02*
X003048Y005622D01*
X003048Y005700D02*
X003702Y005700D01*
X003702Y005779D02*
X003048Y005779D01*
X003048Y005857D02*
X003702Y005857D01*
X003702Y005936D02*
X003048Y005936D01*
X003048Y006014D02*
X003702Y006014D01*
X003702Y006093D02*
X003048Y006093D01*
X003005Y006171D02*
X003693Y006171D01*
X003662Y006250D02*
X002372Y006250D01*
X002372Y006328D02*
X003662Y006328D01*
X003689Y006407D02*
X002372Y006407D01*
X003035Y006485D02*
X003755Y006485D01*
X004050Y006485D02*
X005553Y006485D01*
X005559Y006499D02*
X005522Y006411D01*
X005522Y006316D01*
X005559Y006227D01*
X005579Y006208D01*
X005579Y005039D01*
X005521Y004981D01*
X005521Y004685D01*
X005591Y004615D01*
X005966Y004615D01*
X006036Y004685D01*
X006036Y004981D01*
X005979Y005039D01*
X005979Y006258D01*
X006002Y006316D01*
X006002Y006411D01*
X005966Y006499D01*
X005898Y006567D01*
X005810Y006603D01*
X005715Y006603D01*
X005626Y006567D01*
X005559Y006499D01*
X005623Y006564D02*
X003048Y006564D01*
X003048Y006642D02*
X006325Y006642D01*
X006325Y006721D02*
X003048Y006721D01*
X003048Y006799D02*
X006325Y006799D01*
X006325Y006878D02*
X003048Y006878D01*
X003048Y006956D02*
X006325Y006956D01*
X006325Y007035D02*
X003048Y007035D01*
X003048Y007113D02*
X006325Y007113D01*
X006383Y007192D02*
X002985Y007192D01*
X003048Y007506D02*
X007277Y007506D01*
X007277Y007584D02*
X003048Y007584D01*
X003048Y007663D02*
X007277Y007663D01*
X007277Y007741D02*
X003048Y007741D01*
X003048Y007820D02*
X007277Y007820D01*
X007277Y007898D02*
X003048Y007898D01*
X003048Y007977D02*
X007277Y007977D01*
X007277Y008055D02*
X003048Y008055D01*
X002372Y007427D02*
X007952Y007427D01*
X007952Y007349D02*
X002372Y007349D01*
X002372Y007270D02*
X007952Y007270D01*
X007340Y007192D02*
X006901Y007192D01*
X006959Y007113D02*
X007277Y007113D01*
X007277Y007035D02*
X006959Y007035D01*
X006921Y006564D02*
X007277Y006564D01*
X007289Y006485D02*
X006939Y006485D01*
X006959Y006407D02*
X007952Y006407D01*
X007952Y006328D02*
X006959Y006328D01*
X006959Y006250D02*
X007952Y006250D01*
X007319Y006171D02*
X006959Y006171D01*
X006959Y006093D02*
X007277Y006093D01*
X007277Y006014D02*
X006959Y006014D01*
X006959Y005936D02*
X007277Y005936D01*
X007277Y005857D02*
X006842Y005857D01*
X006842Y005779D02*
X007277Y005779D01*
X007277Y005700D02*
X006842Y005700D01*
X006842Y005622D02*
X007277Y005622D01*
X007277Y005543D02*
X006842Y005543D01*
X006842Y005465D02*
X007310Y005465D01*
X007299Y005151D02*
X006873Y005151D01*
X006873Y005229D02*
X007952Y005229D01*
X007952Y005308D02*
X006873Y005308D01*
X006862Y005386D02*
X007952Y005386D01*
X007277Y005072D02*
X006866Y005072D01*
X007277Y004994D02*
X006024Y004994D01*
X006036Y004915D02*
X007277Y004915D01*
X007277Y004837D02*
X006036Y004837D01*
X006036Y004758D02*
X007277Y004758D01*
X007277Y004680D02*
X006031Y004680D01*
X006366Y004584D02*
X006357Y004554D01*
X006357Y004449D01*
X006606Y004449D01*
X006606Y004658D01*
X006462Y004658D01*
X006431Y004650D01*
X006404Y004634D01*
X006381Y004612D01*
X006366Y004584D01*
X006375Y004601D02*
X005249Y004601D01*
X005249Y004523D02*
X006357Y004523D01*
X006357Y004430D02*
X006357Y004325D01*
X006366Y004295D01*
X006381Y004267D01*
X006404Y004245D01*
X006431Y004229D01*
X006462Y004221D01*
X006606Y004221D01*
X006606Y004430D01*
X006624Y004430D01*
X006624Y004221D01*
X006769Y004221D01*
X006799Y004229D01*
X006827Y004245D01*
X006849Y004267D01*
X006865Y004295D01*
X006873Y004325D01*
X006873Y004430D01*
X006624Y004430D01*
X006624Y004449D01*
X006606Y004449D01*
X006606Y004430D01*
X006357Y004430D01*
X006357Y004366D02*
X005249Y004366D01*
X005249Y004444D02*
X006606Y004444D01*
X006624Y004444D02*
X007330Y004444D01*
X007277Y004523D02*
X006873Y004523D01*
X006873Y004554D02*
X006873Y004449D01*
X006624Y004449D01*
X006624Y004658D01*
X006769Y004658D01*
X006799Y004650D01*
X006827Y004634D01*
X006849Y004612D01*
X006865Y004584D01*
X006873Y004554D01*
X006855Y004601D02*
X007277Y004601D01*
X006873Y004366D02*
X007952Y004366D01*
X007952Y004287D02*
X006860Y004287D01*
X006624Y004287D02*
X006606Y004287D01*
X006606Y004366D02*
X006624Y004366D01*
X006624Y004523D02*
X006606Y004523D01*
X006606Y004601D02*
X006624Y004601D01*
X006370Y004287D02*
X005194Y004287D01*
X005249Y004680D02*
X005526Y004680D01*
X005521Y004758D02*
X005249Y004758D01*
X005249Y004837D02*
X005521Y004837D01*
X005521Y004915D02*
X005209Y004915D01*
X005229Y004994D02*
X005533Y004994D01*
X005579Y005072D02*
X005249Y005072D01*
X005249Y005151D02*
X005579Y005151D01*
X005579Y005229D02*
X005249Y005229D01*
X005249Y005318D02*
X005249Y005510D01*
X005241Y005541D01*
X005225Y005568D01*
X005203Y005591D01*
X005175Y005606D01*
X005145Y005614D01*
X004972Y005614D01*
X004972Y005318D01*
X005249Y005318D01*
X005249Y005386D02*
X005579Y005386D01*
X005579Y005308D02*
X004972Y005308D01*
X004972Y005386D02*
X004892Y005386D01*
X004892Y005318D02*
X004892Y005614D01*
X004720Y005614D01*
X004689Y005606D01*
X004662Y005591D01*
X004639Y005568D01*
X004624Y005541D01*
X004615Y005510D01*
X004615Y005318D01*
X004892Y005318D01*
X004892Y005308D02*
X004219Y005308D01*
X004219Y005386D02*
X004615Y005386D01*
X004615Y005465D02*
X004219Y005465D01*
X004210Y005543D02*
X004625Y005543D01*
X004892Y005543D02*
X004972Y005543D01*
X004972Y005465D02*
X004892Y005465D01*
X005239Y005543D02*
X005579Y005543D01*
X005579Y005465D02*
X005249Y005465D01*
X005579Y005622D02*
X004102Y005622D01*
X004102Y005700D02*
X005579Y005700D01*
X005579Y005779D02*
X004102Y005779D01*
X004102Y005857D02*
X005579Y005857D01*
X005579Y005936D02*
X004102Y005936D01*
X004102Y006014D02*
X005579Y006014D01*
X005579Y006093D02*
X004102Y006093D01*
X004111Y006171D02*
X005579Y006171D01*
X005549Y006250D02*
X004142Y006250D01*
X004142Y006328D02*
X005522Y006328D01*
X005522Y006407D02*
X004115Y006407D01*
X004219Y005229D02*
X004615Y005229D01*
X004615Y005151D02*
X004219Y005151D01*
X004219Y005072D02*
X004615Y005072D01*
X004636Y004994D02*
X004211Y004994D01*
X004169Y004915D02*
X004656Y004915D01*
X004615Y004837D02*
X004466Y004837D01*
X004339Y004837D02*
X004219Y004837D01*
X004219Y004366D02*
X004348Y004366D01*
X004456Y004366D02*
X004615Y004366D01*
X004671Y004287D02*
X004174Y004287D01*
X002702Y003188D02*
X002622Y003188D01*
X002622Y003110D02*
X002702Y003110D01*
X002702Y003031D02*
X002622Y003031D01*
X002622Y002953D02*
X002702Y002953D01*
X002702Y002874D02*
X002622Y002874D01*
X002372Y003267D02*
X007952Y003267D01*
X007952Y003345D02*
X002372Y003345D01*
X002372Y003424D02*
X007952Y003424D01*
X007952Y004209D02*
X002372Y004209D01*
X005901Y006564D02*
X006363Y006564D01*
X006346Y006485D02*
X005971Y006485D01*
X006002Y006407D02*
X006325Y006407D01*
X006325Y006328D02*
X006002Y006328D01*
X005979Y006250D02*
X006325Y006250D01*
X006325Y006171D02*
X005979Y006171D01*
X005979Y006093D02*
X006325Y006093D01*
X006325Y006014D02*
X005979Y006014D01*
X005979Y005936D02*
X006325Y005936D01*
X006442Y005857D02*
X005979Y005857D01*
X005979Y005779D02*
X006442Y005779D01*
X006442Y005700D02*
X005979Y005700D01*
X005979Y005622D02*
X006442Y005622D01*
X006442Y005543D02*
X005979Y005543D01*
X005979Y005465D02*
X006442Y005465D01*
X006369Y005386D02*
X005979Y005386D01*
X005979Y005308D02*
X006357Y005308D01*
X006357Y005229D02*
X005979Y005229D01*
X005979Y005151D02*
X006357Y005151D01*
X006364Y005072D02*
X005979Y005072D01*
M02*
