G75*
%MOIN*%
%OFA0B0*%
%FSLAX24Y24*%
%IPPOS*%
%LPD*%
%AMOC8*
5,1,8,0,0,1.08239X$1,22.5*
%
%ADD10R,0.0531X0.0531*%
%ADD11R,0.0650X0.0295*%
%ADD12R,0.0571X0.0177*%
%ADD13C,0.0240*%
%ADD14C,0.0160*%
%ADD15C,0.0080*%
D10*
X002833Y002813D03*
X002833Y003813D03*
X002833Y004813D03*
X002833Y005813D03*
X002833Y006813D03*
X002833Y007813D03*
X007833Y007813D03*
X007833Y006813D03*
X007833Y005813D03*
X007833Y004813D03*
X007833Y003813D03*
X007833Y002813D03*
D11*
X006187Y005843D03*
X004179Y005843D03*
D12*
X004300Y003845D03*
X004300Y003589D03*
X004300Y003333D03*
X004300Y003077D03*
X006083Y003077D03*
X006083Y003333D03*
X006083Y003589D03*
X006083Y003845D03*
D13*
X004573Y004603D03*
X004073Y006293D03*
X005933Y006363D03*
X004303Y002693D03*
D14*
X004300Y002710D01*
X004300Y003077D01*
X004300Y003333D02*
X003313Y003333D01*
X002833Y003813D01*
X003443Y003933D02*
X003443Y004203D01*
X002833Y004813D01*
X003443Y003933D02*
X003787Y003589D01*
X004300Y003589D01*
X004300Y003845D02*
X004300Y004347D01*
X002833Y005813D01*
X002833Y006813D02*
X003553Y006813D01*
X004073Y006293D01*
X004073Y005949D01*
X004179Y005843D01*
X005933Y006097D02*
X006187Y005843D01*
X005933Y006097D02*
X005933Y006363D01*
X007383Y007813D01*
X007833Y007813D01*
X007833Y004813D02*
X007183Y004163D01*
X007183Y003803D01*
X006969Y003589D01*
X006083Y003589D01*
X006083Y003333D02*
X007353Y003333D01*
X007833Y003813D01*
X007833Y002813D02*
X006347Y002813D01*
X006083Y003077D01*
D15*
X006009Y002869D02*
X006147Y002730D01*
X006264Y002613D01*
X007448Y002613D01*
X007448Y002523D01*
X004473Y002523D01*
X004507Y002557D01*
X004543Y002646D01*
X004543Y002741D01*
X004507Y002829D01*
X004500Y002836D01*
X004500Y002869D01*
X004635Y002869D01*
X004705Y002939D01*
X004705Y003728D01*
X004705Y003983D01*
X004635Y004054D01*
X004500Y004054D01*
X004500Y004430D01*
X003219Y005710D01*
X003219Y006129D01*
X003149Y006199D01*
X002543Y006199D01*
X002543Y006428D01*
X003149Y006428D01*
X003219Y006498D01*
X003219Y006613D01*
X003470Y006613D01*
X003833Y006250D01*
X002543Y006250D01*
X002543Y006328D02*
X003755Y006328D01*
X003833Y006250D02*
X003833Y006246D01*
X003870Y006157D01*
X003873Y006154D01*
X003873Y006111D01*
X003805Y006111D01*
X003735Y006041D01*
X003735Y005646D01*
X003805Y005576D01*
X004554Y005576D01*
X004624Y005646D01*
X004624Y006041D01*
X004554Y006111D01*
X004273Y006111D01*
X004273Y006154D01*
X004277Y006157D01*
X004313Y006246D01*
X004313Y006341D01*
X004277Y006429D01*
X004209Y006497D01*
X004121Y006533D01*
X004116Y006533D01*
X003636Y007013D01*
X003219Y007013D01*
X003219Y007129D01*
X003149Y007199D01*
X002543Y007199D01*
X002543Y007428D01*
X003149Y007428D01*
X003219Y007498D01*
X003219Y008103D01*
X007448Y008103D01*
X007448Y008013D01*
X007300Y008013D01*
X005890Y006603D01*
X005886Y006603D01*
X005797Y006567D01*
X005730Y006499D01*
X005693Y006411D01*
X005693Y006316D01*
X005730Y006227D01*
X005733Y006224D01*
X005733Y006014D01*
X004624Y006014D01*
X004624Y005936D02*
X005742Y005936D01*
X005742Y006005D02*
X005742Y005646D01*
X005813Y005576D01*
X006562Y005576D01*
X006632Y005646D01*
X006632Y006041D01*
X006562Y006111D01*
X006202Y006111D01*
X006133Y006180D01*
X006133Y006224D01*
X006137Y006227D01*
X006173Y006316D01*
X006173Y006320D01*
X007448Y007595D01*
X007448Y007498D01*
X007518Y007428D01*
X008123Y007428D01*
X008123Y007199D01*
X007518Y007199D01*
X007448Y007129D01*
X007448Y006498D01*
X007518Y006428D01*
X008123Y006428D01*
X008123Y006197D01*
X008115Y006199D01*
X007873Y006199D01*
X007873Y005853D01*
X007793Y005853D01*
X007793Y005773D01*
X007873Y005773D01*
X007873Y005428D01*
X008115Y005428D01*
X008123Y005430D01*
X008123Y005199D01*
X007518Y005199D01*
X007448Y005129D01*
X007448Y004710D01*
X006983Y004246D01*
X006983Y003886D01*
X006886Y003789D01*
X006488Y003789D01*
X006488Y003841D01*
X006087Y003841D01*
X006087Y003849D01*
X006488Y003849D01*
X006488Y003950D01*
X006480Y003980D01*
X006464Y004007D01*
X006442Y004030D01*
X006415Y004046D01*
X006384Y004054D01*
X006087Y004054D01*
X006087Y003849D01*
X006079Y003849D01*
X006079Y003841D01*
X005678Y003841D01*
X005678Y003741D01*
X005680Y003730D01*
X005678Y003728D01*
X005678Y002939D01*
X005748Y002869D01*
X006009Y002869D01*
X006082Y002796D02*
X004521Y002796D01*
X004543Y002717D02*
X006160Y002717D01*
X006239Y002639D02*
X004540Y002639D01*
X004508Y002560D02*
X007448Y002560D01*
X006913Y003816D02*
X006488Y003816D01*
X006488Y003895D02*
X006983Y003895D01*
X006983Y003973D02*
X006482Y003973D01*
X006392Y004052D02*
X006983Y004052D01*
X006983Y004130D02*
X004500Y004130D01*
X004500Y004209D02*
X006983Y004209D01*
X007024Y004287D02*
X004500Y004287D01*
X004500Y004366D02*
X007103Y004366D01*
X007181Y004444D02*
X004485Y004444D01*
X004407Y004523D02*
X007260Y004523D01*
X007338Y004601D02*
X004328Y004601D01*
X004250Y004680D02*
X007417Y004680D01*
X007448Y004758D02*
X004171Y004758D01*
X004093Y004837D02*
X007448Y004837D01*
X007448Y004915D02*
X004014Y004915D01*
X003936Y004994D02*
X007448Y004994D01*
X007448Y005072D02*
X003857Y005072D01*
X003779Y005151D02*
X007470Y005151D01*
X007552Y005428D02*
X007793Y005428D01*
X007793Y005773D01*
X007448Y005773D01*
X007448Y005532D01*
X007456Y005501D01*
X007472Y005474D01*
X007494Y005452D01*
X007521Y005436D01*
X007552Y005428D01*
X007481Y005465D02*
X003465Y005465D01*
X003543Y005386D02*
X008123Y005386D01*
X008123Y005308D02*
X003622Y005308D01*
X003700Y005229D02*
X008123Y005229D01*
X007873Y005465D02*
X007793Y005465D01*
X007793Y005543D02*
X007873Y005543D01*
X007873Y005622D02*
X007793Y005622D01*
X007793Y005700D02*
X007873Y005700D01*
X007793Y005779D02*
X006632Y005779D01*
X006632Y005857D02*
X007448Y005857D01*
X007448Y005853D02*
X007793Y005853D01*
X007793Y006199D01*
X007552Y006199D01*
X007521Y006191D01*
X007494Y006175D01*
X007472Y006153D01*
X007456Y006125D01*
X007448Y006095D01*
X007448Y005853D01*
X007448Y005936D02*
X006632Y005936D01*
X006632Y006014D02*
X007448Y006014D01*
X007448Y006093D02*
X006580Y006093D01*
X006260Y006407D02*
X008123Y006407D01*
X008123Y006328D02*
X006181Y006328D01*
X006146Y006250D02*
X008123Y006250D01*
X007873Y006171D02*
X007793Y006171D01*
X007793Y006093D02*
X007873Y006093D01*
X007873Y006014D02*
X007793Y006014D01*
X007793Y005936D02*
X007873Y005936D01*
X007873Y005857D02*
X007793Y005857D01*
X007448Y005700D02*
X006632Y005700D01*
X006608Y005622D02*
X007448Y005622D01*
X007448Y005543D02*
X003386Y005543D01*
X003308Y005622D02*
X003759Y005622D01*
X003735Y005700D02*
X003229Y005700D01*
X003219Y005779D02*
X003735Y005779D01*
X003735Y005857D02*
X003219Y005857D01*
X003219Y005936D02*
X003735Y005936D01*
X003735Y006014D02*
X003219Y006014D01*
X003219Y006093D02*
X003787Y006093D01*
X003864Y006171D02*
X003176Y006171D01*
X003206Y006485D02*
X003598Y006485D01*
X003520Y006564D02*
X003219Y006564D01*
X003219Y007035D02*
X006322Y007035D01*
X006400Y007113D02*
X003219Y007113D01*
X003156Y007192D02*
X006479Y007192D01*
X006557Y007270D02*
X002543Y007270D01*
X002543Y007349D02*
X006636Y007349D01*
X006714Y007427D02*
X002543Y007427D01*
X003219Y007506D02*
X006793Y007506D01*
X006871Y007584D02*
X003219Y007584D01*
X003219Y007663D02*
X006950Y007663D01*
X007028Y007741D02*
X003219Y007741D01*
X003219Y007820D02*
X007107Y007820D01*
X007185Y007898D02*
X003219Y007898D01*
X003219Y007977D02*
X007264Y007977D01*
X007448Y008055D02*
X003219Y008055D01*
X003693Y006956D02*
X006243Y006956D01*
X006165Y006878D02*
X003772Y006878D01*
X003850Y006799D02*
X006086Y006799D01*
X006008Y006721D02*
X003929Y006721D01*
X004007Y006642D02*
X005929Y006642D01*
X005794Y006564D02*
X004086Y006564D01*
X004221Y006485D02*
X005724Y006485D01*
X005693Y006407D02*
X004286Y006407D01*
X004313Y006328D02*
X005693Y006328D01*
X005721Y006250D02*
X004313Y006250D01*
X004283Y006171D02*
X005733Y006171D01*
X005733Y006093D02*
X004572Y006093D01*
X004624Y005857D02*
X005742Y005857D01*
X005742Y005779D02*
X004624Y005779D01*
X004624Y005700D02*
X005742Y005700D01*
X005767Y005622D02*
X004600Y005622D01*
X003677Y006407D02*
X002543Y006407D01*
X004637Y004052D02*
X005774Y004052D01*
X005782Y004054D02*
X005751Y004046D01*
X005724Y004030D01*
X005702Y004007D01*
X005686Y003980D01*
X005678Y003950D01*
X005678Y003849D01*
X006079Y003849D01*
X006079Y004054D01*
X005782Y004054D01*
X005684Y003973D02*
X004705Y003973D01*
X004705Y003895D02*
X005678Y003895D01*
X005678Y003816D02*
X004705Y003816D01*
X004705Y003738D02*
X005678Y003738D01*
X005678Y003659D02*
X004705Y003659D01*
X004705Y003581D02*
X005678Y003581D01*
X005678Y003502D02*
X004705Y003502D01*
X004705Y003424D02*
X005678Y003424D01*
X005678Y003345D02*
X004705Y003345D01*
X004705Y003267D02*
X005678Y003267D01*
X005678Y003188D02*
X004705Y003188D01*
X004705Y003110D02*
X005678Y003110D01*
X005678Y003031D02*
X004705Y003031D01*
X004705Y002953D02*
X005678Y002953D01*
X005742Y002874D02*
X004640Y002874D01*
X006079Y003895D02*
X006087Y003895D01*
X006079Y003973D02*
X006087Y003973D01*
X006079Y004052D02*
X006087Y004052D01*
X005742Y006005D02*
X005733Y006014D01*
X006142Y006171D02*
X007490Y006171D01*
X007460Y006485D02*
X006338Y006485D01*
X006417Y006564D02*
X007448Y006564D01*
X007448Y006642D02*
X006495Y006642D01*
X006574Y006721D02*
X007448Y006721D01*
X007448Y006799D02*
X006652Y006799D01*
X006731Y006878D02*
X007448Y006878D01*
X007448Y006956D02*
X006809Y006956D01*
X006888Y007035D02*
X007448Y007035D01*
X007448Y007113D02*
X006966Y007113D01*
X007045Y007192D02*
X007511Y007192D01*
X007280Y007427D02*
X008123Y007427D01*
X008123Y007349D02*
X007202Y007349D01*
X007123Y007270D02*
X008123Y007270D01*
X007448Y007506D02*
X007359Y007506D01*
X007437Y007584D02*
X007448Y007584D01*
M02*
