G75*
%MOIN*%
%OFA0B0*%
%FSLAX24Y24*%
%IPPOS*%
%LPD*%
%AMOC8*
5,1,8,0,0,1.08239X$1,22.5*
%
%ADD10C,0.0050*%
D10*
X006378Y006614D02*
X006488Y006614D01*
X006488Y006669D01*
X006470Y006687D01*
X006433Y006687D01*
X006415Y006669D01*
X006415Y006614D01*
X006415Y006650D02*
X006378Y006687D01*
X006452Y006761D02*
X006488Y006798D01*
X006378Y006798D01*
X006378Y006834D02*
X006378Y006761D01*
X003638Y005014D02*
X003748Y005014D01*
X003748Y005069D01*
X003730Y005087D01*
X003693Y005087D01*
X003675Y005069D01*
X003675Y005014D01*
X003675Y005050D02*
X003638Y005087D01*
X003638Y005234D02*
X003638Y005161D01*
X003712Y005234D01*
X003730Y005234D01*
X003748Y005216D01*
X003748Y005179D01*
X003730Y005161D01*
X006736Y004693D02*
X006809Y004693D01*
X006828Y004712D01*
X006828Y004748D01*
X006809Y004767D01*
X006736Y004767D01*
X006718Y004748D01*
X006718Y004712D01*
X006736Y004693D01*
X006754Y004730D02*
X006718Y004767D01*
X006791Y004841D02*
X006828Y004877D01*
X006718Y004877D01*
X006718Y004841D02*
X006718Y004914D01*
X004760Y005097D02*
X004778Y005079D01*
X004778Y005042D01*
X004760Y005024D01*
X004687Y005024D01*
X004668Y005042D01*
X004668Y005079D01*
X004687Y005097D01*
X004742Y005171D02*
X004778Y005208D01*
X004668Y005208D01*
X004668Y005244D02*
X004668Y005171D01*
M02*
