G75*
%MOIN*%
%OFA0B0*%
%FSLAX24Y24*%
%IPPOS*%
%LPD*%
%AMOC8*
5,1,8,0,0,1.08239X$1,22.5*
%
%ADD10C,0.0010*%
%ADD11C,0.0000*%
%ADD12C,0.0050*%
%ADD13C,0.0031*%
D10*
X003338Y002843D02*
X003363Y002818D01*
X003413Y002818D01*
X003438Y002843D01*
X003438Y002893D01*
X003388Y002893D01*
X003338Y002943D02*
X003338Y002843D01*
X003338Y002943D02*
X003363Y002968D01*
X003413Y002968D01*
X003438Y002943D01*
X003486Y002968D02*
X003586Y002818D01*
X003586Y002968D01*
X003633Y002968D02*
X003708Y002968D01*
X003733Y002943D01*
X003733Y002843D01*
X003708Y002818D01*
X003633Y002818D01*
X003633Y002968D01*
X003486Y002968D02*
X003486Y002818D01*
X003486Y003818D02*
X003561Y003818D01*
X003586Y003843D01*
X003586Y003943D01*
X003561Y003968D01*
X003486Y003968D01*
X003486Y003818D01*
X003438Y003843D02*
X003438Y003868D01*
X003413Y003893D01*
X003363Y003893D01*
X003338Y003918D01*
X003338Y003943D01*
X003363Y003968D01*
X003413Y003968D01*
X003438Y003943D01*
X003438Y003843D02*
X003413Y003818D01*
X003363Y003818D01*
X003338Y003843D01*
X003633Y003818D02*
X003633Y003918D01*
X003683Y003968D01*
X003733Y003918D01*
X003733Y003818D01*
X003733Y003893D02*
X003633Y003893D01*
X003633Y004818D02*
X003733Y004818D01*
X003633Y004818D02*
X003633Y004968D01*
X003586Y004943D02*
X003561Y004968D01*
X003511Y004968D01*
X003486Y004943D01*
X003486Y004843D01*
X003511Y004818D01*
X003561Y004818D01*
X003586Y004843D01*
X003438Y004843D02*
X003413Y004818D01*
X003363Y004818D01*
X003338Y004843D01*
X003363Y004893D02*
X003413Y004893D01*
X003438Y004868D01*
X003438Y004843D01*
X003363Y004893D02*
X003338Y004918D01*
X003338Y004943D01*
X003363Y004968D01*
X003413Y004968D01*
X003438Y004943D01*
X003438Y005818D02*
X003438Y005918D01*
X003388Y005968D01*
X003338Y005918D01*
X003338Y005818D01*
X003338Y005893D02*
X003438Y005893D01*
X003486Y005843D02*
X003586Y005943D01*
X003586Y005843D01*
X003561Y005818D01*
X003511Y005818D01*
X003486Y005843D01*
X003486Y005943D01*
X003511Y005968D01*
X003561Y005968D01*
X003586Y005943D01*
X003438Y006818D02*
X003338Y006818D01*
X003338Y006968D01*
X003486Y006893D02*
X003586Y006893D01*
X003536Y006943D02*
X003536Y006843D01*
X003511Y007818D02*
X003561Y007818D01*
X003586Y007843D01*
X003511Y007818D02*
X003486Y007843D01*
X003486Y007943D01*
X003511Y007968D01*
X003561Y007968D01*
X003586Y007943D01*
X003438Y007968D02*
X003438Y007818D01*
X003338Y007968D01*
X003338Y007818D01*
X006749Y005808D02*
X006749Y005708D01*
X006799Y005658D01*
X006849Y005708D01*
X006849Y005808D01*
X006896Y005808D02*
X006971Y005808D01*
X006996Y005783D01*
X006996Y005758D01*
X006971Y005733D01*
X006896Y005733D01*
X006896Y005658D02*
X006971Y005658D01*
X006996Y005683D01*
X006996Y005708D01*
X006971Y005733D01*
X007044Y005733D02*
X007144Y005733D01*
X007144Y005758D02*
X007144Y005658D01*
X007241Y005658D02*
X007241Y005808D01*
X007191Y005808D02*
X007291Y005808D01*
X007144Y005758D02*
X007094Y005808D01*
X007044Y005758D01*
X007044Y005658D01*
X006896Y005658D02*
X006896Y005808D01*
X007093Y006658D02*
X007143Y006658D01*
X007118Y006658D02*
X007118Y006808D01*
X007093Y006808D02*
X007143Y006808D01*
X007191Y006808D02*
X007291Y006658D01*
X007291Y006808D01*
X007191Y006808D02*
X007191Y006658D01*
X007144Y007658D02*
X007044Y007658D01*
X007044Y007808D01*
X007191Y007733D02*
X007291Y007733D01*
X007266Y004808D02*
X007191Y004808D01*
X007191Y004658D01*
X007266Y004658D01*
X007291Y004683D01*
X007291Y004708D01*
X007266Y004733D01*
X007191Y004733D01*
X007144Y004683D02*
X007119Y004658D01*
X007069Y004658D01*
X007044Y004683D01*
X007144Y004783D01*
X007144Y004683D01*
X007044Y004683D02*
X007044Y004783D01*
X007069Y004808D01*
X007119Y004808D01*
X007144Y004783D01*
X006996Y004783D02*
X006996Y004733D01*
X006971Y004708D01*
X006896Y004708D01*
X006896Y004658D02*
X006896Y004808D01*
X006971Y004808D01*
X006996Y004783D01*
X007266Y004808D02*
X007291Y004783D01*
X007291Y004758D01*
X007266Y004733D01*
X007291Y003808D02*
X007291Y003658D01*
X007241Y003708D01*
X007191Y003658D01*
X007191Y003808D01*
X007144Y003783D02*
X007044Y003683D01*
X007069Y003658D01*
X007119Y003658D01*
X007144Y003683D01*
X007144Y003783D01*
X007119Y003808D01*
X007069Y003808D01*
X007044Y003783D01*
X007044Y003683D01*
X006996Y003733D02*
X006971Y003708D01*
X006896Y003708D01*
X006896Y003658D02*
X006896Y003808D01*
X006971Y003808D01*
X006996Y003783D01*
X006996Y003733D01*
X006971Y002808D02*
X006896Y002808D01*
X006896Y002658D01*
X006896Y002708D02*
X006971Y002708D01*
X006996Y002733D01*
X006996Y002783D01*
X006971Y002808D01*
X007044Y002783D02*
X007069Y002808D01*
X007119Y002808D01*
X007144Y002783D01*
X007044Y002683D01*
X007069Y002658D01*
X007119Y002658D01*
X007144Y002683D01*
X007144Y002783D01*
X007191Y002758D02*
X007241Y002808D01*
X007291Y002758D01*
X007291Y002658D01*
X007291Y002733D02*
X007191Y002733D01*
X007191Y002758D02*
X007191Y002658D01*
X007044Y002683D02*
X007044Y002783D01*
X005154Y004145D02*
X005054Y004145D01*
X005104Y004145D02*
X005104Y004296D01*
X005054Y004246D01*
X005006Y004296D02*
X004906Y004296D01*
X004956Y004296D02*
X004956Y004145D01*
X004859Y004170D02*
X004859Y004271D01*
X004834Y004296D01*
X004784Y004296D01*
X004759Y004271D01*
X004759Y004170D01*
X004784Y004145D01*
X004834Y004145D01*
X004859Y004170D01*
X004712Y004221D02*
X004687Y004196D01*
X004612Y004196D01*
X004612Y004145D02*
X004612Y004296D01*
X004687Y004296D01*
X004712Y004271D01*
X004712Y004221D01*
D11*
X003103Y002813D02*
X002563Y002813D01*
X002833Y002543D02*
X002833Y003083D01*
X002833Y003543D02*
X002833Y004083D01*
X002563Y003813D02*
X003103Y003813D01*
X002833Y004543D02*
X002833Y005083D01*
X002563Y004813D02*
X003103Y004813D01*
X002833Y005543D02*
X002833Y006083D01*
X002563Y005813D02*
X003103Y005813D01*
X002833Y006543D02*
X002833Y007083D01*
X002563Y006813D02*
X003103Y006813D01*
X002833Y007543D02*
X002833Y008083D01*
X002563Y007813D02*
X003103Y007813D01*
X004783Y005843D02*
X005583Y005843D01*
X005183Y005443D02*
X005183Y006243D01*
X007563Y005813D02*
X008103Y005813D01*
X007833Y005543D02*
X007833Y006083D01*
X007833Y006543D02*
X007833Y007083D01*
X007563Y006813D02*
X008103Y006813D01*
X007833Y007543D02*
X007833Y008083D01*
X007563Y007813D02*
X008103Y007813D01*
X007833Y005083D02*
X007833Y004543D01*
X007563Y004813D02*
X008103Y004813D01*
X007833Y004083D02*
X007833Y003543D01*
X007563Y003813D02*
X008103Y003813D01*
X007833Y003083D02*
X007833Y002543D01*
X007563Y002813D02*
X008103Y002813D01*
X005593Y003463D02*
X004793Y003463D01*
X005193Y003063D02*
X005193Y003863D01*
D12*
X004717Y003845D02*
X004719Y003865D01*
X004725Y003884D01*
X004734Y003902D01*
X004746Y003918D01*
X004762Y003931D01*
X004779Y003941D01*
X004798Y003948D01*
X004818Y003951D01*
X004838Y003950D01*
X004858Y003945D01*
X004876Y003937D01*
X004892Y003925D01*
X004906Y003911D01*
X004917Y003894D01*
X004925Y003875D01*
X004929Y003855D01*
X004929Y003835D01*
X004925Y003815D01*
X004917Y003796D01*
X004906Y003779D01*
X004892Y003765D01*
X004876Y003753D01*
X004858Y003745D01*
X004838Y003740D01*
X004818Y003739D01*
X004798Y003742D01*
X004779Y003749D01*
X004762Y003759D01*
X004746Y003772D01*
X004734Y003788D01*
X004725Y003806D01*
X004719Y003825D01*
X004717Y003845D01*
X005268Y005000D02*
X005341Y005000D01*
X005268Y005000D02*
X005268Y005110D01*
X005415Y005073D02*
X005452Y005110D01*
X005452Y005000D01*
X005415Y005000D02*
X005489Y005000D01*
X004533Y005843D02*
X004535Y005893D01*
X004541Y005943D01*
X004551Y005993D01*
X004564Y006041D01*
X004581Y006089D01*
X004602Y006135D01*
X004626Y006179D01*
X004654Y006221D01*
X004685Y006261D01*
X004719Y006298D01*
X004756Y006333D01*
X004795Y006364D01*
X004836Y006393D01*
X004880Y006418D01*
X004926Y006440D01*
X004973Y006458D01*
X005021Y006472D01*
X005070Y006483D01*
X005120Y006490D01*
X005170Y006493D01*
X005221Y006492D01*
X005271Y006487D01*
X005321Y006478D01*
X005369Y006466D01*
X005417Y006449D01*
X005463Y006429D01*
X005508Y006406D01*
X005551Y006379D01*
X005591Y006349D01*
X005629Y006316D01*
X005664Y006280D01*
X005697Y006241D01*
X005726Y006200D01*
X005752Y006157D01*
X005775Y006112D01*
X005794Y006065D01*
X005809Y006017D01*
X005821Y005968D01*
X005829Y005918D01*
X005833Y005868D01*
X005833Y005818D01*
X005829Y005768D01*
X005821Y005718D01*
X005809Y005669D01*
X005794Y005621D01*
X005775Y005574D01*
X005752Y005529D01*
X005726Y005486D01*
X005697Y005445D01*
X005664Y005406D01*
X005629Y005370D01*
X005591Y005337D01*
X005551Y005307D01*
X005508Y005280D01*
X005463Y005257D01*
X005417Y005237D01*
X005369Y005220D01*
X005321Y005208D01*
X005271Y005199D01*
X005221Y005194D01*
X005170Y005193D01*
X005120Y005196D01*
X005070Y005203D01*
X005021Y005214D01*
X004973Y005228D01*
X004926Y005246D01*
X004880Y005268D01*
X004836Y005293D01*
X004795Y005322D01*
X004756Y005353D01*
X004719Y005388D01*
X004685Y005425D01*
X004654Y005465D01*
X004626Y005507D01*
X004602Y005551D01*
X004581Y005597D01*
X004564Y005645D01*
X004551Y005693D01*
X004541Y005743D01*
X004535Y005793D01*
X004533Y005843D01*
D13*
X004603Y004054D02*
X004603Y002873D01*
X005784Y002873D01*
X005784Y004054D01*
X004603Y004054D01*
M02*
