G75*
%MOIN*%
%OFA0B0*%
%FSLAX24Y24*%
%IPPOS*%
%LPD*%
%AMOC8*
5,1,8,0,0,1.08239X$1,22.5*
%
%ADD10C,0.0040*%
%ADD11C,0.0010*%
%ADD12C,0.0000*%
%ADD13C,0.0020*%
%ADD14R,0.0148X0.0098*%
D10*
X003812Y004317D02*
X004334Y004317D01*
X004335Y004318D02*
X004336Y005546D01*
X004337Y005545D02*
X003813Y005545D01*
X003813Y005548D02*
X003812Y004319D01*
X004842Y004327D02*
X005364Y004327D01*
X005365Y004328D02*
X005366Y005556D01*
X005367Y005555D02*
X004843Y005555D01*
X004843Y005558D02*
X004842Y004329D01*
X006552Y005917D02*
X007074Y005917D01*
X007075Y005918D02*
X007076Y007146D01*
X007077Y007145D02*
X006553Y007145D01*
X006553Y007148D02*
X006552Y005919D01*
D11*
X006508Y006594D02*
X006358Y006594D01*
X006408Y006594D02*
X006408Y006669D01*
X006433Y006694D01*
X006483Y006694D01*
X006508Y006669D01*
X006508Y006594D01*
X006408Y006644D02*
X006358Y006694D01*
X006358Y006741D02*
X006358Y006841D01*
X006358Y006791D02*
X006508Y006791D01*
X006458Y006741D01*
X004798Y005201D02*
X004648Y005201D01*
X004648Y005151D02*
X004648Y005251D01*
X004748Y005151D02*
X004798Y005201D01*
X004773Y005104D02*
X004798Y005079D01*
X004798Y005029D01*
X004773Y005004D01*
X004673Y005004D01*
X004648Y005029D01*
X004648Y005079D01*
X004673Y005104D01*
X003768Y005069D02*
X003768Y004994D01*
X003618Y004994D01*
X003668Y004994D02*
X003668Y005069D01*
X003693Y005094D01*
X003743Y005094D01*
X003768Y005069D01*
X003743Y005141D02*
X003768Y005166D01*
X003768Y005216D01*
X003743Y005241D01*
X003718Y005241D01*
X003618Y005141D01*
X003618Y005241D01*
X003618Y005094D02*
X003668Y005044D01*
X006698Y004941D02*
X006698Y004841D01*
X006698Y004793D02*
X006748Y004743D01*
X006698Y004718D02*
X006723Y004693D01*
X006823Y004693D01*
X006848Y004718D01*
X006848Y004768D01*
X006823Y004793D01*
X006723Y004793D01*
X006698Y004768D01*
X006698Y004718D01*
X006798Y004841D02*
X006848Y004891D01*
X006698Y004891D01*
D12*
X006743Y004833D02*
X005943Y004833D01*
X006343Y004433D02*
X006343Y005233D01*
X005430Y004943D02*
X004777Y004943D01*
X004400Y004933D02*
X003747Y004933D01*
X004073Y004607D02*
X004073Y005260D01*
X005103Y005270D02*
X005103Y004617D01*
X006813Y006207D02*
X006813Y006860D01*
X006487Y006533D02*
X007140Y006533D01*
D13*
X006639Y005424D02*
X006087Y005424D01*
X006087Y004243D01*
X006639Y004243D01*
X006639Y005424D01*
D14*
X006712Y005227D03*
X006023Y004833D03*
X006712Y004440D03*
M02*
